<?xml version="1.0" standalone="no"?><!DOCTYPE svg PUBLIC "-//W3C//DTD SVG 1.1//EN" "http://www.w3.org/Graphics/SVG/1.1/DTD/svg11.dtd" ><svg version="1.1" xmlns="http://www.w3.org/2000/svg"><defs><font horiz-adv-x="0" id="font"><font-face ascent="750" bbox="-100 -266 1353.38 1016" cap-height="750" descent="-250" font-family="Verizon Apex Bold Italic" font-stretch="normal" font-style="normal" font-weight="500" units-per-em="1000" x-height="500" /><missing-glyph d="M151 632V118L408 375ZM759 118V632L502 375ZM193 66H717L455 328ZM455 422 717 684H193ZM80 750H830V0H80Z" horiz-adv-x="910" /><glyph d="M373 517 286 321H410ZM-5 0 355 766H451L624 0H475L435 190H228L145 0Z" glyph-name="A" horiz-adv-x="679" unicode="A" /><glyph d="M579 454 599 618 475 454ZM999 321H701L678 133H1007L991 0H524L563 321H375L133 0H-25L559 750H1082L1066 617H737L717 454H1015Z" glyph-name="AE" horiz-adv-x="1076" unicode="&#198;" /><glyph d="M373 517 286 321H410ZM366 825 467 1000H618L452 825ZM-5 0 355 766H451L624 0H475L435 190H228L145 0Z" glyph-name="Aacute" horiz-adv-x="679" unicode="&#193;" /><glyph d="M408 809Q318 809 286 858Q254 907 263 1000H365Q363 973 366.5 957Q370 941 377.5 932.5Q385 924 396.5 921Q408 918 421 918Q434 918 446 921Q458 924 468 932.5Q478 941 485.5 957Q493 973 497 1000H599Q585 907 541.5 858Q498 809 408 809ZM373 517 286 321H410ZM-5 0 356 766H452L624 0H475L435 190H228L145 0Z" glyph-name="Abreve" horiz-adv-x="679" unicode="&#258;" /><glyph d="M373 517 286 321H410ZM492 825 418 889 328 825H232L378 1000H484L588 825ZM-5 0 355 766H451L624 0H475L435 190H228L145 0Z" glyph-name="Acircumflex" horiz-adv-x="679" unicode="&#194;" /><glyph d="M373 517 286 321H410ZM227 908Q232 942 258 966Q284 990 318 990Q352 990 373 966Q394 942 390 908Q386 874 359 850.5Q332 827 298 827Q264 827 243.5 850.5Q223 874 227 908ZM450 908Q455 942 481 966Q507 990 541 990Q575 990 596 966Q617 942 613 908Q609 874 582 850.5Q555 827 521 827Q487 827 466.5 850.5Q446 874 450 908ZM-5 0 355 766H451L624 0H475L435 190H228L145 0Z" glyph-name="Adieresis" horiz-adv-x="679" unicode="&#196;" /><glyph d="M373 517 286 321H410ZM368 825 244 1000H395L454 825ZM-5 0 355 766H451L624 0H475L435 190H228L145 0Z" glyph-name="Agrave" horiz-adv-x="679" unicode="&#192;" /><glyph d="M547 825H273L289 953H563ZM373 517 286 321H410ZM-5 0 356 766H452L624 0H475L435 190H228L145 0Z" glyph-name="Amacron" horiz-adv-x="679" unicode="&#256;" /><glyph d="M373 517 286 321H410ZM-5 0 356 766H452L624 0H619Q595 0 572 -6.5Q549 -13 531 -24Q513 -35 501 -50.5Q489 -66 487 -84Q485 -106 501 -113.5Q517 -121 534 -121Q548 -121 560 -119Q572 -117 581 -115Q592 -112 600 -109L587 -213Q579 -218 555 -225Q531 -232 490 -232Q466 -232 442.5 -225Q419 -218 402 -203.5Q385 -189 376 -166.5Q367 -144 371 -113Q376 -67 403 -28.5Q430 10 468 34L435 190H228L145 0Z" glyph-name="Aogonek" horiz-adv-x="679" unicode="&#260;" /><glyph d="M457 912Q459 933 450.5 941Q442 949 425 949Q407 949 397 941Q387 933 385 912Q382 892 390 884.5Q398 877 416 877Q433 877 443.5 884.5Q454 892 457 912ZM373 517 286 321H410ZM525 912Q518 858 486.5 833.5Q455 809 408 809Q360 809 334.5 833.5Q309 858 316 912Q322 966 353.5 991Q385 1016 433 1016Q480 1016 505.5 991Q531 966 525 912ZM-5 0 355 766H451L624 0H475L435 190H228L145 0Z" glyph-name="Aring" horiz-adv-x="679" unicode="&#197;" /><glyph d="M638 984Q621 895 584.5 855.5Q548 816 478 818Q447 819 429.5 830.5Q412 842 400 855Q388 868 378 878.5Q368 889 353 889Q330 889 319.5 871.5Q309 854 304 829L204 842Q221 931 258 970.5Q295 1010 364 1008Q395 1007 412.5 995.5Q430 984 442 971Q454 958 464.5 947.5Q475 937 490 937Q513 937 523 954.5Q533 972 538 997ZM373 517 286 321H410ZM-5 0 356 766H452L624 0H475L435 190H228L145 0Z" glyph-name="Atilde" horiz-adv-x="679" unicode="&#195;" /><glyph d="M459 536Q461 551 459 566Q457 581 448 592Q439 603 420.5 610Q402 617 371 617H254L234 454H359Q386 454 404.5 461Q423 468 434.5 480Q446 492 451.5 506.5Q457 521 459 536ZM195 133H318Q354 133 377.5 141Q401 149 415 162Q429 175 436 192Q443 209 445 226Q451 275 428.5 298Q406 321 343 321H218ZM131 750H384Q453 750 498.5 733Q544 716 569.5 687Q595 658 602.5 619Q610 580 605 536Q600 498 582 461.5Q564 425 532 396Q570 367 583 322Q596 277 590 226Q584 179 565.5 137.5Q547 96 512 65.5Q477 35 424.5 17.5Q372 0 298 0H40Z" glyph-name="B" horiz-adv-x="633" unicode="B" /><glyph d="M70 375Q80 455 104 526Q128 597 170 650.5Q212 704 274 735Q336 766 423 766Q489 766 542 755.5Q595 745 631 728L614 585Q580 599 552 608.5Q524 618 499.5 623.5Q475 629 452.5 631Q430 633 407 633Q362 633 328 613Q294 593 270.5 558Q247 523 233 476Q219 429 212 375Q206 321 208.5 274Q211 227 226 192Q241 157 270 137Q299 117 344 117Q367 117 390 119Q413 121 439 126.5Q465 132 495.5 141.5Q526 151 563 165L545 22Q505 5 449.5 -5.5Q394 -16 328 -16Q241 -16 186.5 15Q132 46 102.5 99.5Q73 153 66.5 224Q60 295 70 375Z" glyph-name="C" horiz-adv-x="628" unicode="C" /><glyph d="M462 1000H613L467 825H361ZM71 375Q81 455 105 526Q129 597 171 650.5Q213 704 275 735Q337 766 424 766Q490 766 543 755.5Q596 745 632 728L614 585Q581 599 553 608.5Q525 618 500 623.5Q475 629 452.5 631Q430 633 407 633Q362 633 328 613Q294 593 271 558Q248 523 233.5 476Q219 429 213 375Q206 321 208.5 274Q211 227 226 192Q241 157 270 137Q299 117 344 117Q367 117 390 119Q413 121 439 126.5Q465 132 495.5 141.5Q526 151 563 165L545 22Q505 5 449.5 -5.5Q394 -16 328 -16Q241 -16 186.5 15Q132 46 103 99.5Q74 153 67.5 224Q61 295 71 375Z" glyph-name="Cacute" horiz-adv-x="628" unicode="&#262;" /><glyph d="M360 1000 434 936 524 1000H620L474 825H368L264 1000ZM71 375Q81 455 105 526Q129 597 171 650.5Q213 704 275 735Q337 766 424 766Q490 766 543 755.5Q596 745 632 728L614 585Q581 599 553 608.5Q525 618 500 623.5Q475 629 452.5 631Q430 633 407 633Q362 633 328 613Q294 593 271 558Q248 523 233.5 476Q219 429 213 375Q206 321 208.5 274Q211 227 226 192Q241 157 270 137Q299 117 344 117Q367 117 390 119Q413 121 439 126.5Q465 132 495.5 141.5Q526 151 563 165L545 22Q505 5 449.5 -5.5Q394 -16 328 -16Q241 -16 186.5 15Q132 46 103 99.5Q74 153 67.5 224Q61 295 71 375Z" glyph-name="Ccaron" horiz-adv-x="628" unicode="&#268;" /><glyph d="M235 -185Q246 -176 256.5 -165Q267 -154 273 -142.5Q279 -131 278.5 -121.5Q278 -112 269 -106Q253 -97 248.5 -84.5Q244 -72 246 -59.5Q248 -47 255.5 -34.5Q263 -22 271 -12Q202 -2 159 32.5Q116 67 93 118.5Q70 170 65.5 236Q61 302 70 375Q80 455 104 526Q128 597 170 650.5Q212 704 274 735Q336 766 423 766Q489 766 542 755.5Q595 745 631 728L614 585Q580 599 552 608.5Q524 618 499.5 623.5Q475 629 452.5 631Q430 633 407 633Q362 633 328 613Q294 593 270.5 558Q247 523 233 476Q219 429 212 375Q206 321 208.5 274Q211 227 226 192Q241 157 270 137Q299 117 344 117Q367 117 390 119Q413 121 439 126.5Q465 132 495.5 141.5Q526 151 563 165L545 22Q510 7 463 -3Q416 -13 360 -15Q349 -29 347.5 -43.5Q346 -58 366 -71Q389 -85 394 -101Q399 -117 394.5 -133Q390 -149 378.5 -162.5Q367 -176 357 -185Z" glyph-name="Ccedilla" horiz-adv-x="628" unicode="&#199;" /><glyph d="M503 825 429 889 339 825H243L389 1000H495L599 825ZM71 375Q81 455 105 526Q129 597 171 650.5Q213 704 275 735Q337 766 424 766Q490 766 543 755.5Q596 745 632 728L614 585Q581 599 553 608.5Q525 618 500 623.5Q475 629 452.5 631Q430 633 407 633Q362 633 328 613Q294 593 271 558Q248 523 233.5 476Q219 429 213 375Q206 321 208.5 274Q211 227 226 192Q241 157 270 137Q299 117 344 117Q367 117 390 119Q413 121 439 126.5Q465 132 495.5 141.5Q526 151 563 165L545 22Q505 5 449.5 -5.5Q394 -16 328 -16Q241 -16 186.5 15Q132 46 103 99.5Q74 153 67.5 224Q61 295 71 375Z" glyph-name="Ccircumflex" horiz-adv-x="628" unicode="&#264;" /><glyph d="M350 908Q355 942 381 966Q407 990 441 990Q475 990 496 966Q517 942 513 908Q508 874 481.5 850.5Q455 827 421 827Q387 827 366 850.5Q345 874 350 908ZM71 375Q81 455 105 526Q129 597 171 650.5Q213 704 275 735Q337 766 424 766Q490 766 543 755.5Q596 745 632 728L614 585Q581 599 553 608.5Q525 618 500 623.5Q475 629 452.5 631Q430 633 407 633Q362 633 328 613Q294 593 271 558Q248 523 233.5 476Q219 429 213 375Q206 321 208.5 274Q211 227 226 192Q241 157 270 137Q299 117 344 117Q367 117 390 119Q413 121 439 126.5Q465 132 495.5 141.5Q526 151 563 165L545 22Q505 5 449.5 -5.5Q394 -16 328 -16Q241 -16 186.5 15Q132 46 103 99.5Q74 153 67.5 224Q61 295 71 375Z" glyph-name="Cdotaccent" horiz-adv-x="628" unicode="&#266;" /><glyph d="M194 133H281Q332 133 368 151Q404 169 428 201Q452 233 466 277.5Q480 322 486 375Q492 428 489 472.5Q486 517 470 549Q454 581 422.5 599Q391 617 340 617H253ZM40 0 131 750H353Q447 750 505.5 721.5Q564 693 595 642.5Q626 592 632.5 523.5Q639 455 629 375Q619 295 596 226.5Q573 158 530 107.5Q487 57 421.5 28.5Q356 0 262 0Z" glyph-name="D" horiz-adv-x="669" unicode="D" /><glyph d="M314 1000 388 936 478 1000H574L428 825H322L218 1000ZM194 133H281Q332 133 368 151Q404 169 428 201Q452 233 466 277.5Q480 322 487 375Q493 428 490 472.5Q487 517 470.5 549Q454 581 422.5 599Q391 617 340 617H253ZM40 0 132 750H354Q448 750 506.5 721.5Q565 693 596 642.5Q627 592 633.5 523.5Q640 455 630 375Q620 295 596.5 226.5Q573 158 530 107.5Q487 57 421.5 28.5Q356 0 262 0Z" glyph-name="Dcaron" horiz-adv-x="669" unicode="&#270;" /><glyph d="M261 433H381L366 317H246L224 133H311Q362 133 398 151Q434 169 458 201Q482 233 496 277.5Q510 322 517 375Q523 428 520 472.5Q517 517 500.5 549Q484 581 452.5 599Q421 617 370 617H283ZM33 433H123L162 750H384Q478 750 536.5 721.5Q595 693 626 642.5Q657 592 663.5 523.5Q670 455 660 375Q650 295 626.5 226.5Q603 158 560 107.5Q517 57 451.5 28.5Q386 0 292 0H70L108 317H18Z" glyph-name="Dcroat" horiz-adv-x="699" unicode="&#272;" /><glyph d="M64 250Q71 305 97.5 353.5Q124 402 164.5 438Q205 474 256 495Q307 516 362 516Q417 516 463 495Q509 474 541 438Q573 402 588 353.5Q603 305 596 250Q589 195 562.5 146.5Q536 98 495.5 62Q455 26 404 5Q353 -16 298 -16Q243 -16 197 5Q151 26 119 62Q87 98 72 146.5Q57 195 64 250Z" glyph-name="Delta" horiz-adv-x="660" unicode="&#8710;" /><glyph d="M515 321H217L194 133H523L507 0H40L131 750H598L582 617H253L233 454H531Z" glyph-name="E" horiz-adv-x="592" unicode="E" /><glyph d="M330 825 431 1000H582L416 825ZM515 321H217L194 133H523L507 0H40L131 750H598L582 617H253L233 454H531Z" glyph-name="Eacute" horiz-adv-x="592" unicode="&#201;" /><glyph d="M373 809Q283 809 251 858Q219 907 228 1000H330Q328 973 331.5 957Q335 941 342.5 932.5Q350 924 361.5 921Q373 918 386 918Q399 918 411 921Q423 924 433 932.5Q443 941 450.5 957Q458 973 462 1000H564Q550 907 506.5 858Q463 809 373 809ZM515 321H217L194 133H523L507 0H40L132 750H599L582 617H253L233 454H531Z" glyph-name="Ebreve" horiz-adv-x="592" unicode="&#276;" /><glyph d="M314 1000 388 936 478 1000H574L428 825H322L218 1000ZM515 321H217L194 133H523L507 0H40L132 750H599L582 617H253L233 454H531Z" glyph-name="Ecaron" horiz-adv-x="592" unicode="&#282;" /><glyph d="M456 825 382 889 292 825H196L342 1000H448L552 825ZM515 321H217L194 133H523L507 0H40L131 750H598L582 617H253L233 454H531Z" glyph-name="Ecircumflex" horiz-adv-x="592" unicode="&#202;" /><glyph d="M414 908Q419 942 445 966Q471 990 505 990Q539 990 560 966Q581 942 577 908Q573 874 546 850.5Q519 827 485 827Q451 827 430.5 850.5Q410 874 414 908ZM191 908Q196 942 222 966Q248 990 282 990Q316 990 337 966Q358 942 354 908Q350 874 323 850.5Q296 827 262 827Q228 827 207.5 850.5Q187 874 191 908ZM515 321H217L194 133H523L507 0H40L131 750H598L582 617H253L233 454H531Z" glyph-name="Edieresis" horiz-adv-x="592" unicode="&#203;" /><glyph d="M304 908Q309 942 335 966Q361 990 395 990Q429 990 450 966Q471 942 467 908Q462 874 435.5 850.5Q409 827 375 827Q341 827 320 850.5Q299 874 304 908ZM515 321H217L194 133H523L507 0H40L132 750H599L582 617H253L233 454H531Z" glyph-name="Edotaccent" horiz-adv-x="592" unicode="&#278;" /><glyph d="M332 825 208 1000H359L418 825ZM515 321H217L194 133H523L507 0H40L131 750H598L582 617H253L233 454H531Z" glyph-name="Egrave" horiz-adv-x="592" unicode="&#200;" /><glyph d="M512 825H238L254 953H528ZM515 321H217L194 133H523L507 0H40L132 750H599L582 617H253L233 454H531Z" glyph-name="Emacron" horiz-adv-x="592" unicode="&#274;" /><glyph d="M324 -144Q343 -144 363.5 -139.5Q384 -135 400.5 -126.5Q417 -118 428 -106Q439 -94 441 -78L455 39L230 470L175 0H40L132 750H240L485 280L541 750H676L574 -81Q568 -125 545 -159.5Q522 -194 486.5 -217.5Q451 -241 405.5 -253.5Q360 -266 309 -266Z" glyph-name="Eng" horiz-adv-x="684" unicode="&#330;" /><glyph d="M515 321H217L194 133H523L507 0Q482 0 458.5 -6Q435 -12 416 -23Q397 -34 384.5 -49.5Q372 -65 370 -84Q368 -106 384 -113.5Q400 -121 417 -121Q431 -121 443 -119Q455 -117 464 -115Q475 -112 483 -109L470 -213Q462 -218 438 -225Q414 -232 373 -232Q349 -232 325.5 -225Q302 -218 285 -203.5Q268 -189 259 -166.5Q250 -144 254 -113Q262 -49 311 0H40L132 750H599L582 617H253L233 454H531Z" glyph-name="Eogonek" horiz-adv-x="592" unicode="&#280;" /><glyph d="M231 433H351L336 317H216L194 133H281Q332 133 368 151Q404 169 428 201Q452 233 466 277.5Q480 322 487 375Q493 428 490 472.5Q487 517 470.5 549Q454 581 422.5 599Q391 617 340 617H253ZM3 433H93L132 750H354Q448 750 506.5 721.5Q565 693 596 642.5Q627 592 633.5 523.5Q640 455 630 375Q620 295 596.5 226.5Q573 158 530 107.5Q487 57 421.5 28.5Q356 0 262 0H40L78 317H-12Z" glyph-name="Eth" horiz-adv-x="669" unicode="&#208;" /><glyph d="M506 524 447 395H240Q239 390 239 385Q239 380 238 375Q237 370 236.5 365Q236 360 235 355H429L369 226H235Q240 191 251.5 168.5Q263 146 279.5 132.5Q296 119 317 114Q338 109 363 109Q406 109 451.5 119Q497 129 542 143L527 17Q479 -2 431 -9Q383 -16 348 -16Q291 -16 246 -5Q201 6 168.5 33.5Q136 61 118 108Q100 155 97 226H29L45 355H103Q103 360 103.5 365Q104 370 105 375Q106 380 106 385Q106 390 107 395H50L65 524H133Q153 595 182.5 642Q212 689 251 716.5Q290 744 338 755Q386 766 443 766Q478 766 524.5 759Q571 752 614 733L598 607Q557 621 514 631Q471 641 428 641Q378 641 338 617Q298 593 271 524Z" glyph-name="Euro" horiz-adv-x="600" unicode="&#8364;" /><glyph d="M218 187Q224 145 246.5 127Q269 109 307 109Q350 109 390.5 117.5Q431 126 476 140L460 14Q412 -5 369.5 -10.5Q327 -16 292 -16Q190 -16 135.5 33Q81 82 80 187H24L40 316H96Q123 419 189 467.5Q255 516 356 516Q391 516 433 510.5Q475 505 518 486L502 360Q461 374 422.5 382.5Q384 391 341 391Q304 391 277 373Q250 355 234 316H409L349 187Z" glyph-name="Euro.OP" horiz-adv-x="546" /><glyph d="M506 321H218L179 0H40L131 750H590L574 617H254L234 454H522Z" glyph-name="F" horiz-adv-x="564" unicode="F" /><glyph d="M328 -16Q241 -16 186 15Q131 46 102 99.5Q73 153 66.5 224Q60 295 70 375Q80 455 103.5 526Q127 597 169 650.5Q211 704 273.5 735Q336 766 423 766Q498 766 553 752.5Q608 739 644 721L627 579Q591 595 561 605.5Q531 616 505 622Q479 628 455 630.5Q431 633 407 633Q361 633 327.5 613Q294 593 270 558Q246 523 232 476Q218 429 211 375Q205 321 207.5 274Q210 227 225 192Q240 157 269 137Q298 117 344 117Q370 117 399 119Q428 121 451 126L472 296H332L348 429H626L578 34Q528 13 466 -1.5Q404 -16 328 -16Z" glyph-name="G" horiz-adv-x="674" unicode="G" /><glyph d="M416 809Q326 809 294 858Q262 907 271 1000H373Q371 973 374.5 957Q378 941 385.5 932.5Q393 924 404.5 921Q416 918 429 918Q442 918 454 921Q466 924 476 932.5Q486 941 493.5 957Q501 973 505 1000H607Q593 907 549.5 858Q506 809 416 809ZM328 -16Q241 -16 186 15Q131 46 102 99.5Q73 153 67 224Q61 295 71 375Q81 455 104.5 526Q128 597 170 650.5Q212 704 274.5 735Q337 766 424 766Q499 766 554 752.5Q609 739 645 721L628 579Q592 595 562 605.5Q532 616 505.5 622Q479 628 455 630.5Q431 633 407 633Q361 633 327.5 613Q294 593 270.5 558Q247 523 232.5 476Q218 429 212 375Q205 321 207.5 274Q210 227 225 192Q240 157 269 137Q298 117 344 117Q370 117 399 119Q428 121 451 126L472 296H332L348 429H626L578 34Q528 13 466 -1.5Q404 -16 328 -16Z" glyph-name="Gbreve" horiz-adv-x="674" unicode="&#286;" /><glyph d="M499 825 425 889 335 825H239L385 1000H491L595 825ZM328 -16Q241 -16 186 15Q131 46 102 99.5Q73 153 67 224Q61 295 71 375Q81 455 104.5 526Q128 597 170 650.5Q212 704 274.5 735Q337 766 424 766Q499 766 554 752.5Q609 739 645 721L628 579Q592 595 562 605.5Q532 616 505.5 622Q479 628 455 630.5Q431 633 407 633Q361 633 327.5 613Q294 593 270.5 558Q247 523 232.5 476Q218 429 212 375Q205 321 207.5 274Q210 227 225 192Q240 157 269 137Q298 117 344 117Q370 117 399 119Q428 121 451 126L472 296H332L348 429H626L578 34Q528 13 466 -1.5Q404 -16 328 -16Z" glyph-name="Gcircumflex" horiz-adv-x="674" unicode="&#284;" /><glyph d="M224 -250 244 -192Q215 -168 220 -127Q224 -93 250.5 -69Q277 -45 311 -45Q345 -45 366 -69Q387 -93 383 -127Q381 -138 377 -148Q373 -158 368 -166L319 -250ZM328 -16Q241 -16 186 15Q131 46 102 99.5Q73 153 67 224Q61 295 71 375Q81 455 104.5 526Q128 597 170 650.5Q212 704 274.5 735Q337 766 424 766Q499 766 554 752.5Q609 739 645 721L628 579Q592 595 562 605.5Q532 616 505.5 622Q479 628 455 630.5Q431 633 407 633Q361 633 327.5 613Q294 593 270.5 558Q247 523 232.5 476Q218 429 212 375Q205 321 207.5 274Q210 227 225 192Q240 157 269 137Q298 117 344 117Q370 117 399 119Q428 121 451 126L472 296H332L348 429H626L578 34Q528 13 466 -1.5Q404 -16 328 -16Z" glyph-name="Gcommaaccent" horiz-adv-x="674" unicode="&#290;" /><glyph d="M346 908Q351 942 377 966Q403 990 437 990Q471 990 492 966Q513 942 509 908Q504 874 477.5 850.5Q451 827 417 827Q383 827 362 850.5Q341 874 346 908ZM328 -16Q241 -16 186 15Q131 46 102 99.5Q73 153 67 224Q61 295 71 375Q81 455 104.5 526Q128 597 170 650.5Q212 704 274.5 735Q337 766 424 766Q499 766 554 752.5Q609 739 645 721L628 579Q592 595 562 605.5Q532 616 505.5 622Q479 628 455 630.5Q431 633 407 633Q361 633 327.5 613Q294 593 270.5 558Q247 523 232.5 476Q218 429 212 375Q205 321 207.5 274Q210 227 225 192Q240 157 269 137Q298 117 344 117Q370 117 399 119Q428 121 451 126L472 296H332L348 429H626L578 34Q528 13 466 -1.5Q404 -16 328 -16Z" glyph-name="Gdotaccent" horiz-adv-x="674" unicode="&#288;" /><glyph d="M438 0 477 321H217L178 0H40L131 750H269L233 454H493L529 750H667L576 0Z" glyph-name="H" horiz-adv-x="676" unicode="H" /><glyph d="M493 454 505 552H245L233 454ZM438 0 477 321H217L178 0H40L132 750H270L258 659H518L530 750H668L576 0Z" glyph-name="Hbar" horiz-adv-x="676" unicode="&#294;" /><glyph d="M491 825 417 889 327 825H231L377 1000H483L587 825ZM438 0 477 321H217L178 0H40L132 750H270L233 454H493L530 750H668L576 0Z" glyph-name="Hcircumflex" horiz-adv-x="676" unicode="&#292;" /><glyph d="M50 0 141 750H280L189 0Z" glyph-name="I" horiz-adv-x="299" unicode="I" /><glyph d="M275 133Q310 123 331.5 119.5Q353 116 374 116Q401 116 419 124.5Q437 133 440 156L513 750H651L578 157Q567 75 514.5 29.5Q462 -16 358 -16Q349 -16 335.5 -14.5Q322 -13 308 -11Q294 -9 281 -5.5Q268 -2 259 1ZM50 0 142 750H281L189 0Z" glyph-name="IJ" horiz-adv-x="669" unicode="&#306;" /><glyph d="M176 825 277 1000H428L262 825ZM50 0 141 750H280L189 0Z" glyph-name="Iacute" horiz-adv-x="299" unicode="&#205;" /><glyph d="M219 809Q129 809 97 858Q65 907 74 1000H176Q174 973 177.5 957Q181 941 188.5 932.5Q196 924 207.5 921Q219 918 232 918Q245 918 257 921Q269 924 279 932.5Q289 941 296.5 957Q304 973 308 1000H410Q396 907 352.5 858Q309 809 219 809ZM50 0 142 750H281L189 0Z" glyph-name="Ibreve" horiz-adv-x="299" unicode="&#300;" /><glyph d="M302 825 228 889 138 825H42L188 1000H294L398 825ZM50 0 141 750H280L189 0Z" glyph-name="Icircumflex" horiz-adv-x="299" unicode="&#206;" /><glyph d="M260 908Q265 942 291 966Q317 990 351 990Q385 990 406 966Q427 942 423 908Q419 874 392 850.5Q365 827 331 827Q297 827 276.5 850.5Q256 874 260 908ZM37 908Q42 942 68 966Q94 990 128 990Q162 990 183 966Q204 942 200 908Q196 874 169 850.5Q142 827 108 827Q74 827 53.5 850.5Q33 874 37 908ZM50 0 141 750H280L189 0Z" glyph-name="Idieresis" horiz-adv-x="299" unicode="&#207;" /><glyph d="M149 908Q154 942 180 966Q206 990 240 990Q274 990 295 966Q316 942 312 908Q307 874 280.5 850.5Q254 827 220 827Q186 827 165 850.5Q144 874 149 908ZM50 0 142 750H281L189 0Z" glyph-name="Idotaccent" horiz-adv-x="299" unicode="&#304;" /><glyph d="M176 825 52 1000H203L262 825ZM50 0 141 750H280L189 0Z" glyph-name="Igrave" horiz-adv-x="299" unicode="&#204;" /><glyph d="M358 825H84L100 953H374ZM50 0 142 750H281L189 0Z" glyph-name="Imacron" horiz-adv-x="299" /><glyph d="M189 0Q179 0 163.5 -6Q148 -12 133 -23Q118 -34 106 -49.5Q94 -65 92 -84Q90 -106 106 -113.5Q122 -121 139 -121Q153 -121 165 -119Q177 -117 186 -115Q197 -112 205 -109L192 -213Q184 -218 160 -225Q136 -232 95 -232Q71 -232 48 -225Q25 -218 7.5 -203.5Q-10 -189 -19 -166.5Q-28 -144 -24 -113Q-19 -74 1.5 -40Q22 -6 52 19L142 750H281Z" glyph-name="Iogonek" horiz-adv-x="299" unicode="&#302;" /><glyph d="M448 984Q431 895 394.5 855.5Q358 816 288 818Q257 819 239.5 830.5Q222 842 210 855Q198 868 188 878.5Q178 889 163 889Q140 889 129.5 871.5Q119 854 114 829L14 842Q31 931 68 970.5Q105 1010 174 1008Q205 1007 222.5 995.5Q240 984 252 971Q264 958 274.5 947.5Q285 937 300 937Q323 937 333 954.5Q343 972 348 997ZM50 0 142 750H281L189 0Z" glyph-name="Itilde" horiz-adv-x="299" unicode="&#296;" /><glyph d="M16 133Q51 123 72.5 119.5Q94 116 115 116Q142 116 160 124.5Q178 133 181 156L253 750H391L319 157Q308 75 255.5 29.5Q203 -16 99 -16Q90 -16 76.5 -14.5Q63 -13 49 -11Q35 -9 22 -5.5Q9 -2 0 1Z" glyph-name="J" horiz-adv-x="410" unicode="J" /><glyph d="M414 825 340 889 250 825H154L300 1000H406L510 825ZM16 133Q51 123 72.5 119.5Q94 116 115 116Q142 116 160 124.5Q178 133 181 156L254 750H392L319 157Q308 75 255.5 29.5Q203 -16 99 -16Q90 -16 76.5 -14.5Q63 -13 49 -11Q35 -9 22 -5.5Q9 -2 0 1Z" glyph-name="Jcircumflex" horiz-adv-x="410" unicode="&#308;" /><glyph d="M209 274 176 0H40L131 750H267L232 465L490 750H672L334 405L604 0H424L231 299Z" glyph-name="K" horiz-adv-x="649" unicode="K" /><glyph d="M204 -250 224 -192Q195 -168 200 -127Q204 -93 230.5 -69Q257 -45 291 -45Q325 -45 346 -69Q367 -93 363 -127Q361 -138 357 -148Q353 -158 348 -166L299 -250ZM209 274 176 0H40L132 750H268L233 465L491 750H673L334 405L604 0H424L231 299Z" glyph-name="Kcommaaccent" horiz-adv-x="649" unicode="&#310;" /><glyph d="M193 133H505L489 0H40L131 750H268Z" glyph-name="L" horiz-adv-x="554" unicode="L" /><glyph d="M166 825 267 1000H418L252 825ZM193 133H505L489 0H40L132 750H269Z" glyph-name="Lacute" horiz-adv-x="554" unicode="&#313;" /><glyph d="M462 750 389 550H323L364 750ZM193 133H505L489 0H40L132 750H269Z" glyph-name="Lcaron" horiz-adv-x="554" unicode="&#317;" /><glyph d="M164 -250 184 -192Q155 -168 160 -127Q164 -93 190.5 -69Q217 -45 251 -45Q285 -45 306 -69Q327 -93 323 -127Q321 -138 317 -148Q313 -158 308 -166L259 -250ZM193 133H505L489 0H40L132 750H269Z" glyph-name="Lcommaaccent" horiz-adv-x="554" unicode="&#315;" /><glyph d="M350 375Q354 409 380.5 433Q407 457 441 457Q475 457 496 433Q517 409 513 375Q508 341 481.5 317.5Q455 294 421 294Q387 294 366 317.5Q345 341 350 375ZM193 133H505L489 0H40L132 750H269Z" glyph-name="Ldot" horiz-adv-x="554" unicode="&#319;" /><glyph d="M124 362 172 750H309L270 432L493 540L475 395L252 287L233 133H545L529 0H80L106 217L10 171L28 316Z" glyph-name="Lslash" horiz-adv-x="594" unicode="&#321;" /><glyph d="M450 95H350L229 479L176 0H40L131 750H283L424 291L677 750H829L738 0H602L665 482Z" glyph-name="M" horiz-adv-x="838" unicode="M" /><glyph d="M476 0 230 470 175 0H40L131 750H239L485 280L540 750H675L584 0Z" glyph-name="N" horiz-adv-x="684" unicode="N" /><glyph d="M366 825 467 1000H618L452 825ZM476 0 230 470 175 0H40L132 750H240L485 280L541 750H676L584 0Z" glyph-name="Nacute" horiz-adv-x="684" unicode="&#323;" /><glyph d="M349 1000 423 936 513 1000H609L463 825H357L253 1000ZM476 0 230 470 175 0H40L132 750H240L485 280L541 750H676L584 0Z" glyph-name="Ncaron" horiz-adv-x="684" unicode="&#327;" /><glyph d="M224 -250 244 -192Q215 -168 220 -127Q224 -93 250.5 -69Q277 -45 311 -45Q345 -45 366 -69Q387 -93 383 -127Q381 -138 377 -148Q373 -158 368 -166L319 -250ZM476 0 230 470 175 0H40L132 750H240L485 280L541 750H676L584 0Z" glyph-name="Ncommaaccent" horiz-adv-x="684" unicode="&#325;" /><glyph d="M640 984Q623 895 586.5 855.5Q550 816 480 818Q449 819 431.5 830.5Q414 842 402 855Q390 868 380 878.5Q370 889 355 889Q332 889 321.5 871.5Q311 854 306 829L206 842Q223 931 260 970.5Q297 1010 366 1008Q397 1007 414.5 995.5Q432 984 444 971Q456 958 466.5 947.5Q477 937 492 937Q515 937 525 954.5Q535 972 540 997ZM476 0 230 470 175 0H40L132 750H240L485 280L541 750H676L584 0Z" glyph-name="Ntilde" horiz-adv-x="684" unicode="&#209;" /><glyph d="M510 375Q516 426 517 473Q518 520 506.5 555.5Q495 591 468.5 612Q442 633 393 633Q344 633 312 612Q280 591 260 555.5Q240 520 229 473Q218 426 212 375Q206 324 205.5 277Q205 230 216.5 194.5Q228 159 254.5 138Q281 117 330 117Q379 117 411 138Q443 159 463 194.5Q483 230 493.5 277Q504 324 510 375ZM652 375Q643 301 625 231Q607 161 570 106Q533 51 471.5 17.5Q410 -16 314 -16Q218 -16 164.5 17.5Q111 51 87 106Q63 161 62 231Q61 301 70 375Q79 448 97 518.5Q115 589 152.5 644Q190 699 251.5 732.5Q313 766 409 766Q505 766 558.5 732.5Q612 699 636 644Q660 589 660.5 518.5Q661 448 652 375Z" glyph-name="O" horiz-adv-x="692" unicode="O" /><glyph d="M455 617H419Q368 617 332 599Q296 581 271.5 549Q247 517 233 472.5Q219 428 213 375Q207 322 210 277.5Q213 233 229.5 201Q246 169 277.5 151Q309 133 360 133H396ZM815 321H557L534 133H823L807 0H347Q253 0 194 28.5Q135 57 104.5 107.5Q74 158 67 226.5Q60 295 70 375Q80 455 103.5 523.5Q127 592 170 642.5Q213 693 278.5 721.5Q344 750 438 750H898L882 617H593L573 454H831Z" glyph-name="OE" horiz-adv-x="892" unicode="&#338;" /><glyph d="M372 825 473 1000H624L458 825ZM510 375Q516 426 517 473Q518 520 506.5 555.5Q495 591 468.5 612Q442 633 393 633Q344 633 312 612Q280 591 260 555.5Q240 520 229 473Q218 426 212 375Q206 324 205.5 277Q205 230 216.5 194.5Q228 159 254.5 138Q281 117 330 117Q379 117 411 138Q443 159 463 194.5Q483 230 493.5 277Q504 324 510 375ZM652 375Q643 301 625 231Q607 161 570 106Q533 51 471.5 17.5Q410 -16 314 -16Q218 -16 164.5 17.5Q111 51 87 106Q63 161 62 231Q61 301 70 375Q79 448 97 518.5Q115 589 152.5 644Q190 699 251.5 732.5Q313 766 409 766Q505 766 558.5 732.5Q612 699 636 644Q660 589 660.5 518.5Q661 448 652 375Z" glyph-name="Oacute" horiz-adv-x="692" unicode="&#211;" /><glyph d="M415 809Q325 809 293 858Q261 907 270 1000H372Q370 973 373.5 957Q377 941 384.5 932.5Q392 924 403.5 921Q415 918 428 918Q441 918 453 921Q465 924 475 932.5Q485 941 492.5 957Q500 973 504 1000H606Q592 907 548.5 858Q505 809 415 809ZM511 375Q517 426 517.5 473Q518 520 506.5 555.5Q495 591 468.5 612Q442 633 393 633Q344 633 312 612Q280 591 260 555.5Q240 520 229.5 473Q219 426 213 375Q207 324 206 277Q205 230 216.5 194.5Q228 159 254.5 138Q281 117 330 117Q379 117 411 138Q443 159 463 194.5Q483 230 494 277Q505 324 511 375ZM653 375Q644 301 626 231Q608 161 570.5 106Q533 51 471.5 17.5Q410 -16 314 -16Q218 -16 164.5 17.5Q111 51 87 106Q63 161 62.5 231Q62 301 71 375Q80 448 98 518.5Q116 589 153.5 644Q191 699 252.5 732.5Q314 766 410 766Q506 766 559.5 732.5Q613 699 637 644Q661 589 661.5 518.5Q662 448 653 375Z" glyph-name="Obreve" horiz-adv-x="692" unicode="&#334;" /><glyph d="M498 825 424 889 334 825H238L384 1000H490L594 825ZM510 375Q516 426 517 473Q518 520 506.5 555.5Q495 591 468.5 612Q442 633 393 633Q344 633 312 612Q280 591 260 555.5Q240 520 229 473Q218 426 212 375Q206 324 205.5 277Q205 230 216.5 194.5Q228 159 254.5 138Q281 117 330 117Q379 117 411 138Q443 159 463 194.5Q483 230 493.5 277Q504 324 510 375ZM652 375Q643 301 625 231Q607 161 570 106Q533 51 471.5 17.5Q410 -16 314 -16Q218 -16 164.5 17.5Q111 51 87 106Q63 161 62 231Q61 301 70 375Q79 448 97 518.5Q115 589 152.5 644Q190 699 251.5 732.5Q313 766 409 766Q505 766 558.5 732.5Q612 699 636 644Q660 589 660.5 518.5Q661 448 652 375Z" glyph-name="Ocircumflex" horiz-adv-x="692" unicode="&#212;" /><glyph d="M456 908Q461 942 487 966Q513 990 547 990Q581 990 602 966Q623 942 619 908Q615 874 588 850.5Q561 827 527 827Q493 827 472.5 850.5Q452 874 456 908ZM233 908Q238 942 264 966Q290 990 324 990Q358 990 379 966Q400 942 396 908Q392 874 365 850.5Q338 827 304 827Q270 827 249.5 850.5Q229 874 233 908ZM510 375Q516 426 517 473Q518 520 506.5 555.5Q495 591 468.5 612Q442 633 393 633Q344 633 312 612Q280 591 260 555.5Q240 520 229 473Q218 426 212 375Q206 324 205.5 277Q205 230 216.5 194.5Q228 159 254.5 138Q281 117 330 117Q379 117 411 138Q443 159 463 194.5Q483 230 493.5 277Q504 324 510 375ZM652 375Q643 301 625 231Q607 161 570 106Q533 51 471.5 17.5Q410 -16 314 -16Q218 -16 164.5 17.5Q111 51 87 106Q63 161 62 231Q61 301 70 375Q79 448 97 518.5Q115 589 152.5 644Q190 699 251.5 732.5Q313 766 409 766Q505 766 558.5 732.5Q612 699 636 644Q660 589 660.5 518.5Q661 448 652 375Z" glyph-name="Odieresis" horiz-adv-x="692" unicode="&#214;" /><glyph d="M374 825 250 1000H401L460 825ZM510 375Q516 426 517 473Q518 520 506.5 555.5Q495 591 468.5 612Q442 633 393 633Q344 633 312 612Q280 591 260 555.5Q240 520 229 473Q218 426 212 375Q206 324 205.5 277Q205 230 216.5 194.5Q228 159 254.5 138Q281 117 330 117Q379 117 411 138Q443 159 463 194.5Q483 230 493.5 277Q504 324 510 375ZM652 375Q643 301 625 231Q607 161 570 106Q533 51 471.5 17.5Q410 -16 314 -16Q218 -16 164.5 17.5Q111 51 87 106Q63 161 62 231Q61 301 70 375Q79 448 97 518.5Q115 589 152.5 644Q190 699 251.5 732.5Q313 766 409 766Q505 766 558.5 732.5Q612 699 636 644Q660 589 660.5 518.5Q661 448 652 375Z" glyph-name="Ograve" horiz-adv-x="692" unicode="&#210;" /><glyph d="M445 825 546 1000H697L551 825ZM278 825 379 1000H530L384 825ZM511 375Q517 426 517.5 473Q518 520 506.5 555.5Q495 591 468.5 612Q442 633 393 633Q344 633 312 612Q280 591 260 555.5Q240 520 229.5 473Q219 426 213 375Q207 324 206 277Q205 230 216.5 194.5Q228 159 254.5 138Q281 117 330 117Q379 117 411 138Q443 159 463 194.5Q483 230 494 277Q505 324 511 375ZM653 375Q644 301 626 231Q608 161 570.5 106Q533 51 471.5 17.5Q410 -16 314 -16Q218 -16 164.5 17.5Q111 51 87 106Q63 161 62.5 231Q62 301 71 375Q80 448 98 518.5Q116 589 153.5 644Q191 699 252.5 732.5Q314 766 410 766Q506 766 559.5 732.5Q613 699 637 644Q661 589 661.5 518.5Q662 448 653 375Z" glyph-name="Ohungarumlaut" horiz-adv-x="692" unicode="&#336;" /><glyph d="M554 825H280L296 953H570ZM511 375Q517 426 517.5 473Q518 520 506.5 555.5Q495 591 468.5 612Q442 633 393 633Q344 633 312 612Q280 591 260 555.5Q240 520 229.5 473Q219 426 213 375Q207 324 206 277Q205 230 216.5 194.5Q228 159 254.5 138Q281 117 330 117Q379 117 411 138Q443 159 463 194.5Q483 230 494 277Q505 324 511 375ZM653 375Q644 301 626 231Q608 161 570.5 106Q533 51 471.5 17.5Q410 -16 314 -16Q218 -16 164.5 17.5Q111 51 87 106Q63 161 62.5 231Q62 301 71 375Q80 448 98 518.5Q116 589 153.5 644Q191 699 252.5 732.5Q314 766 410 766Q506 766 559.5 732.5Q613 699 637 644Q661 589 661.5 518.5Q662 448 653 375Z" glyph-name="Omacron" horiz-adv-x="692" unicode="&#332;" /><glyph d="M257 478Q284 478 314.5 483Q345 488 378 496L364 384Q326 374 295.5 370.5Q265 367 243 367Q147 367 112 418Q77 469 89 567Q100 664 148 715Q196 766 292 766Q314 766 343 762.5Q372 759 409 749L395 637Q363 645 334 650Q305 655 278 655Q243 655 225.5 635Q208 615 203 567Q197 518 209.5 498Q222 478 257 478Z" glyph-name="Omega" horiz-adv-x="396" unicode="&#8486;" /><glyph d="M510 375Q513 401 515 426Q517 451 517 474L272 127Q295 117 330 117Q379 117 411 138Q443 159 463 194.5Q483 230 493.5 277Q504 324 510 375ZM212 375Q209 346 206.5 319Q204 292 205 267L454 620Q428 633 393 633Q344 633 312 612Q280 591 260 555.5Q240 520 229 473Q218 426 212 375ZM636 643Q659 588 660 518Q661 448 652 375Q643 301 625 231Q607 161 570 106Q533 51 471.5 17.5Q410 -16 314 -16Q275 -16 243.5 -10.5Q212 -5 186 6L183 0H17L88 102Q63 158 62 229Q61 300 70 375Q79 448 97 518.5Q115 589 152.5 644Q190 699 251.5 732.5Q313 766 409 766Q450 766 482 759.5Q514 753 540 742L546 750H712Z" glyph-name="Oslash" horiz-adv-x="692" unicode="&#216;" /><glyph d="M644 984Q627 895 590.5 855.5Q554 816 484 818Q453 819 435.5 830.5Q418 842 406 855Q394 868 384 878.5Q374 889 359 889Q336 889 325.5 871.5Q315 854 310 829L210 842Q227 931 264 970.5Q301 1010 370 1008Q401 1007 418.5 995.5Q436 984 448 971Q460 958 470.5 947.5Q481 937 496 937Q519 937 529 954.5Q539 972 544 997ZM511 375Q517 426 517.5 473Q518 520 506.5 555.5Q495 591 468.5 612Q442 633 393 633Q344 633 312 612Q280 591 260 555.5Q240 520 229.5 473Q219 426 213 375Q207 324 206 277Q205 230 216.5 194.5Q228 159 254.5 138Q281 117 330 117Q379 117 411 138Q443 159 463 194.5Q483 230 494 277Q505 324 511 375ZM653 375Q644 301 626 231Q608 161 570.5 106Q533 51 471.5 17.5Q410 -16 314 -16Q218 -16 164.5 17.5Q111 51 87 106Q63 161 62.5 231Q62 301 71 375Q80 448 98 518.5Q116 589 153.5 644Q191 699 252.5 732.5Q314 766 410 766Q506 766 559.5 732.5Q613 699 637 644Q661 589 661.5 518.5Q662 448 653 375Z" glyph-name="Otilde" horiz-adv-x="692" unicode="&#213;" /><glyph d="M228 404H337Q373 404 397 414Q421 424 435 439.5Q449 455 456 474Q463 493 465 511Q467 529 465 548Q463 567 452.5 582Q442 597 420.5 607Q399 617 363 617H254ZM179 0H40L131 750H377Q450 750 498.5 730Q547 710 574 677Q601 644 609.5 601Q618 558 612 511Q606 464 587 420.5Q568 377 533 344Q498 311 445 291Q392 271 319 271H212Z" glyph-name="P" horiz-adv-x="600" unicode="P" /><glyph d="M510 375Q516 426 517 473Q518 520 506.5 555.5Q495 591 468.5 612Q442 633 393 633Q344 633 312 612Q280 591 260 555.5Q240 520 229 473Q218 426 212 375Q206 324 205.5 277Q205 230 216.5 194.5Q228 159 254.5 138Q281 117 330 117Q379 117 411 138Q443 159 463 194.5Q483 230 493.5 277Q504 324 510 375ZM652 375Q646 324 636 275Q626 226 609 181.5Q592 137 566 100Q540 63 501 37V36L707 0L691 -130L219 -5Q157 11 123.5 48.5Q90 86 75.5 137.5Q61 189 61.5 250.5Q62 312 70 375Q79 448 97 518.5Q115 589 152.5 644Q190 699 251.5 732.5Q313 766 409 766Q505 766 558.5 732.5Q612 699 636 644Q660 589 660.5 518.5Q661 448 652 375Z" glyph-name="Q" horiz-adv-x="692" unicode="Q" /><glyph d="M230 429H354Q387 429 408 436.5Q429 444 441 456.5Q453 469 458.5 486.5Q464 504 466 524Q469 543 467.5 560Q466 577 457 590Q448 603 429 610Q410 617 377 617H253ZM178 0H40L131 750H380Q454 750 502 734Q550 718 576.5 689Q603 660 610.5 618Q618 576 612 524Q604 453 573.5 402Q543 351 478 323Q486 299 496.5 274.5Q507 250 518 225Q528 199 540.5 169Q553 139 565 109Q577 79 588.5 50.5Q600 22 609 0H442L333 296H214Z" glyph-name="R" horiz-adv-x="654" unicode="R" /><glyph d="M324 825 425 1000H576L410 825ZM230 429H354Q387 429 408 436.5Q429 444 441 456.5Q453 469 458.5 486.5Q464 504 467 524Q469 543 467.5 560Q466 577 457 590Q448 603 429 610Q410 617 377 617H253ZM178 0H40L132 750H381Q455 750 503 734Q551 718 577.5 689Q604 660 611.5 618Q619 576 613 524Q604 452 574 401.5Q544 351 478 323L609 0H442L333 296H214Z" glyph-name="Racute" horiz-adv-x="654" unicode="&#340;" /><glyph d="M307 1000 381 936 471 1000H567L421 825H315L211 1000ZM230 429H354Q387 429 408 436.5Q429 444 441 456.5Q453 469 458.5 486.5Q464 504 467 524Q469 543 467.5 560Q466 577 457 590Q448 603 429 610Q410 617 377 617H253ZM178 0H40L132 750H381Q455 750 503 734Q551 718 577.5 689Q604 660 611.5 618Q619 576 613 524Q604 452 574 401.5Q544 351 478 323L609 0H442L333 296H214Z" glyph-name="Rcaron" horiz-adv-x="654" unicode="&#344;" /><glyph d="M204 -250 224 -192Q195 -168 200 -127Q204 -93 230.5 -69Q257 -45 291 -45Q325 -45 346 -69Q367 -93 363 -127Q361 -138 357 -148Q353 -158 348 -166L299 -250ZM230 429H354Q387 429 408 436.5Q429 444 441 456.5Q453 469 458.5 486.5Q464 504 467 524Q469 543 467.5 560Q466 577 457 590Q448 603 429 610Q410 617 377 617H253ZM178 0H40L132 750H381Q455 750 503 734Q551 718 577.5 689Q604 660 611.5 618Q619 576 613 524Q604 452 574 401.5Q544 351 478 323L609 0H442L333 296H214Z" glyph-name="Rcommaaccent" horiz-adv-x="654" unicode="&#342;" /><glyph d="M348 454Q407 446 451 431.5Q495 417 522.5 391.5Q550 366 561 327.5Q572 289 565 232Q560 191 542 147Q524 103 487 67Q450 31 391 7.5Q332 -16 245 -16Q220 -16 188.5 -12Q157 -8 125.5 -1Q94 6 66.5 14.5Q39 23 23 32L40 171Q51 164 72 155Q93 146 121.5 137.5Q150 129 185.5 123Q221 117 262 117Q305 117 334 126Q363 135 382 151Q401 167 410.5 188Q420 209 423 232Q428 278 402 295.5Q376 313 310 321Q242 330 196 345.5Q150 361 123 386Q96 411 87.5 447.5Q79 484 85 535Q89 570 104.5 610.5Q120 651 153 685.5Q186 720 241 743Q296 766 379 766Q445 766 497 753Q549 740 587 722L570 579Q536 596 508.5 606.5Q481 617 456 623Q431 629 408.5 631Q386 633 363 633Q324 633 298.5 624.5Q273 616 257.5 602.5Q242 589 234.5 571Q227 553 225 534Q222 511 229 497Q236 483 251.5 475Q267 467 291.5 462.5Q316 458 348 454Z" glyph-name="S" horiz-adv-x="617" unicode="S" /><glyph d="M333 825 434 1000H585L419 825ZM348 454Q408 446 452 431.5Q496 417 523.5 391.5Q551 366 561.5 327.5Q572 289 565 232Q560 191 542 147Q524 103 487 67Q450 31 391 7.5Q332 -16 245 -16Q220 -16 188.5 -12Q157 -8 125.5 -1Q94 6 66.5 14.5Q39 23 23 32L40 171Q51 164 72 155Q93 146 121.5 137.5Q150 129 185.5 123Q221 117 262 117Q305 117 334 126Q363 135 382 151Q401 167 410.5 188Q420 209 423 232Q426 255 421 270.5Q416 286 402.5 295.5Q389 305 366 311Q343 317 310 321Q242 330 196.5 345.5Q151 361 124 386Q97 411 88 447.5Q79 484 85 535Q89 570 104.5 610.5Q120 651 153.5 685.5Q187 720 242 743Q297 766 380 766Q446 766 498 753Q550 740 588 722L571 579Q537 596 509 606.5Q481 617 456 623Q431 629 408.5 631Q386 633 363 633Q324 633 298.5 624.5Q273 616 257.5 602.5Q242 589 234.5 571Q227 553 225 534Q222 511 229.5 497Q237 483 252.5 475Q268 467 292 462.5Q316 458 348 454Z" glyph-name="Sacute" horiz-adv-x="617" unicode="&#346;" /><glyph d="M581 1000 435 825H329L225 1000H321L396 936L485 1000ZM348 454Q407 446 451 431.5Q495 417 522.5 391.5Q550 366 561 327.5Q572 289 565 232Q560 191 542 147Q524 103 487 67Q450 31 391 7.5Q332 -16 245 -16Q220 -16 188.5 -12Q157 -8 125.5 -1Q94 6 66.5 14.5Q39 23 23 32L40 171Q51 164 72 155Q93 146 121.5 137.5Q150 129 185.5 123Q221 117 262 117Q305 117 334 126Q363 135 382 151Q401 167 410.5 188Q420 209 423 232Q428 278 402 295.5Q376 313 310 321Q242 330 196 345.5Q150 361 123 386Q96 411 87.5 447.5Q79 484 85 535Q89 570 104.5 610.5Q120 651 153 685.5Q186 720 241 743Q296 766 379 766Q445 766 497 753Q549 740 587 722L570 579Q536 596 508.5 606.5Q481 617 456 623Q431 629 408.5 631Q386 633 363 633Q324 633 298.5 624.5Q273 616 257.5 602.5Q242 589 234.5 571Q227 553 225 534Q222 511 229 497Q236 483 251.5 475Q267 467 291.5 462.5Q316 458 348 454Z" glyph-name="Scaron" horiz-adv-x="617" unicode="&#352;" /><glyph d="M160 -185Q171 -176 181.5 -165Q192 -154 197.5 -142.5Q203 -131 203 -121.5Q203 -112 193 -106Q177 -97 172.5 -85Q168 -73 170.5 -60Q173 -47 180.5 -35Q188 -23 196 -13Q172 -10 147 -5.5Q122 -1 98.5 5Q75 11 55.5 18Q36 25 23 32L40 171Q51 164 72 155Q93 146 121.5 137.5Q150 129 185.5 123Q221 117 262 117Q305 117 334 126Q363 135 382 151Q401 167 410.5 188Q420 209 423 232Q426 255 421 270.5Q416 286 402.5 295.5Q389 305 366 311Q343 317 310 321Q242 330 196.5 345.5Q151 361 124 386Q97 411 88 447.5Q79 484 85 535Q89 570 104.5 610.5Q120 651 153.5 685.5Q187 720 242 743Q297 766 380 766Q446 766 498 753Q550 740 588 722L571 579Q537 596 509 606.5Q481 617 456 623Q431 629 408.5 631Q386 633 363 633Q324 633 298.5 624.5Q273 616 257.5 602.5Q242 589 234.5 571Q227 553 225 534Q222 511 229.5 497Q237 483 252.5 475Q268 467 292 462.5Q316 458 348 454Q408 446 452 431.5Q496 417 523.5 391.5Q551 366 561.5 327.5Q572 289 565 232Q560 193 544 152Q528 111 496 76Q464 41 412.5 16.5Q361 -8 286 -14Q275 -28 273 -43Q271 -58 291 -71Q314 -85 319 -101Q324 -117 319.5 -133Q315 -149 303.5 -162.5Q292 -176 282 -185Z" glyph-name="Scedilla" horiz-adv-x="617" unicode="&#350;" /><glyph d="M205 825 351 1000H457L561 825H465L391 889L301 825ZM348 454Q408 446 452 431.5Q496 417 523.5 391.5Q551 366 561.5 327.5Q572 289 565 232Q560 191 542 147Q524 103 487 67Q450 31 391 7.5Q332 -16 245 -16Q220 -16 188.5 -12Q157 -8 125.5 -1Q94 6 66.5 14.5Q39 23 23 32L40 171Q51 164 72 155Q93 146 121.5 137.5Q150 129 185.5 123Q221 117 262 117Q305 117 334 126Q363 135 382 151Q401 167 410.5 188Q420 209 423 232Q426 255 421 270.5Q416 286 402.5 295.5Q389 305 366 311Q343 317 310 321Q242 330 196.5 345.5Q151 361 124 386Q97 411 88 447.5Q79 484 85 535Q89 570 104.5 610.5Q120 651 153.5 685.5Q187 720 242 743Q297 766 380 766Q446 766 498 753Q550 740 588 722L571 579Q537 596 509 606.5Q481 617 456 623Q431 629 408.5 631Q386 633 363 633Q324 633 298.5 624.5Q273 616 257.5 602.5Q242 589 234.5 571Q227 553 225 534Q222 511 229.5 497Q237 483 252.5 475Q268 467 292 462.5Q316 458 348 454Z" glyph-name="Scircumflex" horiz-adv-x="617" unicode="&#348;" /><glyph d="M154 -250 174 -192Q145 -168 150 -127Q154 -93 180.5 -69Q207 -45 241 -45Q275 -45 296 -69Q317 -93 313 -127Q311 -138 307 -148Q303 -158 298 -166L249 -250ZM348 454Q408 446 452 431.5Q496 417 523.5 391.5Q551 366 561.5 327.5Q572 289 565 232Q560 191 542 147Q524 103 487 67Q450 31 391 7.5Q332 -16 245 -16Q220 -16 188.5 -12Q157 -8 125.5 -1Q94 6 66.5 14.5Q39 23 23 32L40 171Q51 164 72 155Q93 146 121.5 137.5Q150 129 185.5 123Q221 117 262 117Q305 117 334 126Q363 135 382 151Q401 167 410.5 188Q420 209 423 232Q426 255 421 270.5Q416 286 402.5 295.5Q389 305 366 311Q343 317 310 321Q242 330 196.5 345.5Q151 361 124 386Q97 411 88 447.5Q79 484 85 535Q89 570 104.5 610.5Q120 651 153.5 685.5Q187 720 242 743Q297 766 380 766Q446 766 498 753Q550 740 588 722L571 579Q537 596 509 606.5Q481 617 456 623Q431 629 408.5 631Q386 633 363 633Q324 633 298.5 624.5Q273 616 257.5 602.5Q242 589 234.5 571Q227 553 225 534Q222 511 229.5 497Q237 483 252.5 475Q268 467 292 462.5Q316 458 348 454Z" glyph-name="Scommaaccent" horiz-adv-x="617" unicode="&#536;" /><glyph d="M407 617 332 0H193L268 617H80L96 750H611L595 617Z" glyph-name="T" horiz-adv-x="585" unicode="T" /><glyph d="M407 617 386 446H499L485 331H372L332 0H193L233 331H120L134 446H247L268 617H80L97 750H612L595 617Z" glyph-name="Tbar" horiz-adv-x="585" unicode="&#358;" /><glyph d="M302 1000 376 936 466 1000H562L416 825H310L206 1000ZM407 617 332 0H193L268 617H80L97 750H612L595 617Z" glyph-name="Tcaron" horiz-adv-x="585" unicode="&#356;" /><glyph d="M170 -250 190 -192Q161 -168 166 -127Q170 -93 196.5 -69Q223 -45 257 -45Q291 -45 312 -69Q333 -93 329 -127Q327 -138 323 -148Q319 -158 314 -166L265 -250ZM407 617 332 0H193L268 617H80L97 750H612L595 617Z" glyph-name="Tcommaaccent" horiz-adv-x="585" unicode="&#354;" /><glyph d="M211 268H320Q356 268 380 278Q404 288 418 303.5Q432 319 439 338Q446 357 448 375Q450 393 448 412Q446 431 435.5 446Q425 461 403.5 471Q382 481 346 481H237ZM179 0H40L131 750H270L253 614H360Q433 614 481.5 594Q530 574 557 541Q584 508 592.5 465Q601 422 595 375Q589 328 570.5 284.5Q552 241 516.5 208Q481 175 428 155Q375 135 302 135H195Z" glyph-name="Thorn" horiz-adv-x="610" unicode="&#222;" /><glyph d="M326 118Q344 118 368.5 121.5Q393 125 416 139Q439 153 457.5 180.5Q476 208 482 255L542 750H680L618 243Q611 187 592 146.5Q573 106 547 77Q521 48 489.5 30Q458 12 426 1.5Q394 -9 363.5 -12.5Q333 -16 310 -16Q286 -16 257 -12.5Q228 -9 198.5 1.5Q169 12 141.5 30Q114 48 94.5 77Q75 106 66 146.5Q57 187 64 243L126 750H264L204 255Q198 208 209.5 180.5Q221 153 241 139Q261 125 284.5 121.5Q308 118 326 118Z" glyph-name="U" horiz-adv-x="684" unicode="U" /><glyph d="M368 825 469 1000H620L454 825ZM326 118Q344 118 368.5 121.5Q393 125 416 139Q439 153 457.5 180.5Q476 208 482 255L542 750H680L618 243Q611 187 592 146.5Q573 106 547 77Q521 48 489.5 30Q458 12 426 1.5Q394 -9 363.5 -12.5Q333 -16 310 -16Q286 -16 257 -12.5Q228 -9 198.5 1.5Q169 12 141.5 30Q114 48 94.5 77Q75 106 66 146.5Q57 187 64 243L126 750H264L204 255Q198 208 209.5 180.5Q221 153 241 139Q261 125 284.5 121.5Q308 118 326 118Z" glyph-name="Uacute" horiz-adv-x="684" unicode="&#218;" /><glyph d="M411 809Q321 809 289 858Q257 907 266 1000H368Q366 973 369.5 957Q373 941 380.5 932.5Q388 924 399.5 921Q411 918 424 918Q437 918 449 921Q461 924 471 932.5Q481 941 488.5 957Q496 973 500 1000H602Q588 907 544.5 858Q501 809 411 809ZM326 118Q344 118 368.5 121.5Q393 125 416 139Q439 153 457.5 180.5Q476 208 482 255L543 750H681L618 243Q611 187 592 146.5Q573 106 547 77Q521 48 489.5 30Q458 12 426 1.5Q394 -9 363.5 -12.5Q333 -16 310 -16Q286 -16 257 -12.5Q228 -9 198.5 1.5Q169 12 141.5 30Q114 48 94.5 77Q75 106 66 146.5Q57 187 64 243L127 750H265L204 255Q198 208 209.5 180.5Q221 153 241 139Q261 125 284.5 121.5Q308 118 326 118Z" glyph-name="Ubreve" horiz-adv-x="684" unicode="&#364;" /><glyph d="M494 825 420 889 330 825H234L380 1000H486L590 825ZM326 118Q344 118 368.5 121.5Q393 125 416 139Q439 153 457.5 180.5Q476 208 482 255L542 750H680L618 243Q611 187 592 146.5Q573 106 547 77Q521 48 489.5 30Q458 12 426 1.5Q394 -9 363.5 -12.5Q333 -16 310 -16Q286 -16 257 -12.5Q228 -9 198.5 1.5Q169 12 141.5 30Q114 48 94.5 77Q75 106 66 146.5Q57 187 64 243L126 750H264L204 255Q198 208 209.5 180.5Q221 153 241 139Q261 125 284.5 121.5Q308 118 326 118Z" glyph-name="Ucircumflex" horiz-adv-x="684" unicode="&#219;" /><glyph d="M229 908Q234 942 260 966Q286 990 320 990Q354 990 375 966Q396 942 392 908Q388 874 361 850.5Q334 827 300 827Q266 827 245.5 850.5Q225 874 229 908ZM452 908Q457 942 483 966Q509 990 543 990Q577 990 598 966Q619 942 615 908Q611 874 584 850.5Q557 827 523 827Q489 827 468.5 850.5Q448 874 452 908ZM326 118Q344 118 368.5 121.5Q393 125 416 139Q439 153 457.5 180.5Q476 208 482 255L542 750H680L618 243Q611 187 592 146.5Q573 106 547 77Q521 48 489.5 30Q458 12 426 1.5Q394 -9 363.5 -12.5Q333 -16 310 -16Q286 -16 257 -12.5Q228 -9 198.5 1.5Q169 12 141.5 30Q114 48 94.5 77Q75 106 66 146.5Q57 187 64 243L126 750H264L204 255Q198 208 209.5 180.5Q221 153 241 139Q261 125 284.5 121.5Q308 118 326 118Z" glyph-name="Udieresis" horiz-adv-x="684" unicode="&#220;" /><glyph d="M370 825 246 1000H397L456 825ZM326 118Q344 118 368.5 121.5Q393 125 416 139Q439 153 457.5 180.5Q476 208 482 255L542 750H680L618 243Q611 187 592 146.5Q573 106 547 77Q521 48 489.5 30Q458 12 426 1.5Q394 -9 363.5 -12.5Q333 -16 310 -16Q286 -16 257 -12.5Q228 -9 198.5 1.5Q169 12 141.5 30Q114 48 94.5 77Q75 106 66 146.5Q57 187 64 243L126 750H264L204 255Q198 208 209.5 180.5Q221 153 241 139Q261 125 284.5 121.5Q308 118 326 118Z" glyph-name="Ugrave" horiz-adv-x="684" unicode="&#217;" /><glyph d="M431 825 532 1000H683L537 825ZM264 825 365 1000H516L370 825ZM326 118Q344 118 368.5 121.5Q393 125 416 139Q439 153 457.5 180.5Q476 208 482 255L543 750H681L618 243Q611 187 592 146.5Q573 106 547 77Q521 48 489.5 30Q458 12 426 1.5Q394 -9 363.5 -12.5Q333 -16 310 -16Q286 -16 257 -12.5Q228 -9 198.5 1.5Q169 12 141.5 30Q114 48 94.5 77Q75 106 66 146.5Q57 187 64 243L127 750H265L204 255Q198 208 209.5 180.5Q221 153 241 139Q261 125 284.5 121.5Q308 118 326 118Z" glyph-name="Uhungarumlaut" horiz-adv-x="684" unicode="&#368;" /><glyph d="M550 825H276L292 953H566ZM326 118Q344 118 368.5 121.5Q393 125 416 139Q439 153 457.5 180.5Q476 208 482 255L543 750H681L618 243Q611 187 592 146.5Q573 106 547 77Q521 48 489.5 30Q458 12 426 1.5Q394 -9 363.5 -12.5Q333 -16 310 -16Q286 -16 257 -12.5Q228 -9 198.5 1.5Q169 12 141.5 30Q114 48 94.5 77Q75 106 66 146.5Q57 187 64 243L127 750H265L204 255Q198 208 209.5 180.5Q221 153 241 139Q261 125 284.5 121.5Q308 118 326 118Z" glyph-name="Umacron" horiz-adv-x="684" unicode="&#362;" /><glyph d="M191 -113Q194 -84 207 -58Q220 -32 240 -9Q205 -3 170.5 12.5Q136 28 109.5 57.5Q83 87 69.5 132Q56 177 64 243L127 750H265L204 255Q198 208 209.5 180.5Q221 153 241 139Q261 125 284.5 121.5Q308 118 326 118Q344 118 368.5 121.5Q393 125 416 139Q439 153 457.5 180.5Q476 208 482 255L543 750H681L618 243Q610 179 586.5 134.5Q563 90 531 61Q499 32 461.5 15.5Q424 -1 389 -8Q354 -18 332.5 -37Q311 -56 307 -84Q305 -106 321 -113.5Q337 -121 354 -121Q368 -121 380 -119Q392 -117 401 -115Q412 -112 420 -109L407 -213Q399 -218 375 -225Q351 -232 310 -232Q286 -232 262.5 -225Q239 -218 222 -203.5Q205 -189 196 -166.5Q187 -144 191 -113Z" glyph-name="Uogonek" horiz-adv-x="684" unicode="&#370;" /><glyph d="M459 912Q462 933 453.5 941Q445 949 428 949Q410 949 400 941Q390 933 387 912Q385 892 393 884.5Q401 877 419 877Q436 877 446.5 884.5Q457 892 459 912ZM527 912Q521 858 489.5 833.5Q458 809 411 809Q363 809 337.5 833.5Q312 858 318 912Q325 966 356.5 991Q388 1016 436 1016Q483 1016 508.5 991Q534 966 527 912ZM326 118Q344 118 368.5 121.5Q393 125 416 139Q439 153 457.5 180.5Q476 208 482 255L543 750H681L618 243Q611 187 592 146.5Q573 106 547 77Q521 48 489.5 30Q458 12 426 1.5Q394 -9 363.5 -12.5Q333 -16 310 -16Q286 -16 257 -12.5Q228 -9 198.5 1.5Q169 12 141.5 30Q114 48 94.5 77Q75 106 66 146.5Q57 187 64 243L127 750H265L204 255Q198 208 209.5 180.5Q221 153 241 139Q261 125 284.5 121.5Q308 118 326 118Z" glyph-name="Uring" horiz-adv-x="684" unicode="&#366;" /><glyph d="M640 984Q623 895 586.5 855.5Q550 816 480 818Q449 819 431.5 830.5Q414 842 402 855Q390 868 380 878.5Q370 889 355 889Q332 889 321.5 871.5Q311 854 306 829L206 842Q223 931 260 970.5Q297 1010 366 1008Q397 1007 414.5 995.5Q432 984 444 971Q456 958 466.5 947.5Q477 937 492 937Q515 937 525 954.5Q535 972 540 997ZM326 118Q344 118 368.5 121.5Q393 125 416 139Q439 153 457.5 180.5Q476 208 482 255L543 750H681L618 243Q611 187 592 146.5Q573 106 547 77Q521 48 489.5 30Q458 12 426 1.5Q394 -9 363.5 -12.5Q333 -16 310 -16Q286 -16 257 -12.5Q228 -9 198.5 1.5Q169 12 141.5 30Q114 48 94.5 77Q75 106 66 146.5Q57 187 64 243L127 750H265L204 255Q198 208 209.5 180.5Q221 153 241 139Q261 125 284.5 121.5Q308 118 326 118Z" glyph-name="Utilde" horiz-adv-x="684" unicode="&#360;" /><glyph d="M565 750H715L356 -16H259L86 750H236L336 218Z" glyph-name="V" horiz-adv-x="679" unicode="V" /><glyph d="M441 750H564L625 251L773 750H920L662 -16H538L473 505L280 -16H157L86 750H233L259 249Z" glyph-name="W" horiz-adv-x="884" unicode="W" /><glyph d="M595 825 521 889 431 825H335L481 1000H587L691 825ZM442 750H565L625 251L774 750H921L662 -16H538L474 505L280 -16H157L87 750H234L259 249Z" glyph-name="Wcircumflex" horiz-adv-x="884" unicode="&#372;" /><glyph d="M571 750H738L450 379L652 0H482L353 269L160 0H-10L284 380L86 750H253L380 485Z" glyph-name="X" horiz-adv-x="702" unicode="X" /><glyph d="M442 307 405 0H267L304 307L86 750H250L388 432L604 750H768Z" glyph-name="Y" horiz-adv-x="732" unicode="Y" /><glyph d="M392 825 493 1000H644L478 825ZM442 307 405 0H267L304 307L86 750H250L388 432L604 750H768Z" glyph-name="Yacute" horiz-adv-x="732" unicode="&#221;" /><glyph d="M519 825 445 889 355 825H259L405 1000H511L615 825ZM442 307 405 0H267L304 307L87 750H251L389 432L605 750H769Z" glyph-name="Ycircumflex" horiz-adv-x="732" unicode="&#374;" /><glyph d="M253 908Q258 942 284 966Q310 990 344 990Q378 990 399 966Q420 942 416 908Q412 874 385 850.5Q358 827 324 827Q290 827 269.5 850.5Q249 874 253 908ZM476 908Q481 942 507 966Q533 990 567 990Q601 990 622 966Q643 942 639 908Q635 874 608 850.5Q581 827 547 827Q513 827 492.5 850.5Q472 874 476 908ZM442 307 405 0H267L304 307L86 750H250L388 432L604 750H768Z" glyph-name="Ydieresis" horiz-adv-x="732" unicode="&#376;" /><glyph d="M5 0 15 89 432 617H98L114 750H637L626 661L210 133H575L559 0Z" glyph-name="Z" horiz-adv-x="624" unicode="Z" /><glyph d="M333 825 434 1000H585L419 825ZM5 0 15 89 432 617H98L115 750H638L627 661L210 133H575L559 0Z" glyph-name="Zacute" horiz-adv-x="624" unicode="&#377;" /><glyph d="M575 1000 429 825H323L219 1000H315L390 936L479 1000ZM5 0 15 89 432 617H98L114 750H637L626 661L210 133H575L559 0Z" glyph-name="Zcaron" horiz-adv-x="624" unicode="&#381;" /><glyph d="M306 908Q311 942 337 966Q363 990 397 990Q431 990 452 966Q473 942 469 908Q464 874 437.5 850.5Q411 827 377 827Q343 827 322 850.5Q301 874 306 908ZM5 0 15 89 432 617H98L115 750H638L627 661L210 133H575L559 0Z" glyph-name="Zdotaccent" horiz-adv-x="624" unicode="&#379;" /><glyph d="M387 372Q371 379 347 385Q323 391 296 391Q266 391 246.5 380.5Q227 370 214 351Q201 332 194.5 306Q188 280 184 250Q180 220 180.5 194Q181 168 189.5 149Q198 130 215 119.5Q232 109 262 109Q289 109 314.5 115Q340 121 357 128ZM473 0H380L375 18Q346 2 310 -7Q274 -16 245 -16Q179 -16 137 1.5Q95 19 73 53Q51 87 46.5 136.5Q42 186 50 250Q58 314 74.5 363.5Q91 413 121 447Q151 481 197 498.5Q243 516 309 516Q338 516 372 507Q406 498 431 482L440 500H533Z" glyph-name="a" horiz-adv-x="568" unicode="a" /><glyph d="M289 306 246 221H310ZM367 0 339 104H188L137 0H-5L269 516H359L509 0Z" glyph-name="a.smcp" horiz-adv-x="564" /><glyph d="M283 575 384 750H515L349 575ZM387 372Q371 379 347 385Q323 391 296 391Q266 391 246.5 380.5Q227 370 214 351Q201 332 194.5 306Q188 280 184 250Q180 220 180.5 194Q181 168 189.5 149Q198 130 215 119.5Q232 109 262 109Q289 109 314.5 115Q340 121 357 128ZM473 0H380L375 18Q346 2 310 -7Q274 -16 245 -16Q179 -16 137 1.5Q95 19 73 53Q51 87 46.5 136.5Q42 186 50 250Q58 314 74.5 363.5Q91 413 121 447Q151 481 197 498.5Q243 516 309 516Q338 516 372 507Q406 498 431 482L440 500H533Z" glyph-name="aacute" horiz-adv-x="568" unicode="&#225;" /><glyph d="M289 306 247 221H311ZM278 575 380 750H531L364 575ZM367 0 339 104H188L137 0H-5L270 516H360L509 0Z" glyph-name="aacute.smcp" horiz-adv-x="564" /><glyph d="M314 559Q224 559 192 608Q160 657 170 750H272Q269 723 272.5 707Q276 691 284 682.5Q292 674 303.5 671Q315 668 328 668Q341 668 353 671Q365 674 375 682.5Q385 691 392.5 707Q400 723 404 750H506Q492 657 448 608Q404 559 314 559ZM387 372Q371 379 347 385Q323 391 296 391Q266 391 246.5 380.5Q227 370 214 351Q201 332 194.5 306Q188 280 184 250Q180 220 180.5 194Q181 168 189.5 149Q198 130 215 119.5Q232 109 262 109Q289 109 314.5 115Q340 121 357 128ZM473 0H380L375 18Q346 2 310 -7Q274 -16 245 -16Q179 -16 137 1.5Q95 19 73 53Q51 87 46.5 136.5Q42 186 50 250Q58 314 74.5 363.5Q91 413 121 447Q151 481 197 498.5Q243 516 309 516Q338 516 372 507Q406 498 431 482L440 500H533Z" glyph-name="abreve" horiz-adv-x="568" unicode="&#259;" /><glyph d="M325 559Q235 559 203 608Q171 657 181 750H283Q280 723 283.5 707Q287 691 295 682.5Q303 674 314.5 671Q326 668 339 668Q352 668 364 671Q376 674 386 682.5Q396 691 403.5 707Q411 723 415 750H517Q503 657 459 608Q415 559 325 559ZM289 306 247 221H311ZM367 0 339 104H188L137 0H-5L270 516H360L509 0Z" glyph-name="abreve.smcp" horiz-adv-x="574" /><glyph d="M419 575 326 655 215 575H139L285 750H391L495 575ZM387 372Q371 379 347 385Q323 391 296 391Q266 391 246.5 380.5Q227 370 214 351Q201 332 194.5 306Q188 280 184 250Q180 220 180.5 194Q181 168 189.5 149Q198 130 215 119.5Q232 109 262 109Q289 109 314.5 115Q340 121 357 128ZM473 0H380L375 18Q346 2 310 -7Q274 -16 245 -16Q179 -16 137 1.5Q95 19 73 53Q51 87 46.5 136.5Q42 186 50 250Q58 314 74.5 363.5Q91 413 121 447Q151 481 197 498.5Q243 516 309 516Q338 516 372 507Q406 498 431 482L440 500H533Z" glyph-name="acircumflex" horiz-adv-x="568" unicode="&#226;" /><glyph d="M289 306 247 221H311ZM404 575 330 639 240 575H144L291 750H397L500 575ZM367 0 339 104H188L137 0H-5L270 516H360L509 0Z" glyph-name="acircumflex.smcp" horiz-adv-x="564" /><glyph d="M243 575 344 750H495L329 575Z" glyph-name="acute" horiz-adv-x="540" unicode="&#180;" /><glyph d="M134 658Q138 692 164.5 716Q191 740 225 740Q259 740 280 716Q301 692 297 658Q292 624 265.5 600.5Q239 577 205 577Q171 577 150 600.5Q129 624 134 658ZM357 658Q361 692 387.5 716Q414 740 448 740Q482 740 503 716Q524 692 520 658Q515 624 488.5 600.5Q462 577 428 577Q394 577 373 600.5Q352 624 357 658ZM387 372Q371 379 347 385Q323 391 296 391Q266 391 246.5 380.5Q227 370 214 351Q201 332 194.5 306Q188 280 184 250Q180 220 180.5 194Q181 168 189.5 149Q198 130 215 119.5Q232 109 262 109Q289 109 314.5 115Q340 121 357 128ZM473 0H380L375 18Q346 2 310 -7Q274 -16 245 -16Q179 -16 137 1.5Q95 19 73 53Q51 87 46.5 136.5Q42 186 50 250Q58 314 74.5 363.5Q91 413 121 447Q151 481 197 498.5Q243 516 309 516Q338 516 372 507Q406 498 431 482L440 500H533Z" glyph-name="adieresis" horiz-adv-x="568" unicode="&#228;" /><glyph d="M289 306 247 221H311ZM139 658Q144 692 170 716Q196 740 230 740Q264 740 285 716Q306 692 302 658Q298 624 271 600.5Q244 577 210 577Q176 577 155.5 600.5Q135 624 139 658ZM362 658Q367 692 393 716Q419 740 453 740Q487 740 508 716Q529 692 525 658Q521 624 494 600.5Q467 577 433 577Q399 577 378.5 600.5Q358 624 362 658ZM367 0 339 104H188L137 0H-5L270 516H360L509 0Z" glyph-name="adieresis.smcp" horiz-adv-x="564" /><glyph d="M251 193Q220 193 202.5 184Q185 175 182 151Q179 127 194.5 118Q210 109 241 109Q288 109 310 133Q332 157 343 193ZM593 307Q624 307 641.5 316Q659 325 662 349Q665 373 649.5 382Q634 391 603 391Q556 391 534 367Q512 343 501 307ZM357 313Q359 345 341.5 368Q324 391 279 391Q235 391 189.5 382Q144 373 96 353L111 483Q133 493 157.5 499.5Q182 506 206.5 509.5Q231 513 253.5 514.5Q276 516 294 516Q348 516 386 502Q424 488 448 462Q477 488 518 502Q559 516 614 516Q819 516 798 349Q787 264 732 225.5Q677 187 574 187H487Q485 155 502.5 132Q520 109 565 109Q609 109 654.5 118Q700 127 748 147L733 17Q711 7 686.5 0.5Q662 -6 637.5 -9.5Q613 -13 590.5 -14.5Q568 -16 550 -16Q495 -16 457 -2Q419 12 396 38Q366 12 325 -2Q284 -16 230 -16Q25 -16 46 151Q57 236 112 274.5Q167 313 270 313Z" glyph-name="ae" horiz-adv-x="836" unicode="&#230;" /><glyph d="M397 318 403 373 362 318ZM738 193H510L502 125H760L745 0H358L381 193H267L122 0H-25L365 500H806L791 375H533L526 318H754Z" glyph-name="ae.smcp" horiz-adv-x="830" /><glyph d="M1163 277H45L60 405H1178Z" glyph-name="afii00208" horiz-adv-x="1200" unicode="&#8213;" /><glyph d="M283 575 159 750H290L349 575ZM387 372Q371 379 347 385Q323 391 296 391Q266 391 246.5 380.5Q227 370 214 351Q201 332 194.5 306Q188 280 184 250Q180 220 180.5 194Q181 168 189.5 149Q198 130 215 119.5Q232 109 262 109Q289 109 314.5 115Q340 121 357 128ZM473 0H380L375 18Q346 2 310 -7Q274 -16 245 -16Q179 -16 137 1.5Q95 19 73 53Q51 87 46.5 136.5Q42 186 50 250Q58 314 74.5 363.5Q91 413 121 447Q151 481 197 498.5Q243 516 309 516Q338 516 372 507Q406 498 431 482L440 500H533Z" glyph-name="agrave" horiz-adv-x="568" unicode="&#224;" /><glyph d="M289 306 247 221H311ZM278 575 155 750H306L364 575ZM367 0 339 104H188L137 0H-5L270 516H360L509 0Z" glyph-name="agrave.smcp" horiz-adv-x="564" /><glyph d="M387 372Q371 379 347 385Q323 391 296 391Q266 391 246.5 380.5Q227 370 214 351Q201 332 194.5 306Q188 280 184 250Q180 220 180.5 194Q181 168 189.5 149Q198 130 215 119.5Q232 109 262 109Q289 109 314.5 115Q340 121 357 128ZM473 0H380L375 18Q346 2 310 -7Q274 -16 245 -16Q179 -16 137 1.5Q95 19 73 53Q51 87 46.5 136.5Q42 186 50 250Q58 314 74.5 363.5Q91 413 121 447Q151 481 197 498.5Q243 516 309 516Q338 516 372 507Q406 498 431 482L440 500H533ZM453 575H179L195 703H469Z" glyph-name="amacron" horiz-adv-x="568" unicode="&#257;" /><glyph d="M464 575H190L206 703H480ZM289 306 247 221H311ZM367 0 339 104H188L137 0H-5L270 516H360L509 0Z" glyph-name="amacron.smcp" horiz-adv-x="574" /><glyph d="M201 312Q267 340 316.5 385Q366 430 401 484Q324 484 270 439.5Q216 395 201 312ZM735 277H682Q684 254 681 235Q674 177 647.5 130.5Q621 84 577.5 51.5Q534 19 474 1.5Q414 -16 341 -16Q270 -16 214.5 4.5Q159 25 123 64.5Q87 104 71.5 162Q56 220 65 295Q74 369 103.5 427Q133 485 179 525.5Q225 566 285.5 587.5Q346 609 417 609Q438 609 461 606Q475 644 484 680.5Q493 717 497 750H629Q619 667 588.5 581.5Q558 496 507 418.5Q456 341 383 278.5Q310 216 214 180Q234 145 270 127Q306 109 356 109Q393 109 426.5 116.5Q460 124 486 139Q512 154 528.5 178Q545 202 549 235Q550 243 549 254.5Q548 266 545 277H497L513 405H751Z" glyph-name="ampersand" horiz-adv-x="800" unicode="&amp;" /><glyph d="M387 372Q371 379 347 385Q323 391 296 391Q266 391 246.5 380.5Q227 370 214 351Q201 332 194.5 306Q188 280 184 250Q180 220 180.5 194Q181 168 189.5 149Q198 130 215 119.5Q232 109 262 109Q289 109 314.5 115Q340 121 357 128ZM473 0Q413 -15 386 -38Q359 -61 356 -84Q354 -106 370 -113.5Q386 -121 403 -121Q417 -121 429 -119Q441 -117 450 -115Q461 -112 469 -109L456 -213Q448 -218 424 -225Q400 -232 359 -232Q335 -232 311.5 -225.5Q288 -219 270.5 -206Q253 -193 244 -172.5Q235 -152 238 -123Q243 -81 276 -50Q309 -19 379 4L375 18Q346 2 310 -7Q274 -16 245 -16Q179 -16 137 1.5Q95 19 73 53Q51 87 46.5 136.5Q42 186 50 250Q58 314 74.5 363.5Q91 413 121 447Q151 481 197 498.5Q243 516 309 516Q338 516 372 507Q406 498 431 482L440 500H533Z" glyph-name="aogonek" horiz-adv-x="568" unicode="&#261;" /><glyph d="M289 306 247 221H311ZM509 0Q492 0 471.5 -6Q451 -12 433 -23Q415 -34 402 -49.5Q389 -65 387 -84Q385 -106 401 -113.5Q417 -121 434 -121Q448 -121 460 -119Q472 -117 481 -115Q492 -112 500 -109L487 -213Q479 -218 455 -225Q431 -232 390 -232Q366 -232 342.5 -225Q319 -218 302 -203.5Q285 -189 276 -166.5Q267 -144 271 -113Q276 -65 301 -31.5Q326 2 360 25L339 104H188L137 0H-5L270 516H360Z" glyph-name="aogonek.smcp" horiz-adv-x="574" /><glyph d="M266 327H412L394 173H248ZM231 367 203 133H429L457 367ZM110 500H610L550 0H50Z" glyph-name="approxequal" horiz-adv-x="660" unicode="&#8776;" /><glyph d="M363 662Q366 683 357.5 691Q349 699 332 699Q314 699 304 691Q294 683 291 662Q289 642 297 634.5Q305 627 323 627Q340 627 350.5 634.5Q361 642 363 662ZM431 662Q425 608 393.5 583.5Q362 559 315 559Q267 559 241.5 583.5Q216 608 222 662Q229 716 260.5 741Q292 766 340 766Q387 766 412.5 741Q438 716 431 662ZM387 372Q371 379 347 385Q323 391 296 391Q266 391 246.5 380.5Q227 370 214 351Q201 332 194.5 306Q188 280 184 250Q180 220 180.5 194Q181 168 189.5 149Q198 130 215 119.5Q232 109 262 109Q289 109 314.5 115Q340 121 357 128ZM473 0H380L375 18Q346 2 310 -7Q274 -16 245 -16Q179 -16 137 1.5Q95 19 73 53Q51 87 46.5 136.5Q42 186 50 250Q58 314 74.5 363.5Q91 413 121 447Q151 481 197 498.5Q243 516 309 516Q338 516 372 507Q406 498 431 482L440 500H533Z" glyph-name="aring" horiz-adv-x="568" unicode="&#229;" /><glyph d="M289 306 247 221H311ZM369 662Q371 683 362.5 691Q354 699 337 699Q319 699 309 691Q299 683 297 662Q295 642 302.5 634.5Q310 627 328 627Q345 627 356 634.5Q367 642 369 662ZM437 662Q430 608 398.5 583.5Q367 559 320 559Q272 559 246.5 583.5Q221 608 228 662Q235 716 266.5 741Q298 766 346 766Q393 766 418.5 741Q444 716 437 662ZM367 0 339 104H188L137 0H-5L270 516H360L509 0Z" glyph-name="aring.smcp" horiz-adv-x="564" /><glyph d="M389 750 543 500H420L322 599L200 500H77L293 750Z" glyph-name="asciicircum" horiz-adv-x="540" unicode="^" /><glyph d="M342 305Q325 319 308 324.5Q291 330 270 330Q251 330 235.5 320.5Q220 311 203 300Q186 289 166 279.5Q146 270 118 270Q92 270 72.5 281Q53 292 42 304L56 426Q73 412 90 406.5Q107 401 128 401Q147 401 162.5 410.5Q178 420 195 431Q212 442 232 451.5Q252 461 280 461Q306 461 326 450Q346 439 357 427Z" glyph-name="asciitilde" horiz-adv-x="370" unicode="~" /><glyph d="M330 639 440 689 463 546 356 526 423 445 289 361 249 456 185 358 78 447 160 526 54 546 117 688 211 640 210 750H360Z" glyph-name="asterisk" horiz-adv-x="445" unicode="*" /><glyph d="M590 372Q574 378 552.5 383Q531 388 505 388Q477 388 458.5 376.5Q440 365 428.5 346Q417 327 411 302Q405 277 402 250Q399 223 398.5 198Q398 173 405 154Q412 135 427.5 123.5Q443 112 471 112Q499 112 520.5 116.5Q542 121 560 128ZM584 0 578 17Q546 3 517 -5Q488 -13 456 -13Q391 -13 351 6Q311 25 290 59.5Q269 94 265 142.5Q261 191 268 250Q275 309 291 357.5Q307 406 336.5 440.5Q366 475 410.5 494Q455 513 520 513Q552 513 579.5 505Q607 497 634 483L642 500H736L691 127Q757 137 787 189.5Q817 242 828 332Q835 393 831.5 448Q828 503 801 544.5Q774 586 716 610.5Q658 635 558 635Q457 635 387.5 600.5Q318 566 273 511Q228 456 205 387.5Q182 319 174 250Q166 181 172 112.5Q178 44 209.5 -11Q241 -66 302 -100.5Q363 -135 464 -135Q536 -135 603.5 -119.5Q671 -104 731 -76L715 -221Q657 -241 589.5 -252Q522 -263 448 -263Q354 -263 285 -242.5Q216 -222 167.5 -185.5Q119 -149 90 -100Q61 -51 47 6Q33 63 31.5 125.5Q30 188 38 250Q45 312 61.5 374.5Q78 437 106 494Q134 551 175 600Q216 649 273 685.5Q330 722 404.5 742.5Q479 763 573 763Q667 763 734 747Q801 731 847 702.5Q893 674 919.5 634Q946 594 958.5 546.5Q971 499 971 444.5Q971 390 964 332Q955 257 934 195.5Q913 134 876 90.5Q839 47 784.5 23.5Q730 0 653 0Z" glyph-name="at" horiz-adv-x="1012" unicode="@" /><glyph d="M545 734Q528 645 491 605.5Q454 566 384 568Q354 569 336 580.5Q318 592 306 605Q294 618 284 628.5Q274 639 259 639Q236 639 226 621.5Q216 604 211 579L110 592Q127 681 164 720.5Q201 760 271 758Q301 757 318.5 745.5Q336 734 348 721Q360 708 370.5 697.5Q381 687 396 687Q419 687 429 704.5Q439 722 444 747ZM387 372Q371 379 347 385Q323 391 296 391Q266 391 246.5 380.5Q227 370 214 351Q201 332 194.5 306Q188 280 184 250Q180 220 180.5 194Q181 168 189.5 149Q198 130 215 119.5Q232 109 262 109Q289 109 314.5 115Q340 121 357 128ZM473 0H380L375 18Q346 2 310 -7Q274 -16 245 -16Q179 -16 137 1.5Q95 19 73 53Q51 87 46.5 136.5Q42 186 50 250Q58 314 74.5 363.5Q91 413 121 447Q151 481 197 498.5Q243 516 309 516Q338 516 372 507Q406 498 431 482L440 500H533Z" glyph-name="atilde" horiz-adv-x="568" unicode="&#227;" /><glyph d="M555 734Q538 645 501 605.5Q464 566 394 568Q364 569 346 580.5Q328 592 316 605Q304 618 294 628.5Q284 639 269 639Q246 639 236 621.5Q226 604 221 579L120 592Q137 681 174 720.5Q211 760 281 758Q311 757 328.5 745.5Q346 734 358 721Q370 708 380.5 697.5Q391 687 406 687Q429 687 439 704.5Q449 722 454 747ZM289 306 247 221H311ZM367 0 339 104H188L137 0H-5L270 516H360L509 0Z" glyph-name="atilde.smcp" horiz-adv-x="574" /><glyph d="M181 128Q197 121 221 115Q245 109 272 109Q302 109 321.5 119.5Q341 130 354 149Q367 168 373.5 194Q380 220 384 250Q388 280 387.5 306Q387 332 378.5 351Q370 370 353 380.5Q336 391 306 391Q279 391 253.5 385Q228 379 211 372ZM126 750H257L226 497Q246 505 274 510.5Q302 516 323 516Q389 516 431 498.5Q473 481 495 447.5Q517 414 521.5 364Q526 314 518 250Q510 186 493.5 136.5Q477 87 447 53Q417 19 371 1.5Q325 -16 259 -16Q230 -16 196 -7Q162 2 137 18L128 0H35Z" glyph-name="b" horiz-adv-x="568" unicode="b" /><glyph d="M299 329Q319 329 324.5 335Q330 341 331 352Q333 363 327.5 369Q322 375 299 375H213L208 329ZM326 166Q328 185 321 196.5Q314 208 283 208H193L183 125H273Q304 125 314 136.5Q324 148 326 166ZM100 500H306Q400 500 435 461Q470 422 461 352Q459 330 451 312.5Q443 295 430 279Q451 256 457 228.5Q463 201 459 166Q454 131 441.5 101Q429 71 405.5 48.5Q382 26 346.5 13Q311 0 260 0H40Z" glyph-name="b.smcp" horiz-adv-x="509" /><glyph d="M295 -206 69 816H216L442 -206Z" glyph-name="backslash" horiz-adv-x="498" unicode="\" /><glyph d="M161 -206H26L151 816H286Z" glyph-name="bar" horiz-adv-x="299" unicode="|" /><glyph d="M77 374Q81 374 84 376Q87 378 88 386L107 676Q112 752 156 784Q200 816 266 816H318L302 683H259Q255 683 251 681Q247 679 247 672L229 381Q227 358 217.5 339.5Q208 321 194 305Q204 289 209 270Q214 251 210 229L158 -62Q156 -69 159.5 -71Q163 -73 167 -73H210L193 -206H141Q108 -206 82 -198.5Q56 -191 39 -174Q22 -157 15.5 -130.5Q9 -104 16 -66L68 224Q70 232 67 234Q64 236 60 236H21L38 374Z" glyph-name="braceleft" horiz-adv-x="284" unicode="{" /><glyph d="M276 374 259 236H220Q216 236 213 234Q210 232 210 224L190 -66Q185 -142 141 -174Q97 -206 31 -206H-21L-4 -73H39Q43 -73 46.5 -71Q50 -69 50 -62L68 229Q70 251 79.5 270Q89 289 104 305Q93 321 87.5 339.5Q82 358 87 381L139 672Q141 683 131 683H88L104 816H156Q189 816 215 808.5Q241 801 258 784Q275 767 281.5 740.5Q288 714 281 676L230 386Q226 374 234 374Z" glyph-name="braceright" horiz-adv-x="284" unicode="}" /><glyph d="M168 -73H232L215 -206H14L139 816H340L324 683H260Z" glyph-name="bracketleft" horiz-adv-x="306" unicode="[" /><glyph d="M152 683H88L104 816H305L180 -206H-21L-4 -73H60Z" glyph-name="bracketright" horiz-adv-x="306" unicode="]" /><glyph d="M318 559Q235 559 199.5 607.5Q164 656 173 750H260Q257 723 259 707Q261 691 268.5 682.5Q276 674 291.5 671Q307 668 331 668Q355 668 371 671Q387 674 397 682.5Q407 691 412.5 707Q418 723 422 750H509Q495 656 448 607.5Q401 559 318 559Z" glyph-name="breve" horiz-adv-x="602" unicode="&#728;" /><glyph d="M86 284H221L161 -206H26ZM151 816H286L226 326H91Z" glyph-name="brokenbar" horiz-adv-x="299" unicode="&#166;" /><glyph d="M80 375Q83 403 97 427.5Q111 452 131.5 470.5Q152 489 178 499.5Q204 510 232 510Q260 510 283.5 499.5Q307 489 322.5 470.5Q338 452 345.5 427.5Q353 403 350 375Q347 347 333.5 322.5Q320 298 299.5 279.5Q279 261 253 250.5Q227 240 199 240Q171 240 147.5 250.5Q124 261 108 279.5Q92 298 84.5 322.5Q77 347 80 375Z" glyph-name="bullet" horiz-adv-x="400" unicode="&#8226;" /><glyph d="M184 250Q181 222 181.5 196.5Q182 171 189.5 151.5Q197 132 213.5 120.5Q230 109 259 109Q301 109 341.5 117Q382 125 427 141L411 15Q367 -5 322 -10.5Q277 -16 244 -16Q180 -16 139 3.5Q98 23 76 58Q54 93 48.5 142Q43 191 50 250Q57 309 74 358Q91 407 122 442Q153 477 198.5 496.5Q244 516 308 516Q341 516 385.5 510.5Q430 505 469 485L453 359Q412 375 373.5 383Q335 391 293 391Q264 391 244.5 379.5Q225 368 213 348.5Q201 329 194 303.5Q187 278 184 250Z" glyph-name="c" horiz-adv-x="490" unicode="c" /><glyph d="M55 250Q62 304 81 352.5Q100 401 133.5 437Q167 473 215 494.5Q263 516 327 516Q362 516 404 511.5Q446 507 489 488L474 363Q432 380 393 385.5Q354 391 311 391Q280 391 258 378.5Q236 366 221 346Q206 326 198 300.5Q190 275 187 250Q184 224 186 199Q188 174 198 154Q208 134 227 121.5Q246 109 277 109Q320 109 360.5 114.5Q401 120 446 137L431 12Q383 -7 340.5 -11.5Q298 -16 263 -16Q199 -16 156 5.5Q113 27 88 63Q63 99 55.5 147.5Q48 196 55 250Z" glyph-name="c.smcp" horiz-adv-x="515" /><glyph d="M261 575 363 750H514L347 575ZM184 250Q181 222 181.5 196.5Q182 171 189.5 151.5Q197 132 213.5 120.5Q230 109 259 109Q301 109 341.5 117Q382 125 427 141L411 15Q367 -5 322 -10.5Q277 -16 244 -16Q180 -16 139 3.5Q98 23 76 58Q54 93 48.5 142Q43 191 50 250Q57 309 74.5 358Q92 407 123 442Q154 477 199.5 496.5Q245 516 309 516Q342 516 386 510.5Q430 505 469 485L454 359Q412 375 374 383Q336 391 294 391Q265 391 245.5 379.5Q226 368 213.5 348.5Q201 329 194 303.5Q187 278 184 250Z" glyph-name="cacute" horiz-adv-x="490" unicode="&#263;" /><glyph d="M279 575 381 750H532L365 575ZM55 250Q62 304 81.5 352.5Q101 401 134.5 437Q168 473 216 494.5Q264 516 328 516Q363 516 404.5 511.5Q446 507 489 488L474 363Q433 380 394 385.5Q355 391 312 391Q281 391 259 378.5Q237 366 222 346Q207 326 198.5 300.5Q190 275 187 250Q184 224 186 199Q188 174 198 154Q208 134 227 121.5Q246 109 277 109Q320 109 360.5 114.5Q401 120 446 137L431 12Q383 -7 340.5 -11.5Q298 -16 263 -16Q199 -16 156 5.5Q113 27 88.5 63Q64 99 56.5 147.5Q49 196 55 250Z" glyph-name="cacute.smcp" horiz-adv-x="515" /><glyph d="M519 750 373 575H267L163 750H259L333 686L423 750Z" glyph-name="caron" horiz-adv-x="540" unicode="&#711;" /><glyph d="M419 750 346 550H280L321 750Z" glyph-name="caronSlovak" horiz-adv-x="300" /><glyph d="M246 750 320 686 410 750H506L359 575H253L150 750ZM184 250Q181 222 181.5 196.5Q182 171 189.5 151.5Q197 132 213.5 120.5Q230 109 259 109Q301 109 341.5 117Q382 125 427 141L411 15Q367 -5 322 -10.5Q277 -16 244 -16Q180 -16 139 3.5Q98 23 76 58Q54 93 48.5 142Q43 191 50 250Q57 309 74.5 358Q92 407 123 442Q154 477 199.5 496.5Q245 516 309 516Q342 516 386 510.5Q430 505 469 485L454 359Q412 375 374 383Q336 391 294 391Q265 391 245.5 379.5Q226 368 213.5 348.5Q201 329 194 303.5Q187 278 184 250Z" glyph-name="ccaron" horiz-adv-x="490" unicode="&#269;" /><glyph d="M263 750 337 686 427 750H523L376 575H270L167 750ZM55 250Q62 304 81.5 352.5Q101 401 134.5 437Q168 473 216 494.5Q264 516 328 516Q363 516 404.5 511.5Q446 507 489 488L474 363Q433 380 394 385.5Q355 391 312 391Q281 391 259 378.5Q237 366 222 346Q207 326 198.5 300.5Q190 275 187 250Q184 224 186 199Q188 174 198 154Q208 134 227 121.5Q246 109 277 109Q320 109 360.5 114.5Q401 120 446 137L431 12Q383 -7 340.5 -11.5Q298 -16 263 -16Q199 -16 156 5.5Q113 27 88.5 63Q64 99 56.5 147.5Q49 196 55 250Z" glyph-name="ccaron.smcp" horiz-adv-x="515" /><glyph d="M151 -185Q162 -176 172.5 -165Q183 -154 189 -142.5Q195 -131 194.5 -121.5Q194 -112 185 -106Q168 -97 163.5 -84.5Q159 -72 161.5 -59Q164 -46 172 -33.5Q180 -21 188 -11Q141 -3 111 19Q81 41 65.5 75Q50 109 47 153Q44 197 50 250Q57 309 74 358Q91 407 122 442Q153 477 198.5 496.5Q244 516 308 516Q341 516 385.5 510.5Q430 505 469 485L453 359Q412 375 373.5 383Q335 391 293 391Q264 391 244.5 379.5Q225 368 213 348.5Q201 329 194 303.5Q187 278 184 250Q181 222 181.5 196.5Q182 171 189.5 151.5Q197 132 213.5 120.5Q230 109 259 109Q301 109 341.5 117Q382 125 427 141L411 15Q377 0 342 -6.5Q307 -13 277 -15Q266 -29 264 -43.5Q262 -58 282 -71Q305 -85 310 -101Q315 -117 310.5 -133Q306 -149 294.5 -162.5Q283 -176 273 -185Z" glyph-name="ccedilla" horiz-adv-x="490" unicode="&#231;" /><glyph d="M169 -185Q180 -176 190.5 -165Q201 -154 206.5 -142.5Q212 -131 212 -121.5Q212 -112 202 -106Q186 -97 181.5 -84.5Q177 -72 180 -59Q183 -46 190.5 -33.5Q198 -21 206 -11Q158 -2 126.5 22Q95 46 77 81Q59 116 54 159Q49 202 55 250Q62 304 81.5 352.5Q101 401 134.5 437Q168 473 216 494.5Q264 516 328 516Q363 516 404.5 511.5Q446 507 489 488L474 363Q433 380 394 385.5Q355 391 312 391Q281 391 259 378.5Q237 366 222 346Q207 326 198.5 300.5Q190 275 187 250Q184 224 186 199Q188 174 198 154Q208 134 227 121.5Q246 109 277 109Q320 109 360.5 114.5Q401 120 446 137L431 12Q394 -2 359 -8Q324 -14 294 -15Q283 -29 281.5 -43.5Q280 -58 300 -71Q323 -85 328 -101Q333 -117 328.5 -133Q324 -149 312.5 -162.5Q301 -176 291 -185Z" glyph-name="ccedilla.smcp" horiz-adv-x="515" /><glyph d="M388 575 314 639 224 575H128L275 750H381L484 575ZM184 250Q181 222 181.5 196.5Q182 171 189.5 151.5Q197 132 213.5 120.5Q230 109 259 109Q301 109 341.5 117Q382 125 427 141L411 15Q367 -5 322 -10.5Q277 -16 244 -16Q180 -16 139 3.5Q98 23 76 58Q54 93 48.5 142Q43 191 50 250Q57 309 74.5 358Q92 407 123 442Q154 477 199.5 496.5Q245 516 309 516Q342 516 386 510.5Q430 505 469 485L454 359Q412 375 374 383Q336 391 294 391Q265 391 245.5 379.5Q226 368 213.5 348.5Q201 329 194 303.5Q187 278 184 250Z" glyph-name="ccircumflex" horiz-adv-x="490" unicode="&#265;" /><glyph d="M405 575 331 639 241 575H145L292 750H398L501 575ZM55 250Q62 304 81.5 352.5Q101 401 134.5 437Q168 473 216 494.5Q264 516 328 516Q363 516 404.5 511.5Q446 507 489 488L474 363Q433 380 394 385.5Q355 391 312 391Q281 391 259 378.5Q237 366 222 346Q207 326 198.5 300.5Q190 275 187 250Q184 224 186 199Q188 174 198 154Q208 134 227 121.5Q246 109 277 109Q320 109 360.5 114.5Q401 120 446 137L431 12Q383 -7 340.5 -11.5Q298 -16 263 -16Q199 -16 156 5.5Q113 27 88.5 63Q64 99 56.5 147.5Q49 196 55 250Z" glyph-name="ccircumflex.smcp" horiz-adv-x="515" /><glyph d="M235 658Q240 692 266 716Q292 740 326 740Q360 740 381 716Q402 692 398 658Q394 624 367 600.5Q340 577 306 577Q272 577 251.5 600.5Q231 624 235 658ZM184 250Q181 222 181.5 196.5Q182 171 189.5 151.5Q197 132 213.5 120.5Q230 109 259 109Q301 109 341.5 117Q382 125 427 141L411 15Q367 -5 322 -10.5Q277 -16 244 -16Q180 -16 139 3.5Q98 23 76 58Q54 93 48.5 142Q43 191 50 250Q57 309 74.5 358Q92 407 123 442Q154 477 199.5 496.5Q245 516 309 516Q342 516 386 510.5Q430 505 469 485L454 359Q412 375 374 383Q336 391 294 391Q265 391 245.5 379.5Q226 368 213.5 348.5Q201 329 194 303.5Q187 278 184 250Z" glyph-name="cdotaccent" horiz-adv-x="490" unicode="&#267;" /><glyph d="M252 658Q257 692 283 716Q309 740 343 740Q377 740 398 716Q419 692 415 658Q411 624 384 600.5Q357 577 323 577Q289 577 268.5 600.5Q248 624 252 658ZM55 250Q62 304 81.5 352.5Q101 401 134.5 437Q168 473 216 494.5Q264 516 328 516Q363 516 404.5 511.5Q446 507 489 488L474 363Q433 380 394 385.5Q355 391 312 391Q281 391 259 378.5Q237 366 222 346Q207 326 198.5 300.5Q190 275 187 250Q184 224 186 199Q188 174 198 154Q208 134 227 121.5Q246 109 277 109Q320 109 360.5 114.5Q401 120 446 137L431 12Q383 -7 340.5 -11.5Q298 -16 263 -16Q199 -16 156 5.5Q113 27 88.5 63Q64 99 56.5 147.5Q49 196 55 250Z" glyph-name="cdotaccent.smcp" horiz-adv-x="515" /><glyph d="M155 -185Q166 -176 176.5 -165Q187 -154 193 -142.5Q199 -131 198.5 -121.5Q198 -112 189 -106Q170 -95 166.5 -80.5Q163 -66 168.5 -51Q174 -36 184.5 -22.5Q195 -9 203 0H294Q286 -9 279 -18Q272 -27 269.5 -36Q267 -45 270 -54Q273 -63 286 -71Q309 -85 314 -101Q319 -117 314.5 -133Q310 -149 298.5 -162.5Q287 -176 277 -185Z" glyph-name="cedilla" horiz-adv-x="602" unicode="&#184;" /><glyph d="M70 375Q87 509 165.5 577.5Q244 646 373 651L420 750H561L506 641Q555 633 591 618L576 493Q555 501 529.5 507.5Q504 514 477 518Q450 522 423.5 524Q397 526 374 526Q341 526 312 518Q283 510 259.5 492Q236 474 220.5 445.5Q205 417 200 375Q195 333 203.5 304.5Q212 276 231 258Q250 240 277 232Q304 224 337 224Q360 224 387 226Q414 228 442 232Q470 236 497 242.5Q524 249 547 257L532 132Q508 123 479.5 116.5Q451 110 422 106Q393 102 367 100.5Q341 99 323 99H319L273 0H132L191 121Q121 149 89.5 212Q58 275 70 375Z" glyph-name="cent" horiz-adv-x="600" unicode="&#162;" /><glyph d="M189 250Q186 222 186.5 197Q187 172 194.5 153Q202 134 218.5 123Q235 112 264 112Q306 112 346.5 121.5Q387 131 432 147L417 21Q373 1 328 -6Q283 -13 250 -13L204 -110H63L125 16Q74 48 59.5 108.5Q45 169 55 250Q62 306 78.5 352.5Q95 399 123.5 433Q152 467 193.5 487.5Q235 508 292 512L338 610H479L422 499Q445 493 473 480L458 353Q416 369 378 378.5Q340 388 298 388Q269 388 249.5 377Q230 366 218 347Q206 328 199 303Q192 278 189 250Z" glyph-name="cent.OP" horiz-adv-x="495" /><glyph d="M402 575 327 639 238 575H142L288 750H394L498 575Z" glyph-name="circumflex" horiz-adv-x="540" unicode="&#710;" /><glyph d="M44 375Q49 409 75 433Q101 457 135 457Q169 457 190 433Q211 409 207 375Q203 341 176 317.5Q149 294 115 294Q81 294 60.5 317.5Q40 341 44 375ZM6 65Q11 99 37 123Q63 147 97 147Q131 147 152 123Q173 99 169 65Q165 31 138.5 7.5Q112 -16 78 -16Q44 -16 23 7.5Q2 31 6 65Z" glyph-name="colon" horiz-adv-x="220" unicode=":" /><glyph d="M-8 -114 31 0Q1 23 6 65Q11 99 37 123Q63 147 97 147Q131 147 152 123Q173 99 169 65Q168 54 164 44Q160 34 155 26L73 -114Z" glyph-name="comma" horiz-adv-x="220" unicode="," /><glyph d="M147 -250 167 -192Q138 -168 143 -127Q147 -93 173.5 -69Q200 -45 234 -45Q268 -45 289 -69Q310 -93 306 -127Q304 -138 300 -148Q296 -158 291 -166L242 -250Z" glyph-name="commaaccent" horiz-adv-x="540" /><glyph d="M339 197Q359 197 383 201Q407 205 428 210L417 116Q394 111 367.5 107.5Q341 104 322 104Q255 104 224 136Q193 168 203 250Q213 332 252 364Q291 396 358 396Q377 396 402.5 392.5Q428 389 449 384L438 290Q418 295 394.5 299Q371 303 351 303Q327 303 314 291.5Q301 280 297 250Q293 220 304 208.5Q315 197 339 197ZM319 77Q357 77 389.5 83Q422 89 447 107.5Q472 126 489 160Q506 194 513 250Q520 306 511 340Q502 374 481.5 392.5Q461 411 430 417Q399 423 361 423Q323 423 290.5 417Q258 411 233 392.5Q208 374 191 340Q174 306 167 250Q160 194 169 160Q178 126 198.5 107.5Q219 89 250 83Q281 77 319 77ZM308 -16Q254 -16 206 -5Q158 6 124 35Q90 64 74.5 116Q59 168 69 250Q79 332 107.5 384Q136 436 176.5 465Q217 494 267.5 505Q318 516 372 516Q426 516 474 505Q522 494 556 465Q590 436 605.5 384Q621 332 611 250Q601 168 572.5 116Q544 64 503.5 35Q463 6 412.5 -5Q362 -16 308 -16Z" glyph-name="copyright" horiz-adv-x="680" unicode="&#169;" /><glyph d="M506 524 447 395H240Q239 390 239 385Q239 380 238 375Q237 370 236.5 365Q236 360 235 355H429L369 226H235Q240 191 251.5 168.5Q263 146 279.5 132.5Q296 119 317 114Q338 109 363 109Q406 109 451.5 119Q497 129 542 143L527 17Q479 -2 431 -9Q383 -16 348 -16Q291 -16 246 -5Q201 6 168.5 33.5Q136 61 118 108Q100 155 97 226H29L45 355H103Q103 360 103.5 365Q104 370 105 375Q106 380 106 385Q106 390 107 395H50L65 524H133Q153 595 182.5 642Q212 689 251 716.5Q290 744 338 755Q386 766 443 766Q478 766 524.5 759Q571 752 614 733L598 607Q557 621 514 631Q471 641 428 641Q378 641 338 617Q298 593 271 524Z" glyph-name="currency" horiz-adv-x="600" unicode="&#164;" /><glyph d="M387 372Q371 379 347 385Q323 391 296 391Q266 391 246.5 380.5Q227 370 214 351Q201 332 194.5 306Q188 280 184 250Q180 220 180.5 194Q181 168 189.5 149Q198 130 215 119.5Q232 109 262 109Q289 109 314.5 115Q340 121 357 128ZM473 0H380L375 18Q346 2 310 -7Q274 -16 245 -16Q179 -16 137 1.5Q95 19 73 53Q51 87 46.5 136.5Q42 186 50 250Q58 314 74.5 364Q91 414 121 447.5Q151 481 197 498.5Q243 516 309 516Q330 516 356.5 510.5Q383 505 402 497L433 750H564Z" glyph-name="d" horiz-adv-x="568" unicode="d" /><glyph d="M237 125Q304 125 332 159Q360 193 367 250Q370 278 367.5 301.5Q365 325 353.5 341Q342 357 321 366Q300 375 267 375H213L183 125ZM40 0 100 500H281Q346 500 390.5 482.5Q435 465 461 432.5Q487 400 495 353.5Q503 307 496 250Q489 193 469.5 146.5Q450 100 416.5 67.5Q383 35 334.5 17.5Q286 0 221 0Z" glyph-name="d.smcp" horiz-adv-x="551" /><glyph d="M306 624 434 642 415 492 292 510 293 289H123L178 510L49 492L68 642L191 624L189 750H339Z" glyph-name="dagger" horiz-adv-x="406" unicode="&#8224;" /><glyph d="M322 615 461 634 441 473 307 492 309 460 301 430 438 449 418 287 285 307 286 70H104L163 307L24 287L44 449L177 430V460L184 492L47 473L67 634L199 615L197 750H359Z" glyph-name="daggerdbl" horiz-adv-x="434" unicode="&#8225;" /><glyph d="M719 750 646 550H580L621 750ZM387 372Q371 379 347.5 385Q324 391 297 391Q267 391 247 380.5Q227 370 214.5 351Q202 332 195 306Q188 280 184 250Q180 220 180.5 194Q181 168 189.5 149Q198 130 215 119.5Q232 109 262 109Q289 109 314.5 115Q340 121 357 128ZM473 0H380L375 18Q346 2 310 -7Q274 -16 245 -16Q179 -16 137 1.5Q95 19 73 53Q51 87 46.5 136.5Q42 186 50 250Q58 314 74.5 364Q91 414 121.5 447.5Q152 481 198 498.5Q244 516 310 516Q331 516 357.5 510.5Q384 505 403 497L434 750H565Z" glyph-name="dcaron" horiz-adv-x="568" unicode="&#271;" /><glyph d="M496 750 349 575H243L140 750H236L310 686L400 750ZM237 125Q304 125 332 159Q360 193 367 250Q371 278 368.5 301.5Q366 325 354.5 341Q343 357 322 366Q301 375 268 375H214L183 125ZM40 0 101 500H282Q347 500 391.5 482.5Q436 465 461.5 432.5Q487 400 495 353.5Q503 307 496 250Q489 193 469.5 146.5Q450 100 416.5 67.5Q383 35 334.5 17.5Q286 0 221 0Z" glyph-name="dcaron.smcp" horiz-adv-x="551" /><glyph d="M387 372Q371 379 347.5 385Q324 391 297 391Q267 391 247 380.5Q227 370 214.5 351Q202 332 195 306Q188 280 184 250Q180 220 180.5 194Q181 168 189.5 149Q198 130 215 119.5Q232 109 262 109Q289 109 314.5 115Q340 121 357 128ZM555 670H635L621 561H541L473 0H380L375 18Q346 2 310 -7Q274 -16 245 -16Q179 -16 137 1.5Q95 19 73 53Q51 87 46.5 136.5Q42 186 50 250Q58 314 74.5 364Q91 414 121.5 447.5Q152 481 198 498.5Q244 516 310 516Q331 516 357.5 510.5Q384 505 403 497L410 561H307L321 670H424L434 750H565Z" glyph-name="dcroat" horiz-adv-x="568" unicode="&#273;" /><glyph d="M267 125Q334 125 362 159Q390 193 397 250Q401 278 398.5 301.5Q396 325 384.5 341Q373 357 352 366Q331 375 298 375H244L236 312H356L342 196H222L213 125ZM312 500Q377 500 421.5 482.5Q466 465 491.5 432.5Q517 400 525 353.5Q533 307 526 250Q519 193 499.5 146.5Q480 100 446.5 67.5Q413 35 364.5 17.5Q316 0 251 0H70L94 196H4L18 312H108L131 500Z" glyph-name="dcroat.smcp" horiz-adv-x="581" /><glyph d="M234 668Q214 668 202 658.5Q190 649 187 625Q184 601 193.5 591.5Q203 582 223 582Q243 582 255.5 591.5Q268 601 271 625Q274 649 264 658.5Q254 668 234 668ZM211 484Q185 484 160 490.5Q135 497 116.5 513.5Q98 530 89 557Q80 584 85 625Q90 666 106 693.5Q122 721 144.5 737Q167 753 193.5 759.5Q220 766 246 766Q272 766 297 759.5Q322 753 340.5 737Q359 721 368.5 693.5Q378 666 373 625Q368 584 351.5 557Q335 530 312.5 513.5Q290 497 263.5 490.5Q237 484 211 484Z" glyph-name="degree" horiz-adv-x="366" unicode="&#176;" /><glyph d="M360 658Q364 692 390.5 716Q417 740 451 740Q485 740 506 716Q527 692 523 658Q518 624 491.5 600.5Q465 577 431 577Q397 577 376 600.5Q355 624 360 658ZM137 658Q141 692 167.5 716Q194 740 228 740Q262 740 283 716Q304 692 300 658Q295 624 268.5 600.5Q242 577 208 577Q174 577 153 600.5Q132 624 137 658Z" glyph-name="dieresis" horiz-adv-x="540" unicode="&#168;" /><glyph d="M212 517Q216 551 242 574.5Q268 598 302 598Q336 598 357.5 574.5Q379 551 375 517Q370 483 343.5 459Q317 435 283 435Q266 435 252 441.5Q238 448 228.5 459Q219 470 214.5 485Q210 500 212 517ZM169 165Q173 199 199.5 223Q226 247 260 247Q294 247 315 223Q336 199 332 165Q327 131 300.5 107.5Q274 84 240 84Q206 84 185 107.5Q164 131 169 165ZM74 405H484L468 277H58Z" glyph-name="divide" horiz-adv-x="520" unicode="&#247;" /><glyph d="M220 475Q219 466 227.5 460.5Q236 455 251.5 451.5Q267 448 287.5 446.5Q308 445 330 443Q384 438 425.5 429.5Q467 421 494 403.5Q521 386 533 357Q545 328 539 282Q529 204 464.5 154Q400 104 284 99L238 0H97L149 107Q121 110 97 115Q73 120 59 127L74 254Q91 246 117 240.5Q143 235 171.5 231.5Q200 228 228.5 226Q257 224 279 224Q339 224 372 238Q405 252 409 281Q410 290 402 297Q394 304 379.5 308.5Q365 313 345.5 316Q326 319 304 321Q250 326 208.5 333.5Q167 341 139 356.5Q111 372 99 398.5Q87 425 92 468Q102 551 165.5 598.5Q229 646 338 650L385 750H526L473 643Q496 640 518.5 634.5Q541 629 558 621L543 498Q523 506 497 511.5Q471 517 444 520Q417 523 390.5 524.5Q364 526 342 526Q287 526 255 512.5Q223 499 220 475Z" glyph-name="dollar" horiz-adv-x="600" unicode="$" /><glyph d="M196 347Q194 336 206 329Q218 322 260 318Q315 313 349.5 300.5Q384 288 402 268Q420 248 424 220.5Q428 193 424 158Q420 129 407 100.5Q394 72 369.5 48.5Q345 25 308.5 8.5Q272 -8 221 -12Q210 -35 198.5 -61.5Q187 -88 176 -110H35L89 -1Q60 7 32 19L48 148Q81 135 124 123.5Q167 112 209 112Q255 112 273.5 126Q292 140 294 157Q295 164 293 170.5Q291 177 284 182Q277 187 264.5 190.5Q252 194 231 196Q177 201 143 214.5Q109 228 91 247.5Q73 267 68 292.5Q63 318 67 347Q70 375 82.5 403.5Q95 432 118.5 455.5Q142 479 177.5 494.5Q213 510 264 513Q275 536 286.5 562Q298 588 309 610H451L394 499Q405 496 417.5 491Q430 486 441 481L426 354Q385 368 347 378Q309 388 269 388Q227 388 212.5 376Q198 364 196 347Z" glyph-name="dollar.OP" horiz-adv-x="490" /><glyph d="M249 658Q253 692 279.5 716Q306 740 340 740Q374 740 395 716Q416 692 412 658Q407 624 380.5 600.5Q354 577 320 577Q286 577 265 600.5Q244 624 249 658Z" glyph-name="dotaccent" horiz-adv-x="540" unicode="&#729;" /><glyph d="M143 -127Q147 -93 173.5 -69Q200 -45 234 -45Q268 -45 289 -69Q310 -93 306 -127Q301 -161 274.5 -184.5Q248 -208 214 -208Q180 -208 159 -184.5Q138 -161 143 -127Z" glyph-name="dotbelow" horiz-adv-x="540" /><glyph d="M171 -16Q106 -16 76.5 13Q47 42 56 115L102 500H233L189 137Q187 123 194.5 116Q202 109 222 109L207 -16Z" glyph-name="dotlessi" horiz-adv-x="300" unicode="&#305;" /><glyph d="M194 575 91 750H242L300 575ZM361 575 258 750H409L467 575Z" glyph-name="doublegrave" horiz-adv-x="540" /><glyph d="M287 307Q318 307 335.5 316Q353 325 356 349Q359 373 343.5 382Q328 391 297 391Q250 391 228 367Q206 343 195 307ZM181 187Q179 155 196.5 132Q214 109 259 109Q303 109 348.5 118Q394 127 442 147L427 17Q405 7 380.5 0.5Q356 -6 331.5 -9.5Q307 -13 284.5 -14.5Q262 -16 244 -16Q180 -16 139 3.5Q98 23 76 58Q54 93 48.5 142Q43 191 50 250Q57 309 74 358Q91 407 122 442Q153 477 198.5 496.5Q244 516 308 516Q513 516 492 349Q481 264 426 225.5Q371 187 268 187Z" glyph-name="e" horiz-adv-x="530" unicode="e" /><glyph d="M420 193H192L184 125H442L427 0H40L100 500H487L472 375H214L207 318H435Z" glyph-name="e.smcp" horiz-adv-x="512" /><glyph d="M287 307Q318 307 335.5 316Q353 325 356 349Q359 373 343.5 382Q328 391 297 391Q250 391 228 367Q206 343 195 307ZM282 575 383 750H514L348 575ZM181 187Q179 155 196.5 132Q214 109 259 109Q303 109 348.5 118Q394 127 442 147L427 17Q405 7 380.5 0.5Q356 -6 331.5 -9.5Q307 -13 284.5 -14.5Q262 -16 244 -16Q180 -16 139 3.5Q98 23 76 58Q54 93 48.5 142Q43 191 50 250Q57 309 74 358Q91 407 122 442Q153 477 198.5 496.5Q244 516 308 516Q513 516 492 349Q481 264 426 225.5Q371 187 268 187Z" glyph-name="eacute" horiz-adv-x="530" unicode="&#233;" /><glyph d="M260 575 362 750H513L346 575ZM420 193H192L184 125H442L427 0H40L101 500H488L473 375H215L208 318H436Z" glyph-name="eacute.smcp" horiz-adv-x="512" /><glyph d="M304 559Q214 559 182 608Q150 657 160 750H262Q259 723 262.5 707Q266 691 274 682.5Q282 674 293.5 671Q305 668 318 668Q331 668 343 671Q355 674 365 682.5Q375 691 382.5 707Q390 723 394 750H496Q482 657 438 608Q394 559 304 559ZM287 307Q318 307 335.5 316Q353 325 356 349Q359 373 343.5 382Q328 391 297 391Q250 391 228 367Q206 343 195 307ZM181 187Q179 155 196.5 132Q214 109 259 109Q303 109 348.5 118Q394 127 442 147L427 17Q405 7 380.5 0.5Q356 -6 331.5 -9.5Q307 -13 284.5 -14.5Q262 -16 244 -16Q180 -16 139 3.5Q98 23 76 58Q54 93 48.5 142Q43 191 50 250Q57 309 74 358Q91 407 122 442Q153 477 198.5 496.5Q244 516 308 516Q513 516 492 349Q481 264 426 225.5Q371 187 268 187Z" glyph-name="ebreve" horiz-adv-x="530" unicode="&#277;" /><glyph d="M302 559Q212 559 180 608Q148 657 158 750H260Q257 723 260.5 707Q264 691 272 682.5Q280 674 291.5 671Q303 668 316 668Q329 668 341 671Q353 674 363 682.5Q373 691 380.5 707Q388 723 392 750H494Q480 657 436 608Q392 559 302 559ZM420 193H192L184 125H442L427 0H40L101 500H488L473 375H215L208 318H436Z" glyph-name="ebreve.smcp" horiz-adv-x="512" /><glyph d="M246 750 320 686 410 750H506L359 575H253L150 750ZM287 307Q318 307 335.5 316Q353 325 356 349Q359 373 343.5 382Q328 391 297 391Q250 391 228 367Q206 343 195 307ZM181 187Q179 155 196.5 132Q214 109 259 109Q303 109 348.5 118Q394 127 442 147L427 17Q405 7 380.5 0.5Q356 -6 331.5 -9.5Q307 -13 284.5 -14.5Q262 -16 244 -16Q180 -16 139 3.5Q98 23 76 58Q54 93 48.5 142Q43 191 50 250Q57 309 74 358Q91 407 122 442Q153 477 198.5 496.5Q244 516 308 516Q513 516 492 349Q481 264 426 225.5Q371 187 268 187Z" glyph-name="ecaron" horiz-adv-x="530" unicode="&#283;" /><glyph d="M504 750 357 575H251L148 750H244L318 686L408 750ZM420 193H192L184 125H442L427 0H40L101 500H488L473 375H215L208 318H436Z" glyph-name="ecaron.smcp" horiz-adv-x="512" /><glyph d="M287 307Q318 307 335.5 316Q353 325 356 349Q359 373 343.5 382Q328 391 297 391Q250 391 228 367Q206 343 195 307ZM418 575 325 655 214 575H138L284 750H390L494 575ZM181 187Q179 155 196.5 132Q214 109 259 109Q303 109 348.5 118Q394 127 442 147L427 17Q405 7 380.5 0.5Q356 -6 331.5 -9.5Q307 -13 284.5 -14.5Q262 -16 244 -16Q180 -16 139 3.5Q98 23 76 58Q54 93 48.5 142Q43 191 50 250Q57 309 74 358Q91 407 122 442Q153 477 198.5 496.5Q244 516 308 516Q513 516 492 349Q481 264 426 225.5Q371 187 268 187Z" glyph-name="ecircumflex" horiz-adv-x="530" unicode="&#234;" /><glyph d="M386 575 312 639 222 575H126L273 750H379L482 575ZM420 193H192L184 125H442L427 0H40L101 500H488L473 375H215L208 318H436Z" glyph-name="ecircumflex.smcp" horiz-adv-x="512" /><glyph d="M287 307Q318 307 335.5 316Q353 325 356 349Q359 373 343.5 382Q328 391 297 391Q250 391 228 367Q206 343 195 307ZM356 658Q360 692 386.5 716Q413 740 447 740Q481 740 502 716Q523 692 519 658Q514 624 487.5 600.5Q461 577 427 577Q393 577 372 600.5Q351 624 356 658ZM133 658Q137 692 163.5 716Q190 740 224 740Q258 740 279 716Q300 692 296 658Q291 624 264.5 600.5Q238 577 204 577Q170 577 149 600.5Q128 624 133 658ZM181 187Q179 155 196.5 132Q214 109 259 109Q303 109 348.5 118Q394 127 442 147L427 17Q405 7 380.5 0.5Q356 -6 331.5 -9.5Q307 -13 284.5 -14.5Q262 -16 244 -16Q180 -16 139 3.5Q98 23 76 58Q54 93 48.5 142Q43 191 50 250Q57 309 74 358Q91 407 122 442Q153 477 198.5 496.5Q244 516 308 516Q513 516 492 349Q481 264 426 225.5Q371 187 268 187Z" glyph-name="edieresis" horiz-adv-x="530" unicode="&#235;" /><glyph d="M344 658Q349 692 375 716Q401 740 435 740Q469 740 490 716Q511 692 507 658Q503 624 476 600.5Q449 577 415 577Q381 577 360.5 600.5Q340 624 344 658ZM121 658Q126 692 152 716Q178 740 212 740Q246 740 267 716Q288 692 284 658Q280 624 253 600.5Q226 577 192 577Q158 577 137.5 600.5Q117 624 121 658ZM420 193H192L184 125H442L427 0H40L101 500H488L473 375H215L208 318H436Z" glyph-name="edieresis.smcp" horiz-adv-x="512" /><glyph d="M235 658Q240 692 266 716Q292 740 326 740Q360 740 381 716Q402 692 398 658Q394 624 367 600.5Q340 577 306 577Q272 577 251.5 600.5Q231 624 235 658ZM287 307Q318 307 335.5 316Q353 325 356 349Q359 373 343.5 382Q328 391 297 391Q250 391 228 367Q206 343 195 307ZM181 187Q179 155 196.5 132Q214 109 259 109Q303 109 348.5 118Q394 127 442 147L427 17Q405 7 380.5 0.5Q356 -6 331.5 -9.5Q307 -13 284.5 -14.5Q262 -16 244 -16Q180 -16 139 3.5Q98 23 76 58Q54 93 48.5 142Q43 191 50 250Q57 309 74 358Q91 407 122 442Q153 477 198.5 496.5Q244 516 308 516Q513 516 492 349Q481 264 426 225.5Q371 187 268 187Z" glyph-name="edotaccent" horiz-adv-x="530" unicode="&#279;" /><glyph d="M232 658Q237 692 263 716Q289 740 323 740Q357 740 378 716Q399 692 395 658Q391 624 364 600.5Q337 577 303 577Q269 577 248.5 600.5Q228 624 232 658ZM420 193H192L184 125H442L427 0H40L101 500H488L473 375H215L208 318H436Z" glyph-name="edotaccent.smcp" horiz-adv-x="512" /><glyph d="M287 307Q318 307 335.5 316Q353 325 356 349Q359 373 343.5 382Q328 391 297 391Q250 391 228 367Q206 343 195 307ZM282 575 158 750H289L348 575ZM181 187Q179 155 196.5 132Q214 109 259 109Q303 109 348.5 118Q394 127 442 147L427 17Q405 7 380.5 0.5Q356 -6 331.5 -9.5Q307 -13 284.5 -14.5Q262 -16 244 -16Q180 -16 139 3.5Q98 23 76 58Q54 93 48.5 142Q43 191 50 250Q57 309 74 358Q91 407 122 442Q153 477 198.5 496.5Q244 516 308 516Q513 516 492 349Q481 264 426 225.5Q371 187 268 187Z" glyph-name="egrave" horiz-adv-x="530" unicode="&#232;" /><glyph d="M260 575 137 750H288L346 575ZM420 193H192L184 125H442L427 0H40L101 500H488L473 375H215L208 318H436Z" glyph-name="egrave.smcp" horiz-adv-x="512" /><glyph d="M324 449Q351 449 370.5 458.5Q390 468 403.5 482.5Q417 497 424.5 513.5Q432 530 434 545Q436 560 434 577Q432 594 423 608.5Q414 623 396 632Q378 641 348 641Q318 641 297.5 632Q277 623 264.5 608.5Q252 594 246 577Q240 560 238 545Q236 530 239.5 513.5Q243 497 252.5 482.5Q262 468 279.5 458.5Q297 449 324 449ZM309 325Q250 325 216.5 294.5Q183 264 177 216Q175 199 178 180Q181 161 193 145.5Q205 130 226.5 119.5Q248 109 283 109Q318 109 342 119.5Q366 130 381.5 145.5Q397 161 405 180Q413 199 415 216Q421 264 394.5 294.5Q368 325 309 325ZM268 -16Q197 -16 150.5 3.5Q104 23 78 55Q52 87 43.5 129Q35 171 41 216Q44 239 52 265Q60 291 73 316Q86 341 103.5 362Q121 383 144 397Q132 410 123.5 428Q115 446 109.5 466Q104 486 102.5 506.5Q101 527 103 545Q108 587 124.5 626.5Q141 666 172.5 697Q204 728 251 747Q298 766 363 766Q428 766 470.5 747Q513 728 536.5 697Q560 666 567 626.5Q574 587 569 545Q567 527 560 506.5Q553 486 543 466Q533 446 520 428Q507 410 492 397Q511 383 523.5 362Q536 341 543 316Q550 291 552 265Q554 239 551 216Q545 171 527 129Q509 87 475 55Q441 23 390 3.5Q339 -16 268 -16Z" glyph-name="eight" horiz-adv-x="600" unicode="8" /><glyph d="M324 449Q351 449 370.5 458.5Q390 468 403.5 482.5Q417 497 424.5 513.5Q432 530 434 545Q436 560 434 577Q432 594 423 608.5Q414 623 396 632Q378 641 348 641Q318 641 297.5 632Q277 623 264.5 608.5Q252 594 246 577Q240 560 238 545Q236 530 239.5 513.5Q243 497 252.5 482.5Q262 468 279.5 458.5Q297 449 324 449ZM309 325Q250 325 216.5 294.5Q183 264 177 216Q175 199 178 180Q181 161 193 145.5Q205 130 226.5 119.5Q248 109 283 109Q318 109 342 119.5Q366 130 381.5 145.5Q397 161 405 180Q413 199 415 216Q421 264 394.5 294.5Q368 325 309 325ZM268 -16Q197 -16 150.5 3.5Q104 23 78 55Q52 87 43.5 129Q35 171 41 216Q44 239 52 265Q60 291 73 316Q86 341 103.5 362Q121 383 144 397Q132 410 123.5 428Q115 446 109.5 466Q104 486 102.5 506.5Q101 527 103 545Q108 587 124.5 626.5Q141 666 172.5 697Q204 728 251 747Q298 766 363 766Q428 766 470.5 747Q513 728 536.5 697Q560 666 567 626.5Q574 587 569 545Q567 527 560 506.5Q553 486 543 466Q533 446 520 428Q507 410 492 397Q511 383 523.5 362Q536 341 543 316Q550 291 552 265Q554 239 551 216Q545 171 527 129Q509 87 475 55Q441 23 390 3.5Q339 -16 268 -16Z" glyph-name="eight.LP" horiz-adv-x="600" /><glyph d="M324 449Q351 449 370.5 458.5Q390 468 403.5 482.5Q417 497 424.5 513.5Q432 530 434 545Q436 560 434 577Q432 594 423 608.5Q414 623 396 632Q378 641 348 641Q318 641 297.5 632Q277 623 264.5 608.5Q252 594 246 577Q240 560 238 545Q236 530 239.5 513.5Q243 497 252.5 482.5Q262 468 279.5 458.5Q297 449 324 449ZM309 325Q250 325 216.5 294.5Q183 264 177 216Q175 199 178 180Q181 161 193 145.5Q205 130 226.5 119.5Q248 109 283 109Q318 109 342 119.5Q366 130 381.5 145.5Q397 161 405 180Q413 199 415 216Q421 264 394.5 294.5Q368 325 309 325ZM268 -16Q197 -16 150.5 3.5Q104 23 78 55Q52 87 43.5 129Q35 171 41 216Q44 239 52 265Q60 291 73 316Q86 341 103.5 362Q121 383 144 397Q132 410 123.5 428Q115 446 109.5 466Q104 486 102.5 506.5Q101 527 103 545Q108 587 124.5 626.5Q141 666 172.5 697Q204 728 251 747Q298 766 363 766Q428 766 470.5 747Q513 728 536.5 697Q560 666 567 626.5Q574 587 569 545Q567 527 560 506.5Q553 486 543 466Q533 446 520 428Q507 410 492 397Q511 383 523.5 362Q536 341 543 316Q550 291 552 265Q554 239 551 216Q545 171 527 129Q509 87 475 55Q441 23 390 3.5Q339 -16 268 -16Z" glyph-name="eight.OP" horiz-adv-x="600" /><glyph d="M392 68Q396 102 422.5 126Q449 150 483 150Q517 150 538 126Q559 102 555 68Q550 34 523.5 10.5Q497 -13 463 -13Q429 -13 408 10.5Q387 34 392 68ZM722 68Q726 102 752.5 126Q779 150 813 150Q847 150 868 126Q889 102 885 68Q880 34 853.5 10.5Q827 -13 793 -13Q759 -13 738 10.5Q717 34 722 68ZM62 68Q66 102 92.5 126Q119 150 153 150Q187 150 208 126Q229 102 225 68Q220 34 193.5 10.5Q167 -13 133 -13Q99 -13 78 10.5Q57 34 62 68Z" glyph-name="ellipsis" horiz-adv-x="990" unicode="&#8230;" /><glyph d="M443 575H169L185 703H459ZM287 307Q318 307 335.5 316Q353 325 356 349Q359 373 343.5 382Q328 391 297 391Q250 391 228 367Q206 343 195 307ZM181 187Q179 155 196.5 132Q214 109 259 109Q303 109 348.5 118Q394 127 442 147L427 17Q405 7 380.5 0.5Q356 -6 331.5 -9.5Q307 -13 284.5 -14.5Q262 -16 244 -16Q180 -16 139 3.5Q98 23 76 58Q54 93 48.5 142Q43 191 50 250Q57 309 74 358Q91 407 122 442Q153 477 198.5 496.5Q244 516 308 516Q513 516 492 349Q481 264 426 225.5Q371 187 268 187Z" glyph-name="emacron" horiz-adv-x="530" unicode="&#275;" /><glyph d="M441 575H167L183 703H457ZM420 193H192L184 125H442L427 0H40L101 500H488L473 375H215L208 318H436Z" glyph-name="emacron.smcp" horiz-adv-x="512" /><glyph d="M963 277H45L60 405H978Z" glyph-name="emdash" horiz-adv-x="1000" unicode="&#8212;" /><glyph glyph-name="emspace" horiz-adv-x="1000" unicode="&#8195;" /><glyph d="M463 277H45L60 405H478Z" glyph-name="endash" horiz-adv-x="500" unicode="&#8211;" /><glyph d="M212 -144Q231 -144 251.5 -139.5Q272 -135 288.5 -126.5Q305 -118 316 -106Q327 -94 329 -78L379 330Q382 357 368.5 374Q355 391 320 391Q304 391 287.5 388.5Q271 386 256.5 382.5Q242 379 230.5 375Q219 371 213 369L168 0H35L96 500H189L195 484Q207 489 224.5 495Q242 501 261 505.5Q280 510 299 513Q318 516 335 516Q391 516 428 503.5Q465 491 485.5 467.5Q506 444 512 409.5Q518 375 512 330L462 -81Q456 -125 433 -159.5Q410 -194 374.5 -217.5Q339 -241 293.5 -253.5Q248 -266 197 -266Z" glyph-name="eng" horiz-adv-x="562" unicode="&#331;" /><glyph d="M216 -144Q235 -144 256 -139.5Q277 -135 294 -126.5Q311 -118 323 -105.5Q335 -93 337 -77L353 49L200 261L170 0H40L101 500H188L377 239L407 500H537L466 -81Q460 -125 437 -159.5Q414 -194 378.5 -217.5Q343 -241 297.5 -253.5Q252 -266 201 -266Z" glyph-name="eng.smcp" horiz-adv-x="576" /><glyph glyph-name="enspace" horiz-adv-x="500" unicode="&#8194;" /><glyph d="M287 307Q318 307 335.5 316Q353 325 356 349Q359 373 343.5 382Q328 391 297 391Q250 391 228 367Q206 343 195 307ZM427 17Q394 3 356 -5Q317 -15 292.5 -34.5Q268 -54 264 -84Q262 -106 278 -113.5Q294 -121 311 -121Q325 -121 337 -119Q349 -117 358 -115Q369 -112 377 -109L364 -213Q356 -218 332 -225Q308 -232 267 -232Q243 -232 219.5 -225Q196 -218 179 -203.5Q162 -189 153 -166.5Q144 -144 148 -113Q154 -58 194 -13Q145 -6 114 16Q83 38 66.5 72.5Q50 107 47 152Q44 197 50 250Q57 309 74 358Q91 407 122 442Q153 477 198.5 496.5Q244 516 308 516Q513 516 492 349Q481 264 426 225.5Q371 187 268 187H181Q179 155 196.5 132Q214 109 259 109Q303 109 348.5 118Q394 127 442 147Z" glyph-name="eogonek" horiz-adv-x="530" unicode="&#281;" /><glyph d="M420 193H192L184 125H442L427 0H423Q406 0 386 -6.5Q366 -13 349 -24Q332 -35 319.5 -50.5Q307 -66 305 -84Q303 -106 319 -113.5Q335 -121 352 -121Q366 -121 378 -119Q390 -117 399 -115Q410 -112 418 -109L405 -213Q397 -218 373 -225Q349 -232 308 -232Q284 -232 260.5 -225Q237 -218 220 -203.5Q203 -189 194 -166.5Q185 -144 189 -113Q194 -76 209 -48.5Q224 -21 247 0H40L101 500H488L473 375H215L208 318H436Z" glyph-name="eogonek.smcp" horiz-adv-x="512" /><glyph d="M459 200H49L65 329H475ZM478 353H68L83 482H493Z" glyph-name="equal" horiz-adv-x="520" unicode="=" /><glyph d="M363 250Q367 279 367.5 305Q368 331 360.5 350Q353 369 336 380Q319 391 288 391Q256 391 236.5 380Q217 369 205 350Q193 331 187 305Q181 279 177 250Q174 221 173.5 195Q173 169 180 150Q187 131 204 120Q221 109 253 109Q284 109 304 120Q324 131 336 150Q348 169 354 195Q360 221 363 250ZM432 647Q476 577 493.5 477.5Q511 378 495 250Q488 191 473 142.5Q458 94 429 58.5Q400 23 353.5 3.5Q307 -16 238 -16Q169 -16 128 3.5Q87 23 66 58.5Q45 94 41.5 142.5Q38 191 45 250Q52 308 67.5 357Q83 406 112.5 441.5Q142 477 188 496.5Q234 516 303 516Q331 516 354 513Q348 533 338 553Q328 573 316 591L156 514L166 596L271 647Q207 712 124 750H331Q360 731 388 703L486 750L476 668Z" glyph-name="eth" horiz-adv-x="560" unicode="&#240;" /><glyph d="M267 125Q334 125 362 159Q390 193 397 250Q401 278 398.5 301.5Q396 325 384.5 341Q373 357 352 366Q331 375 298 375H244L236 312H356L342 196H222L213 125ZM312 500Q377 500 421.5 482.5Q466 465 491.5 432.5Q517 400 525 353.5Q533 307 526 250Q519 193 499.5 146.5Q480 100 446.5 67.5Q413 35 364.5 17.5Q316 0 251 0H70L94 196H4L18 312H108L131 500Z" glyph-name="eth.smcp" horiz-adv-x="581" /><glyph d="M19 68Q23 102 49.5 126Q76 150 110 150Q144 150 165 126Q186 102 182 68Q177 34 150.5 10.5Q124 -13 90 -13Q56 -13 35 10.5Q14 34 19 68ZM72 210 102 750H264L162 210Z" glyph-name="exclam" horiz-adv-x="245" unicode="!" /><glyph d="M60 432Q65 466 91 489.5Q117 513 151 513Q185 513 206 489.5Q227 466 223 432Q219 398 192 374Q165 350 131 350Q97 350 76.5 374Q56 398 60 432ZM169 290 139 -250H-23L79 290Z" glyph-name="exclamdown" horiz-adv-x="240" unicode="&#161;" /><glyph d="M450 627Q423 635 398.5 638Q374 641 356 641Q330 641 311.5 631.5Q293 622 291 600L278 500H415L401 381H264L187 -250H56L133 381H46L57 472L147 496L160 600Q170 680 220 723Q270 766 371 766Q385 766 412 763Q439 760 465 752Z" glyph-name="f" horiz-adv-x="425" unicode="f" /><glyph d="M412 193H192L169 0H40L100 500H479L464 375H214L207 318H427Z" glyph-name="f.smcp" horiz-adv-x="494" /><glyph d="M596 -16Q531 -16 501.5 13Q472 42 481 115L527 500H658L614 137Q612 123 619.5 116Q627 109 647 109L632 -16ZM450 627Q423 635 398.5 638Q374 641 356 641Q330 641 311.5 631.5Q293 622 291 600L278 500H415L401 381H264L187 -250H56L133 381H46L57 472L147 496L160 600Q170 680 220 723Q270 766 371 766Q385 766 412 763Q439 760 465 752Z" glyph-name="f_dotlessi" horiz-adv-x="725" /><glyph d="M533 658Q537 692 563.5 716Q590 740 624 740Q658 740 679 716Q700 692 696 658Q691 624 664.5 600.5Q638 577 604 577Q570 577 549 600.5Q528 624 533 658ZM596 -16Q531 -16 501.5 13Q472 42 481 115L527 500H658L614 137Q612 123 619.5 116Q627 109 647 109L632 -16ZM450 627Q423 635 398.5 638Q374 641 356 641Q330 641 311.5 631.5Q293 622 291 600L278 500H415L401 381H264L187 -250H56L133 381H46L57 472L147 496L160 600Q170 680 220 723Q270 766 371 766Q385 766 412 763Q439 760 465 752Z" glyph-name="fi" horiz-adv-x="725" unicode="&#64257;" /><glyph d="M563 277H45L60 405H578Z" glyph-name="figuredash" horiz-adv-x="600" unicode="&#8210;" /><glyph glyph-name="figurespace" horiz-adv-x="600" unicode="&#8199;" /><glyph d="M214 -16Q145 -16 99 -6Q53 4 26 18L42 150Q71 133 123.5 123Q176 113 230 113Q259 113 288 116.5Q317 120 341 133Q365 146 382 170.5Q399 195 404 236Q408 273 396.5 292Q385 311 364 319.5Q343 328 315.5 328.5Q288 329 261 329H84L135 750H588L573 624H250L229 457Q242 458 264 458Q286 458 296 458Q347 458 394.5 452.5Q442 447 477 424.5Q512 402 529.5 357.5Q547 313 538 236Q528 151 495 101Q462 51 416.5 25Q371 -1 318 -8.5Q265 -16 214 -16Z" glyph-name="five" horiz-adv-x="600" unicode="5" /><glyph d="M214 -16Q145 -16 99 -6Q53 4 26 18L42 150Q71 133 123.5 123Q176 113 230 113Q259 113 288 116.5Q317 120 341 133Q365 146 382 170.5Q399 195 404 236Q408 273 396.5 292Q385 311 364 319.5Q343 328 315.5 328.5Q288 329 261 329H84L135 750H588L573 624H250L229 457Q242 458 264 458Q286 458 296 458Q347 458 394.5 452.5Q442 447 477 424.5Q512 402 529.5 357.5Q547 313 538 236Q528 151 495 101Q462 51 416.5 25Q371 -1 318 -8.5Q265 -16 214 -16Z" glyph-name="five.LP" horiz-adv-x="600" /><glyph d="M163 -266Q109 -266 68.5 -257.5Q28 -249 -5 -232L12 -96Q38 -111 60 -120Q82 -129 102 -133.5Q122 -138 140.5 -139Q159 -140 179 -140Q201 -140 226 -135Q251 -130 273.5 -116.5Q296 -103 312.5 -78.5Q329 -54 334 -14Q338 22 328.5 41Q319 60 301 68.5Q283 77 259 78Q235 79 210 79H53L104 500H517L502 374H219L199 207Q212 208 224 208Q236 208 246 208Q292 208 336 201Q380 194 412 171Q444 148 460.5 104Q477 60 468 -14Q458 -96 425 -145.5Q392 -195 348 -222Q304 -249 254.5 -257.5Q205 -266 163 -266Z" glyph-name="five.OP" horiz-adv-x="530" /><glyph d="M596 -16Q531 -16 501.5 13Q472 42 481 115L558 750H689L614 137Q612 123 619.5 116Q627 109 647 109L632 -16ZM450 627Q423 635 398.5 638Q374 641 356 641Q330 641 311.5 631.5Q293 622 291 600L278 500H415L401 381H264L187 -250H56L133 381H46L57 472L147 496L160 600Q170 680 220 723Q270 766 371 766Q385 766 412 763Q439 760 465 752Z" glyph-name="fl" horiz-adv-x="725" unicode="&#64258;" /><glyph d="M427 766Q445 766 469 764Q493 762 518.5 758.5Q544 755 568.5 749Q593 743 610 735L595 609Q550 625 501.5 632.5Q453 640 411 640Q373 640 344 620.5Q315 601 309 554L297 454H503L488 335H282L242 0H112L152 335H65L76 426L166 450L179 557Q193 670 254 718Q315 766 427 766Z" glyph-name="florin" horiz-adv-x="600" unicode="&#402;" /><glyph d="M336 516Q354 516 375 514.5Q396 513 418 510Q440 507 461.5 501.5Q483 496 500 488L485 362Q440 378 401.5 384Q363 390 321 390Q295 390 275.5 376.5Q256 363 253 337L249 306H455L440 187H234L181 -250H51L104 187H17L28 278L118 302L123 337Q133 419 184.5 467.5Q236 516 336 516Z" glyph-name="florin.OP" horiz-adv-x="530" /><glyph d="M332 293 357 498 202 293ZM33 248 426 766H520L462 293H572L557 167H447L427 0H297L317 167H23Z" glyph-name="four" horiz-adv-x="600" unicode="4" /><glyph d="M325 313 346 487 220 313ZM55 268 416 766H510L455 313H565L549 187H439L417 0H287L309 187H45Z" glyph-name="four.LP" horiz-adv-x="600" /><glyph d="M295 126 310 249 210 126ZM25 81 378 516H472L425 126H535L520 0H410L379 -250H249L280 0H16Z" glyph-name="four.OP" horiz-adv-x="600" /><glyph glyph-name="fourperemspace" horiz-adv-x="250" unicode="&#8197;" /><glyph d="M-80 0 543 750H698L75 0Z" glyph-name="fraction" horiz-adv-x="587" unicode="&#8260;" /><glyph d="M387 372Q371 379 347 385Q323 391 296 391Q266 391 246.5 380.5Q227 370 214 351Q201 332 194.5 306Q188 280 184 250Q180 220 180.5 194Q181 168 189.5 149Q198 130 215 119.5Q232 109 262 109Q289 109 314.5 115Q340 121 357 128ZM468 -38Q462 -86 449 -127.5Q436 -169 408 -200Q380 -231 334.5 -248.5Q289 -266 219 -266Q153 -266 100.5 -258Q48 -250 19 -233L35 -104Q48 -112 70 -120Q92 -128 118.5 -134Q145 -140 175 -142.5Q205 -145 234 -143Q285 -139 308 -113Q331 -87 336 -45L342 3Q317 -6 291.5 -11Q266 -16 245 -16Q179 -16 137 1.5Q95 19 73 53Q51 87 46.5 136.5Q42 186 50 250Q58 314 74.5 363.5Q91 413 121 447Q151 481 197 498.5Q243 516 309 516Q338 516 372 507Q406 498 431 482L440 500H533Z" glyph-name="g" horiz-adv-x="568" unicode="g" /><glyph d="M277 109Q294 109 310 110.5Q326 112 340 114L348 175H254L269 300H492L458 20Q438 10 413 3.5Q388 -3 362 -7.5Q336 -12 310 -14Q284 -16 262 -16Q198 -16 155 5.5Q112 27 87.5 63Q63 99 55.5 147.5Q48 196 55 250Q62 304 81 352.5Q100 401 133 437Q166 473 214 494.5Q262 516 326 516Q368 516 417.5 509Q467 502 505 482L490 356Q452 374 406 382.5Q360 391 311 391Q280 391 258 378.5Q236 366 221 346Q206 326 198 300.5Q190 275 187 250Q184 224 186 199Q188 174 198 154Q208 134 227 121.5Q246 109 277 109Z" glyph-name="g.smcp" horiz-adv-x="536" /><glyph d="M314 559Q224 559 192 608Q160 657 170 750H272Q269 723 272.5 707Q276 691 284 682.5Q292 674 303.5 671Q315 668 328 668Q341 668 353 671Q365 674 375 682.5Q385 691 392.5 707Q400 723 404 750H506Q492 657 448 608Q404 559 314 559ZM387 372Q371 379 347 385Q323 391 296 391Q266 391 246.5 380.5Q227 370 214 351Q201 332 194.5 306Q188 280 184 250Q180 220 180.5 194Q181 168 189.5 149Q198 130 215 119.5Q232 109 262 109Q289 109 314.5 115Q340 121 357 128ZM468 -38Q462 -86 449 -127.5Q436 -169 408 -200Q380 -231 334.5 -248.5Q289 -266 219 -266Q153 -266 100.5 -258Q48 -250 19 -233L35 -104Q48 -112 70 -120Q92 -128 118.5 -134Q145 -140 175 -142.5Q205 -145 234 -143Q285 -139 308 -113Q331 -87 336 -45L342 3Q317 -6 291.5 -11Q266 -16 245 -16Q179 -16 137 1.5Q95 19 73 53Q51 87 46.5 136.5Q42 186 50 250Q58 314 74.5 363.5Q91 413 121 447Q151 481 197 498.5Q243 516 309 516Q338 516 372 507Q406 498 431 482L440 500H533Z" glyph-name="gbreve" horiz-adv-x="568" unicode="&#287;" /><glyph d="M326 559Q236 559 204 608Q172 657 182 750H284Q281 723 284.5 707Q288 691 296 682.5Q304 674 315.5 671Q327 668 340 668Q353 668 365 671Q377 674 387 682.5Q397 691 404.5 707Q412 723 416 750H518Q504 657 460 608Q416 559 326 559ZM277 109Q294 109 310 110.5Q326 112 340 114L348 175H254L269 300H492L458 20Q438 10 413 3.5Q388 -3 362 -7.5Q336 -12 310 -14Q284 -16 262 -16Q198 -16 155 5.5Q112 27 88 63Q64 99 56.5 147.5Q49 196 55 250Q62 304 81 352.5Q100 401 133.5 437Q167 473 215 494.5Q263 516 327 516Q369 516 418.5 509Q468 502 506 482L490 356Q452 374 406.5 382.5Q361 391 312 391Q281 391 259 378.5Q237 366 222 346Q207 326 198.5 300.5Q190 275 187 250Q184 224 186 199Q188 174 198 154Q208 134 227 121.5Q246 109 277 109Z" glyph-name="gbreve.smcp" horiz-adv-x="536" /><glyph d="M419 575 326 655 215 575H139L285 750H391L495 575ZM387 372Q371 379 347 385Q323 391 296 391Q266 391 246.5 380.5Q227 370 214 351Q201 332 194.5 306Q188 280 184 250Q180 220 180.5 194Q181 168 189.5 149Q198 130 215 119.5Q232 109 262 109Q289 109 314.5 115Q340 121 357 128ZM468 -38Q462 -86 449 -127.5Q436 -169 408 -200Q380 -231 334.5 -248.5Q289 -266 219 -266Q153 -266 100.5 -258Q48 -250 19 -233L35 -104Q48 -112 70 -120Q92 -128 118.5 -134Q145 -140 175 -142.5Q205 -145 234 -143Q285 -139 308 -113Q331 -87 336 -45L342 3Q317 -6 291.5 -11Q266 -16 245 -16Q179 -16 137 1.5Q95 19 73 53Q51 87 46.5 136.5Q42 186 50 250Q58 314 74.5 363.5Q91 413 121 447Q151 481 197 498.5Q243 516 309 516Q338 516 372 507Q406 498 431 482L440 500H533Z" glyph-name="gcircumflex" horiz-adv-x="568" unicode="&#285;" /><glyph d="M410 575 336 639 246 575H150L297 750H403L506 575ZM277 109Q294 109 310 110.5Q326 112 340 114L348 175H254L269 300H492L458 20Q438 10 413 3.5Q388 -3 362 -7.5Q336 -12 310 -14Q284 -16 262 -16Q198 -16 155 5.5Q112 27 88 63Q64 99 56.5 147.5Q49 196 55 250Q62 304 81 352.5Q100 401 133.5 437Q167 473 215 494.5Q263 516 327 516Q369 516 418.5 509Q468 502 506 482L490 356Q452 374 406.5 382.5Q361 391 312 391Q281 391 259 378.5Q237 366 222 346Q207 326 198.5 300.5Q190 275 187 250Q184 224 186 199Q188 174 198 154Q208 134 227 121.5Q246 109 277 109Z" glyph-name="gcircumflex.smcp" horiz-adv-x="536" /><glyph d="M400 750 379 692Q409 668 403 627Q399 593 372.5 569Q346 545 312 545Q278 545 257 569Q236 593 240 627Q242 638 246 648Q250 658 255 666L305 750ZM387 372Q371 379 347 385Q323 391 296 391Q266 391 246.5 380.5Q227 370 214 351Q201 332 194.5 306Q188 280 184 250Q180 220 180.5 194Q181 168 189.5 149Q198 130 215 119.5Q232 109 262 109Q289 109 314.5 115Q340 121 357 128ZM468 -38Q462 -86 449 -127.5Q436 -169 408 -200Q380 -231 334.5 -248.5Q289 -266 219 -266Q153 -266 100.5 -258Q48 -250 19 -233L35 -104Q48 -112 70 -120Q92 -128 118.5 -134Q145 -140 175 -142.5Q205 -145 234 -143Q285 -139 308 -113Q331 -87 336 -45L342 3Q317 -6 291.5 -11Q266 -16 245 -16Q179 -16 137 1.5Q95 19 73 53Q51 87 46.5 136.5Q42 186 50 250Q58 314 74.5 363.5Q91 413 121 447Q151 481 197 498.5Q243 516 309 516Q338 516 372 507Q406 498 431 482L440 500H533Z" glyph-name="gcommaaccent" horiz-adv-x="568" unicode="&#291;" /><glyph d="M165 -250 185 -192Q156 -168 161 -127Q165 -93 191.5 -69Q218 -45 252 -45Q286 -45 307 -69Q328 -93 324 -127Q322 -138 318 -148Q314 -158 309 -166L260 -250ZM277 109Q294 109 310 110.5Q326 112 340 114L348 175H254L269 300H492L458 20Q438 10 413 3.5Q388 -3 362 -7.5Q336 -12 310 -14Q284 -16 262 -16Q198 -16 155 5.5Q112 27 88 63Q64 99 56.5 147.5Q49 196 55 250Q62 304 81 352.5Q100 401 133.5 437Q167 473 215 494.5Q263 516 327 516Q369 516 418.5 509Q468 502 506 482L490 356Q452 374 406.5 382.5Q361 391 312 391Q281 391 259 378.5Q237 366 222 346Q207 326 198.5 300.5Q190 275 187 250Q184 224 186 199Q188 174 198 154Q208 134 227 121.5Q246 109 277 109Z" glyph-name="gcommaaccent.smcp" horiz-adv-x="536" /><glyph d="M245 658Q250 692 276 716Q302 740 336 740Q370 740 391 716Q412 692 408 658Q404 624 377 600.5Q350 577 316 577Q282 577 261.5 600.5Q241 624 245 658ZM387 372Q371 379 347 385Q323 391 296 391Q266 391 246.5 380.5Q227 370 214 351Q201 332 194.5 306Q188 280 184 250Q180 220 180.5 194Q181 168 189.5 149Q198 130 215 119.5Q232 109 262 109Q289 109 314.5 115Q340 121 357 128ZM468 -38Q462 -86 449 -127.5Q436 -169 408 -200Q380 -231 334.5 -248.5Q289 -266 219 -266Q153 -266 100.5 -258Q48 -250 19 -233L35 -104Q48 -112 70 -120Q92 -128 118.5 -134Q145 -140 175 -142.5Q205 -145 234 -143Q285 -139 308 -113Q331 -87 336 -45L342 3Q317 -6 291.5 -11Q266 -16 245 -16Q179 -16 137 1.5Q95 19 73 53Q51 87 46.5 136.5Q42 186 50 250Q58 314 74.5 363.5Q91 413 121 447Q151 481 197 498.5Q243 516 309 516Q338 516 372 507Q406 498 431 482L440 500H533Z" glyph-name="gdotaccent" horiz-adv-x="568" unicode="&#289;" /><glyph d="M257 658Q262 692 288 716Q314 740 348 740Q382 740 403 716Q424 692 420 658Q416 624 389 600.5Q362 577 328 577Q294 577 273.5 600.5Q253 624 257 658ZM277 109Q294 109 310 110.5Q326 112 340 114L348 175H254L269 300H492L458 20Q438 10 413 3.5Q388 -3 362 -7.5Q336 -12 310 -14Q284 -16 262 -16Q198 -16 155 5.5Q112 27 88 63Q64 99 56.5 147.5Q49 196 55 250Q62 304 81 352.5Q100 401 133.5 437Q167 473 215 494.5Q263 516 327 516Q369 516 418.5 509Q468 502 506 482L490 356Q452 374 406.5 382.5Q361 391 312 391Q281 391 259 378.5Q237 366 222 346Q207 326 198.5 300.5Q190 275 187 250Q184 224 186 199Q188 174 198 154Q208 134 227 121.5Q246 109 277 109Z" glyph-name="gdotaccent.smcp" horiz-adv-x="536" /><glyph d="M368 637Q338 637 315.5 630.5Q293 624 277.5 614.5Q262 605 253.5 593Q245 581 244 570L144 -250H14L114 569Q118 607 135 642Q152 677 184 704Q216 731 265 747Q314 763 383 763Q452 763 497.5 747Q543 731 569 704Q595 677 603.5 642Q612 607 607 569Q602 534 591.5 507Q581 480 562.5 459Q544 438 516 423Q488 408 448 398Q421 391 409 381.5Q397 372 395 358Q393 347 405.5 340Q418 333 458 329Q513 322 547.5 308.5Q582 295 600 274.5Q618 254 622 226.5Q626 199 622 164Q618 132 604 101Q590 70 562 45.5Q534 21 492 5.5Q450 -10 391 -10Q374 -10 352.5 -7Q331 -4 309 0.5Q287 5 266.5 11Q246 17 231 24L247 151Q281 138 323.5 127Q366 116 408 116Q454 116 471.5 131Q489 146 491 163Q492 171 490.5 178.5Q489 186 483 191.5Q477 197 464.5 201Q452 205 432 207Q379 213 345 226.5Q311 240 292.5 259.5Q274 279 268.5 304Q263 329 266 358Q270 389 280 413.5Q290 438 309.5 457Q329 476 358.5 490.5Q388 505 431 516Q455 523 464.5 539Q474 555 476 570Q477 581 472 593Q467 605 454 614.5Q441 624 419.5 630.5Q398 637 368 637Z" glyph-name="germandbls" horiz-adv-x="664" unicode="&#223;" /><glyph d="M700 350Q698 333 717 327.5Q736 322 781 318Q835 313 871.5 302Q908 291 929 272Q950 253 957 225Q964 197 959 157Q954 122 939 90.5Q924 59 894.5 35.5Q865 12 821 -2Q777 -16 714 -16Q696 -16 672 -14.5Q648 -13 624 -9.5Q600 -6 577.5 -0.5Q555 5 540 12L556 139Q572 131 593.5 125.5Q615 120 638 116.5Q661 113 684.5 111Q708 109 730 109Q782 109 804 121.5Q826 134 829 156Q831 173 814.5 182Q798 191 754 196Q700 201 663 210.5Q626 220 604.5 237Q583 254 575 280Q567 306 572 343Q576 380 591.5 412Q607 444 635.5 467Q664 490 706 503Q748 516 807 516Q843 516 889 511Q935 506 977 486L962 363Q921 380 878 385.5Q835 391 791 391Q743 391 722.5 379.5Q702 368 700 350ZM190 350Q188 333 207 327.5Q226 322 271 318Q325 313 361.5 302Q398 291 419 272Q440 253 447 225Q454 197 449 157Q444 122 429 90.5Q414 59 384.5 35.5Q355 12 311 -2Q267 -16 204 -16Q186 -16 162 -14.5Q138 -13 114 -9.5Q90 -6 67.5 -0.5Q45 5 30 12L46 139Q62 131 83.5 125.5Q105 120 128 116.5Q151 113 174.5 111Q198 109 220 109Q272 109 294 121.5Q316 134 319 156Q321 173 304.5 182Q288 191 244 196Q190 201 153 210.5Q116 220 94.5 237Q73 254 65 280Q57 306 62 343Q66 380 81.5 412Q97 444 125.5 467Q154 490 196 503Q238 516 297 516Q333 516 379 511Q425 506 467 486L452 363Q411 380 368 385.5Q325 391 281 391Q233 391 212.5 379.5Q192 368 190 350Z" glyph-name="germandbls.smcp" horiz-adv-x="1020" /><glyph d="M119 750H270L329 575H243Z" glyph-name="grave" horiz-adv-x="540" unicode="`" /><glyph d="M40 241 184 341Q180 345 175.5 348.5Q171 352 167 356Q144 376 115.5 399.5Q87 423 64 441L81 582L346 389L334 293L23 100Z" glyph-name="greater" horiz-adv-x="365" unicode="&gt;" /><glyph d="M83 439H581L560 451L346 601L366 766L829 406L821 344L271 -16L291 149L542 299L565 311H67Z" glyph-name="greaterequal" horiz-adv-x="860" unicode="&#8805;" /><glyph d="M251 296 459 446 445 329 356 250 425 171 411 53 239 204ZM61 296 269 446 255 329 166 250 235 171 221 53 49 204Z" glyph-name="guillemotleft" horiz-adv-x="495" unicode="&#171;" /><glyph d="M244 204 36 53 50 171 138 250 70 329 84 446 256 296ZM434 204 226 53 240 171 328 250 260 329 274 446 446 296Z" glyph-name="guillemotright" horiz-adv-x="495" unicode="&#187;" /><glyph d="M61 296 269 446 255 329 166 250 235 171 221 53 49 204Z" glyph-name="guilsinglleft" horiz-adv-x="305" unicode="&#8249;" /><glyph d="M244 204 36 53 50 171 138 250 70 329 84 446 256 296Z" glyph-name="guilsinglright" horiz-adv-x="305" unicode="&#8250;" /><glyph d="M378 330Q381 357 367 374Q353 391 318 391Q302 391 285.5 388.5Q269 386 254.5 382.5Q240 379 228.5 375Q217 371 211 369L167 0H35L126 750H258L227 495Q252 504 280.5 510Q309 516 333 516Q389 516 426 503.5Q463 491 483.5 467.5Q504 444 510 409.5Q516 375 511 330L471 0H338Z" glyph-name="h" horiz-adv-x="561" unicode="h" /><glyph d="M346 0 369 193H193L170 0H40L100 500H230L208 318H384L406 500H536L476 0Z" glyph-name="h.smcp" horiz-adv-x="576" /><glyph glyph-name="hairspace" horiz-adv-x="50" unicode="&#8202;" /><glyph d="M378 330Q381 357 367.5 374Q354 391 319 391Q303 391 286.5 388.5Q270 386 255.5 382.5Q241 379 229.5 375Q218 371 212 369L167 0H35L103 561H24L38 670H117L127 750H259L249 670H352L338 561H235L227 495Q253 504 281.5 510Q310 516 334 516Q390 516 427 503.5Q464 491 484.5 467.5Q505 444 511 409.5Q517 375 511 330L471 0H338Z" glyph-name="hbar" horiz-adv-x="561" unicode="&#295;" /><glyph d="M377 258 385 322H209L201 258ZM346 0 366 163H190L170 0H40L101 500H231L221 417H397L407 500H537L476 0Z" glyph-name="hbar.smcp" horiz-adv-x="576" /><glyph d="M284 825 210 889 120 825H24L170 1000H276L380 825ZM378 330Q381 357 367.5 374Q354 391 319 391Q303 391 286.5 388.5Q270 386 255.5 382.5Q241 379 229.5 375Q218 371 212 369L167 0H35L127 750H259L227 495Q253 504 281.5 510Q310 516 334 516Q390 516 427 503.5Q464 491 484.5 467.5Q505 444 511 409.5Q517 375 511 330L471 0H338Z" glyph-name="hcircumflex" horiz-adv-x="561" unicode="&#293;" /><glyph d="M410 575 336 639 246 575H150L297 750H403L506 575ZM346 0 369 193H193L170 0H40L101 500H231L209 318H385L407 500H537L476 0Z" glyph-name="hcircumflex.smcp" horiz-adv-x="576" /><glyph d="M350 575 451 750H602L436 575ZM183 575 284 750H435L269 575Z" glyph-name="hungarumlaut" horiz-adv-x="540" unicode="&#733;" /><glyph d="M333 277H45L60 405H348Z" glyph-name="hyphen" horiz-adv-x="370" unicode="-" /><glyph d="M108 658Q112 692 138.5 716Q165 740 199 740Q233 740 254 716Q275 692 271 658Q266 624 239.5 600.5Q213 577 179 577Q145 577 124 600.5Q103 624 108 658ZM171 -16Q106 -16 76.5 13Q47 42 56 115L102 500H233L189 137Q187 123 194.5 116Q202 109 222 109L207 -16Z" glyph-name="i" horiz-adv-x="300" unicode="i" /><glyph d="M50 0 110 500H238L178 0Z" glyph-name="i.smcp" horiz-adv-x="288" /><glyph d="M135 575 236 750H387L221 575ZM171 -16Q106 -16 76.5 13Q47 42 56 115L102 500H233L189 137Q187 123 194.5 116Q202 109 222 109L207 -16Z" glyph-name="iacute" horiz-adv-x="300" unicode="&#237;" /><glyph d="M142 575 244 750H395L228 575ZM50 0 111 500H239L178 0Z" glyph-name="iacute.smcp" horiz-adv-x="288" /><glyph d="M188 559Q98 559 66 608Q34 657 44 750H146Q143 723 146.5 707Q150 691 158 682.5Q166 674 177.5 671Q189 668 202 668Q215 668 227 671Q239 674 249 682.5Q259 691 266.5 707Q274 723 278 750H380Q366 657 322 608Q278 559 188 559ZM171 -16Q106 -16 76.5 13Q47 42 56 115L103 500H234L189 137Q187 123 194.5 116Q202 109 222 109L207 -16Z" glyph-name="ibreve" horiz-adv-x="300" /><glyph d="M182 559Q92 559 60 608Q28 657 38 750H140Q137 723 140.5 707Q144 691 152 682.5Q160 674 171.5 671Q183 668 196 668Q209 668 221 671Q233 674 243 682.5Q253 691 260.5 707Q268 723 272 750H374Q360 657 316 608Q272 559 182 559ZM50 0 111 500H239L178 0Z" glyph-name="ibreve.smcp" horiz-adv-x="288" /><glyph d="M261 575 186 639 97 575H1L147 750H253L357 575ZM171 -16Q106 -16 76.5 13Q47 42 56 115L102 500H233L189 137Q187 123 194.5 116Q202 109 222 109L207 -16Z" glyph-name="icircumflex" horiz-adv-x="300" unicode="&#238;" /><glyph d="M266 575 192 639 102 575H6L153 750H259L362 575ZM50 0 111 500H239L178 0Z" glyph-name="icircumflex.smcp" horiz-adv-x="288" /><glyph d="M219 658Q223 692 249.5 716Q276 740 310 740Q344 740 365 716Q386 692 382 658Q377 624 350.5 600.5Q324 577 290 577Q256 577 235 600.5Q214 624 219 658ZM-4 658Q0 692 26.5 716Q53 740 87 740Q121 740 142 716Q163 692 159 658Q154 624 127.5 600.5Q101 577 67 577Q33 577 12 600.5Q-9 624 -4 658ZM171 -16Q106 -16 76.5 13Q47 42 56 115L102 500H233L189 137Q187 123 194.5 116Q202 109 222 109L207 -16Z" glyph-name="idieresis" horiz-adv-x="300" unicode="&#239;" /><glyph d="M224 658Q229 692 255 716Q281 740 315 740Q349 740 370 716Q391 692 387 658Q383 624 356 600.5Q329 577 295 577Q261 577 240.5 600.5Q220 624 224 658ZM1 658Q6 692 32 716Q58 740 92 740Q126 740 147 716Q168 692 164 658Q160 624 133 600.5Q106 577 72 577Q38 577 17.5 600.5Q-3 624 1 658ZM50 0 111 500H239L178 0Z" glyph-name="idieresis.smcp" horiz-adv-x="288" /><glyph d="M108 658Q113 692 139 716Q165 740 199 740Q233 740 254 716Q275 692 271 658Q267 624 240 600.5Q213 577 179 577Q145 577 124.5 600.5Q104 624 108 658ZM171 -16Q106 -16 76.5 13Q47 42 56 115L103 500H234L189 137Q187 123 194.5 116Q202 109 222 109L207 -16Z" glyph-name="idotaccent" horiz-adv-x="300" /><glyph d="M113 658Q118 692 144 716Q170 740 204 740Q238 740 259 716Q280 692 276 658Q272 624 245 600.5Q218 577 184 577Q150 577 129.5 600.5Q109 624 113 658ZM50 0 111 500H239L178 0Z" glyph-name="idotaccent.smcp" horiz-adv-x="288" /><glyph d="M135 575 11 750H162L221 575ZM171 -16Q106 -16 76.5 13Q47 42 56 115L102 500H233L189 137Q187 123 194.5 116Q202 109 222 109L207 -16Z" glyph-name="igrave" horiz-adv-x="300" unicode="&#236;" /><glyph d="M142 575 19 750H170L228 575ZM50 0 111 500H239L178 0Z" glyph-name="igrave.smcp" horiz-adv-x="288" /><glyph d="M408 658Q412 692 438.5 716Q465 740 499 740Q533 740 554 716Q575 692 571 658Q566 624 539.5 600.5Q513 577 479 577Q445 577 424 600.5Q403 624 408 658ZM215 -144Q234 -144 254.5 -139.5Q275 -135 291.5 -126.5Q308 -118 319 -106Q330 -94 332 -78L402 500H534L464 -81Q458 -125 435 -159.5Q412 -194 377 -217.5Q342 -241 296.5 -253.5Q251 -266 200 -266ZM108 658Q112 692 138.5 716Q165 740 199 740Q233 740 254 716Q275 692 271 658Q266 624 239.5 600.5Q213 577 179 577Q145 577 124 600.5Q103 624 108 658ZM171 -16Q106 -16 76.5 13Q47 42 56 115L102 500H233L189 137Q187 123 194.5 116Q202 109 222 109L207 -16Z" glyph-name="ij" horiz-adv-x="579" unicode="&#307;" /><glyph d="M302 120Q322 113 349.5 110Q377 107 397 107Q423 107 440 115Q457 123 459 145L502 500H631L589 150Q579 70 530.5 27Q482 -16 382 -16Q368 -16 341.5 -14Q315 -12 287 -4ZM50 0 110 500H238L178 0Z" glyph-name="ij.smcp" horiz-adv-x="681" /><glyph d="M327 575H53L69 703H343ZM171 -16Q106 -16 76.5 13Q47 42 56 115L103 500H234L189 137Q187 123 194.5 116Q202 109 222 109L207 -16Z" glyph-name="imacron" horiz-adv-x="300" unicode="&#299;" /><glyph d="M321 575H47L63 703H337ZM50 0 111 500H239L178 0Z" glyph-name="imacron.smcp" horiz-adv-x="288" /><glyph d="M145 674Q144 663 188 658Q218 655 235.5 649Q253 643 262 634Q271 625 273 611.5Q275 598 273 579Q268 544 240.5 519Q213 494 150 494Q141 494 129.5 495Q118 496 105.5 498.5Q93 501 81.5 504Q70 507 63 511L70 574Q90 567 114 562Q138 557 158 557Q184 557 194 562.5Q204 568 206 578Q207 586 198.5 590.5Q190 595 169 597Q112 602 93 618.5Q74 635 79 673Q83 710 110.5 733Q138 756 197 756Q214 756 236 753Q258 750 281 739L273 676Q251 683 229.5 688Q208 693 188 693Q164 693 155 688Q146 683 145 674ZM433 520 384 648 368 500H300L331 750H410L464 614L552 750H631L600 500H532L552 648L473 520Z" glyph-name="infinity" horiz-adv-x="615" unicode="&#8734;" /><glyph d="M262 617 203 133H679L738 617ZM141 750H891L800 0H50Z" glyph-name="integral" horiz-adv-x="910" unicode="&#8747;" /><glyph d="M334 766Q424 766 455.5 717Q487 668 478 575H376Q379 602 375.5 618Q372 634 364 642.5Q356 651 344.5 654Q333 657 320 657Q307 657 295 654Q283 651 273 642.5Q263 634 255.5 618Q248 602 244 575H142Q155 668 199.5 717Q244 766 334 766Z" glyph-name="invertedbreve" horiz-adv-x="540" /><glyph d="M108 658Q113 692 139 716Q165 740 199 740Q233 740 254 716Q275 692 271 658Q267 624 240 600.5Q213 577 179 577Q145 577 124.5 600.5Q104 624 108 658ZM-7 -113Q-2 -75 19 -42.5Q40 -10 74 15Q47 46 56 115L103 500H234L189 137Q187 123 194.5 116Q202 109 222 109L207 -16Q170 -21 141.5 -38Q113 -55 109 -84Q107 -106 123 -113.5Q139 -121 156 -121Q170 -121 182 -119Q194 -117 203 -115Q214 -112 222 -109L209 -213Q201 -218 177 -225Q153 -232 112 -232Q88 -232 64.5 -225Q41 -218 24 -203.5Q7 -189 -2 -166.5Q-11 -144 -7 -113Z" glyph-name="iogonek" horiz-adv-x="300" unicode="&#303;" /><glyph d="M176 0Q165 0 150.5 -6.5Q136 -13 122.5 -24Q109 -35 98.5 -50.5Q88 -66 86 -84Q84 -106 100 -113.5Q116 -121 133 -121Q147 -121 159 -119Q171 -117 180 -115Q191 -112 199 -109L186 -213Q178 -218 154 -225Q130 -232 89 -232Q65 -232 42 -225Q19 -218 1.5 -203.5Q-16 -189 -25 -166.5Q-34 -144 -30 -113Q-25 -71 -2.5 -34.5Q20 2 53 27L111 500H239L178 0Z" glyph-name="iogonek.smcp" horiz-adv-x="288" /><glyph d="M419 734Q402 645 365 605.5Q328 566 258 568Q228 569 210 580.5Q192 592 180 605Q168 618 158 628.5Q148 639 133 639Q110 639 100 621.5Q90 604 85 579L-16 592Q1 681 38 720.5Q75 760 145 758Q175 757 192.5 745.5Q210 734 222 721Q234 708 244.5 697.5Q255 687 270 687Q293 687 303 704.5Q313 722 318 747ZM171 -16Q106 -16 76.5 13Q47 42 56 115L103 500H234L189 137Q187 123 194.5 116Q202 109 222 109L207 -16Z" glyph-name="itilde" horiz-adv-x="300" unicode="&#297;" /><glyph d="M413 734Q396 645 359 605.5Q322 566 252 568Q222 569 204 580.5Q186 592 174 605Q162 618 152 628.5Q142 639 127 639Q104 639 94 621.5Q84 604 79 579L-22 592Q-5 681 32 720.5Q69 760 139 758Q169 757 186.5 745.5Q204 734 216 721Q228 708 238.5 697.5Q249 687 264 687Q287 687 297 704.5Q307 722 312 747ZM50 0 111 500H239L178 0Z" glyph-name="itilde.smcp" horiz-adv-x="288" /><glyph d="M108 658Q112 692 138.5 716Q165 740 199 740Q233 740 254 716Q275 692 271 658Q266 624 239.5 600.5Q213 577 179 577Q145 577 124 600.5Q103 624 108 658ZM-85 -144Q-66 -144 -45.5 -139.5Q-25 -135 -8.5 -126.5Q8 -118 19 -106Q30 -94 32 -78L102 500H234L164 -81Q158 -125 135 -159.5Q112 -194 77 -217.5Q42 -241 -3.5 -253.5Q-49 -266 -100 -266Z" glyph-name="j" horiz-adv-x="279" unicode="j" /><glyph d="M14 120Q34 113 61.5 110Q89 107 109 107Q135 107 152 115Q169 123 171 145L214 500H343L301 150Q291 70 242.5 27Q194 -16 94 -16Q80 -16 53.5 -14Q27 -12 -1 -4Z" glyph-name="j.smcp" horiz-adv-x="393" /><glyph d="M261 575 187 639 97 575H1L148 750H254L357 575ZM-85 -144Q-66 -144 -45.5 -139.5Q-25 -135 -8.5 -126.5Q8 -118 19 -106Q30 -94 32 -78L103 500H235L164 -81Q158 -125 135 -159.5Q112 -194 77 -217.5Q42 -241 -3.5 -253.5Q-49 -266 -100 -266Z" glyph-name="jcircumflex" horiz-adv-x="279" unicode="&#309;" /><glyph d="M370 575 296 639 206 575H110L257 750H363L466 575ZM14 120Q34 113 61.5 110Q89 107 109 107Q135 107 152 115Q169 123 171 145L215 500H344L301 150Q291 70 242.5 27Q194 -16 94 -16Q80 -16 53.5 -14Q27 -12 -1 -4Z" glyph-name="jcircumflex.smcp" horiz-adv-x="393" /><glyph d="M555 502 303 287 505 0H327L203 199L188 186L166 0H35L126 750H257L209 356L363 502Z" glyph-name="k" horiz-adv-x="545" unicode="k" /><glyph d="M560 502 308 287 510 0H332L208 199L193 186L171 0H40L100 500H231L214 356L368 502Z" glyph-name="k.smcp" horiz-adv-x="555" /><glyph d="M150 -250 170 -192Q141 -168 146 -127Q150 -93 176.5 -69Q203 -45 237 -45Q271 -45 292 -69Q313 -93 309 -127Q307 -138 303 -148Q299 -158 294 -166L245 -250ZM555 500 304 287 505 0H327L203 199L188 186L166 0H35L127 750H258L209 356L363 500Z" glyph-name="kcommaaccent" horiz-adv-x="545" unicode="&#311;" /><glyph d="M154 -250 174 -192Q145 -168 150 -127Q154 -93 180.5 -69Q207 -45 241 -45Q275 -45 296 -69Q317 -93 313 -127Q311 -138 307 -148Q303 -158 298 -166L249 -250ZM560 502 309 287 510 0H332L208 199L193 186L171 0H40L101 500H232L214 356L368 502Z" glyph-name="kcommaaccent.smcp" horiz-adv-x="555" /><glyph d="M555 500 304 287 505 0H327L203 199L188 186L166 0H35L96 500H227L209 356L363 500Z" glyph-name="kgreenlandic" horiz-adv-x="545" unicode="&#312;" /><glyph d="M171 -16Q106 -16 76.5 13Q47 42 56 115L133 750H264L189 137Q187 123 194.5 116Q202 109 222 109L207 -16Z" glyph-name="l" horiz-adv-x="300" unicode="l" /><glyph d="M184 125H442L427 0H40L100 500H229Z" glyph-name="l.smcp" horiz-adv-x="492" /><glyph d="M166 825 267 1000H418L252 825ZM171 -16Q106 -16 76.5 13Q47 42 56 115L134 750H265L189 137Q187 123 194.5 116Q202 109 222 109L207 -16Z" glyph-name="lacute" horiz-adv-x="300" unicode="&#314;" /><glyph d="M133 575 235 750H386L219 575ZM184 125H442L427 0H40L101 500H230Z" glyph-name="lacute.smcp" horiz-adv-x="492" /><glyph d="M419 750 346 550H280L321 750ZM171 -16Q106 -16 76.5 13Q47 42 56 115L134 750H265L189 137Q187 123 194.5 116Q202 109 222 109L207 -16Z" glyph-name="lcaron" horiz-adv-x="300" unicode="&#318;" /><glyph d="M458 600 386 400H320L360 600ZM184 125H442L427 0H40L101 500H230Z" glyph-name="lcaron.smcp" horiz-adv-x="492" /><glyph d="M36 -250 56 -192Q27 -168 32 -127Q36 -93 62.5 -69Q89 -45 123 -45Q157 -45 178 -69Q199 -93 195 -127Q193 -138 189 -148Q185 -158 180 -166L131 -250ZM171 -16Q106 -16 76.5 13Q47 42 56 115L134 750H265L189 137Q187 123 194.5 116Q202 109 222 109L207 -16Z" glyph-name="lcommaaccent" horiz-adv-x="300" unicode="&#316;" /><glyph d="M143 -250 163 -192Q134 -168 139 -127Q143 -93 169.5 -69Q196 -45 230 -45Q264 -45 285 -69Q306 -93 302 -127Q300 -138 296 -148Q292 -158 287 -166L238 -250ZM184 125H442L427 0H40L101 500H230Z" glyph-name="lcommaaccent.smcp" horiz-adv-x="492" /><glyph d="M262 300Q267 334 293 358Q319 382 353 382Q387 382 408 358Q429 334 425 300Q421 266 394 242.5Q367 219 333 219Q299 219 278.5 242.5Q258 266 262 300ZM171 -16Q106 -16 76.5 13Q47 42 56 115L134 750H265L189 137Q187 123 194.5 116Q202 109 222 109L207 -16Z" glyph-name="ldot" horiz-adv-x="400" unicode="&#320;" /><glyph d="M305 300Q310 334 336 358Q362 382 396 382Q430 382 451 358Q472 334 468 300Q464 266 437 242.5Q410 219 376 219Q342 219 321.5 242.5Q301 266 305 300ZM184 125H442L427 0H40L101 500H230Z" glyph-name="ldot.smcp" horiz-adv-x="492" /><glyph d="M306 100 41 293 53 389 364 582 347 441 203 341 323 240Z" glyph-name="less" horiz-adv-x="365" unicode="&lt;" /><glyph d="M807 311H309L330 299L545 149L525 -16L61 344L69 406L620 766L600 601L348 451L325 439H823Z" glyph-name="lessequal" horiz-adv-x="860" unicode="&#8804;" /><glyph d="M50 0 110 500H610L550 0Z" glyph-name="logicalnot" horiz-adv-x="660" unicode="&#172;" /><glyph d="M268 275 380 375 292 475 393 565 481 465 593 565 672 475 560 375 648 275 547 185 459 285 347 185ZM262 617 203 133H679L738 617ZM141 750H891L800 0H50Z" glyph-name="lozenge" horiz-adv-x="910" unicode="&#9674;" /><glyph d="M8 212 25 357 122 408 164 750H295L262 483L369 540L351 395L244 338L219 137Q217 123 224.5 116Q232 109 252 109L237 -16H201Q136 -16 106.5 13Q77 42 86 115L104 263Z" glyph-name="lslash" horiz-adv-x="360" unicode="&#322;" /><glyph d="M104 281 131 500H260L239 328L423 391L408 270L224 207L214 125H472L457 0H70L89 160L-5 128L10 249Z" glyph-name="lslash.smcp" horiz-adv-x="522" /><glyph d="M320 516Q375 516 405.5 504Q436 492 454 472Q487 492 527.5 504Q568 516 600 516Q700 516 739.5 469Q779 422 769 342L728 0H595L636 337Q639 365 625 378Q611 391 585 391Q551 391 529 383.5Q507 376 493 371L448 0H315L356 337Q359 365 345 378Q331 391 305 391Q275 391 252.5 384.5Q230 378 213 371L168 0H35L95 500H189L195 483Q225 498 259 507Q293 516 320 516Z" glyph-name="m" horiz-adv-x="818" unicode="m" /><glyph d="M258 56 193 238 167 0H40L100 500H232L328 234L488 500H620L560 0H433L465 238L354 56Z" glyph-name="m.smcp" horiz-adv-x="660" /><glyph d="M482 622H208L224 750H498Z" glyph-name="macron" horiz-adv-x="602" unicode="&#175;" /><glyph d="M74 405H484L468 277H58Z" glyph-name="minus" horiz-adv-x="520" unicode="&#8722;" /><glyph d="M223 500 182 164Q180 139 194.5 124Q209 109 243 109Q259 109 275.5 111.5Q292 114 306.5 117.5Q321 121 332 125Q343 129 349 131L394 500H527L467 0H374L367 16Q355 11 338 5Q321 -1 302 -5.5Q283 -10 263.5 -13Q244 -16 228 -16Q189 -16 161 -10L132 -250H-1L90 500Z" glyph-name="mu" horiz-adv-x="562" unicode="&#181;" /><glyph d="M69 241 181 341 93 441 194 531 282 431 394 531 473 441 361 341 449 241 348 151 260 251 148 151Z" glyph-name="multiply" horiz-adv-x="520" unicode="&#215;" /><glyph d="M379 330Q382 357 368 374Q354 391 319 391Q303 391 286.5 388.5Q270 386 255.5 382.5Q241 379 229.5 375Q218 371 212 369L168 0H35L95 500H188L194 484Q206 489 223.5 495Q241 501 260 505.5Q279 510 298 513Q317 516 334 516Q390 516 427 503.5Q464 491 484.5 467.5Q505 444 511 409.5Q517 375 512 330L472 0H339Z" glyph-name="n" horiz-adv-x="562" unicode="n" /><glyph d="M389 0 199 261 170 0H40L100 500H187L377 239L406 500H536L476 0Z" glyph-name="n.smcp" horiz-adv-x="576" /><glyph d="M285 575 387 750H538L371 575ZM379 330Q382 357 368.5 374Q355 391 320 391Q304 391 287.5 388.5Q271 386 256.5 382.5Q242 379 230.5 375Q219 371 213 369L168 0H35L96 500H189L195 484Q207 489 224.5 495Q242 501 261 505.5Q280 510 299 513Q318 516 335 516Q391 516 428 503.5Q465 491 485.5 467.5Q506 444 512 409.5Q518 375 512 330L472 0H339Z" glyph-name="nacute" horiz-adv-x="562" unicode="&#324;" /><glyph d="M284 575 386 750H537L370 575ZM389 0 200 261 170 0H40L101 500H188L377 239L407 500H537L476 0Z" glyph-name="nacute.smcp" horiz-adv-x="576" /><glyph d="M269 750 343 686 433 750H529L382 575H276L173 750ZM379 330Q382 357 368.5 374Q355 391 320 391Q304 391 287.5 388.5Q271 386 256.5 382.5Q242 379 230.5 375Q219 371 213 369L168 0H35L96 500H189L195 484Q207 489 224.5 495Q242 501 261 505.5Q280 510 299 513Q318 516 335 516Q391 516 428 503.5Q465 491 485.5 467.5Q506 444 512 409.5Q518 375 512 330L472 0H339Z" glyph-name="ncaron" horiz-adv-x="562" unicode="&#328;" /><glyph d="M528 750 381 575H275L172 750H268L342 686L432 750ZM389 0 200 261 170 0H40L101 500H188L377 239L407 500H537L476 0Z" glyph-name="ncaron.smcp" horiz-adv-x="576" /><glyph d="M158 -250 178 -192Q149 -168 154 -127Q158 -93 184.5 -69Q211 -45 245 -45Q279 -45 300 -69Q321 -93 317 -127Q315 -138 311 -148Q307 -158 302 -166L253 -250ZM379 330Q382 357 368.5 374Q355 391 320 391Q304 391 287.5 388.5Q271 386 256.5 382.5Q242 379 230.5 375Q219 371 213 369L168 0H35L96 500H189L195 484Q207 489 224.5 495Q242 501 261 505.5Q280 510 299 513Q318 516 335 516Q391 516 428 503.5Q465 491 485.5 467.5Q506 444 512 409.5Q518 375 512 330L472 0H339Z" glyph-name="ncommaaccent" horiz-adv-x="562" unicode="&#326;" /><glyph d="M174 -250 194 -192Q165 -168 170 -127Q174 -93 200.5 -69Q227 -45 261 -45Q295 -45 316 -69Q337 -93 333 -127Q331 -138 327 -148Q323 -158 318 -166L269 -250ZM389 0 200 261 170 0H40L101 500H188L377 239L407 500H537L476 0Z" glyph-name="ncommaaccent.smcp" horiz-adv-x="576" /><glyph d="M436 522Q439 542 437.5 563Q436 584 426 601.5Q416 619 396 630Q376 641 341 641Q308 641 286.5 628.5Q265 616 252.5 598Q240 580 234 559Q228 538 226 522Q224 505 224 484.5Q224 464 232 446Q240 428 258.5 415.5Q277 403 312 403Q347 403 370 414.5Q393 426 407 444Q421 462 427.5 483Q434 504 436 522ZM67 143Q96 131 144 121Q192 111 252 111Q289 111 317 128Q345 145 365 173Q385 201 397 237Q409 273 414 311Q393 297 363 287Q333 277 296 277Q217 277 174 301Q131 325 111.5 361.5Q92 398 90.5 441Q89 484 94 522Q98 560 111.5 603Q125 646 154.5 682Q184 718 232.5 742Q281 766 356 766Q437 766 482.5 741.5Q528 717 548.5 672Q569 627 569 563.5Q569 500 560 423Q553 365 542 309.5Q531 254 514 205.5Q497 157 473 116Q449 75 415 46Q381 17 337 0.5Q293 -16 237 -16Q180 -16 133 -9.5Q86 -3 50 8Z" glyph-name="nine" horiz-adv-x="600" unicode="9" /><glyph d="M436 522Q439 542 437.5 563Q436 584 426 601.5Q416 619 396 630Q376 641 341 641Q308 641 286.5 628.5Q265 616 252.5 598Q240 580 234 559Q228 538 226 522Q224 505 224 484.5Q224 464 232 446Q240 428 258.5 415.5Q277 403 312 403Q347 403 370 414.5Q393 426 407 444Q421 462 427.5 483Q434 504 436 522ZM67 143Q96 131 144 121Q192 111 252 111Q289 111 317 128Q345 145 365 173Q385 201 397 237Q409 273 414 311Q393 297 363 287Q333 277 296 277Q217 277 174 301Q131 325 111.5 361.5Q92 398 90.5 441Q89 484 94 522Q98 560 111.5 603Q125 646 154.5 682Q184 718 232.5 742Q281 766 356 766Q437 766 482.5 741.5Q528 717 548.5 672Q569 627 569 563.5Q569 500 560 423Q553 365 542 309.5Q531 254 514 205.5Q497 157 473 116Q449 75 415 46Q381 17 337 0.5Q293 -16 237 -16Q180 -16 133 -9.5Q86 -3 50 8Z" glyph-name="nine.LP" horiz-adv-x="600" /><glyph d="M406 272Q408 292 406.5 313Q405 334 395 351.5Q385 369 365 380Q345 391 310 391Q277 391 256 378.5Q235 366 222 348Q209 330 203.5 309Q198 288 196 272Q194 255 194 234.5Q194 214 201.5 196Q209 178 227.5 165.5Q246 153 281 153Q316 153 339 164.5Q362 176 376 194Q390 212 397 233Q404 254 406 272ZM36 -107Q66 -119 114 -129Q162 -139 222 -139Q259 -139 287 -122Q315 -105 335 -77Q355 -49 367 -13Q379 23 384 61Q363 47 333 37Q303 27 266 27Q187 27 143.5 51Q100 75 81 111.5Q62 148 60.5 191Q59 234 64 272Q68 310 81.5 353Q95 396 124 432Q153 468 201.5 492Q250 516 325 516Q406 516 452 491.5Q498 467 518.5 422Q539 377 539 313.5Q539 250 530 173Q519 86 499 6.5Q479 -73 442 -133.5Q405 -194 348 -230Q291 -266 206 -266Q149 -266 102 -259.5Q55 -253 20 -242Z" glyph-name="nine.OP" horiz-adv-x="600" /><glyph d="M50 0 141 750H891L800 0Z" glyph-name="notequal" horiz-adv-x="910" unicode="&#8800;" /><glyph d="M557 734Q540 645 503 605.5Q466 566 396 568Q366 569 348 580.5Q330 592 318 605Q306 618 296 628.5Q286 639 271 639Q248 639 238 621.5Q228 604 223 579L122 592Q139 681 176 720.5Q213 760 283 758Q313 757 330.5 745.5Q348 734 360 721Q372 708 382.5 697.5Q393 687 408 687Q431 687 441 704.5Q451 722 456 747ZM379 330Q382 357 368.5 374Q355 391 320 391Q304 391 287.5 388.5Q271 386 256.5 382.5Q242 379 230.5 375Q219 371 213 369L168 0H35L96 500H189L195 484Q207 489 224.5 495Q242 501 261 505.5Q280 510 299 513Q318 516 335 516Q391 516 428 503.5Q465 491 485.5 467.5Q506 444 512 409.5Q518 375 512 330L472 0H339Z" glyph-name="ntilde" horiz-adv-x="562" unicode="&#241;" /><glyph d="M556 734Q539 645 502 605.5Q465 566 395 568Q365 569 347 580.5Q329 592 317 605Q305 618 295 628.5Q285 639 270 639Q247 639 237 621.5Q227 604 222 579L121 592Q138 681 175 720.5Q212 760 282 758Q312 757 329.5 745.5Q347 734 359 721Q371 708 381.5 697.5Q392 687 407 687Q430 687 440 704.5Q450 722 455 747ZM389 0 200 261 170 0H40L101 500H188L377 239L407 500H537L476 0Z" glyph-name="ntilde.smcp" horiz-adv-x="576" /><glyph d="M287 486H340L355 515H302ZM275 359H223L168 250H33L88 359H20L72 486H152L167 515H98L150 641H230L285 750H421L366 641H419L474 750H610L555 641H626L574 515H491L475 486H548L496 359H412L357 250H222Z" glyph-name="numbersign" horiz-adv-x="585" unicode="#" /><glyph d="M256 236H309L325 265H272ZM245 109H193L138 0H3L58 109H-10L41 236H121L137 265H68L119 391H199L254 500H390L335 391H388L443 500H579L524 391H595L544 265H461L444 236H517L466 109H382L327 0H192Z" glyph-name="numbersign.OP" horiz-adv-x="585" /><glyph d="M368 250Q371 279 371.5 305Q372 331 364.5 350Q357 369 340 380Q323 391 292 391Q260 391 240.5 380Q221 369 209 350Q197 331 191 305Q185 279 182 250Q178 221 177.5 195Q177 169 184.5 150Q192 131 209 120Q226 109 258 109Q289 109 308.5 120Q328 131 340 150Q352 169 358 195Q364 221 368 250ZM500 250Q493 191 478 142.5Q463 94 434 58.5Q405 23 358.5 3.5Q312 -16 243 -16Q174 -16 133 3.5Q92 23 71 58.5Q50 94 46.5 142.5Q43 191 50 250Q57 308 72.5 357Q88 406 117 441.5Q146 477 192 496.5Q238 516 307 516Q376 516 417.5 496.5Q459 477 480 441.5Q501 406 504 357Q507 308 500 250Z" glyph-name="o" horiz-adv-x="550" unicode="o" /><glyph d="M395 250Q398 279 397 305Q396 331 386.5 350Q377 369 358 380Q339 391 307 391Q275 391 253 380Q231 369 217 350Q203 331 195.5 305Q188 279 185 250Q181 221 182.5 195Q184 169 193 150Q202 131 221.5 120Q241 109 273 109Q305 109 327 120Q349 131 362.5 150Q376 169 383.5 195Q391 221 395 250ZM525 250Q518 193 500 144Q482 95 450.5 59.5Q419 24 371.5 4Q324 -16 258 -16Q192 -16 149.5 4Q107 24 83.5 59.5Q60 95 54 144Q48 193 55 250Q62 307 80 356Q98 405 130 440.5Q162 476 209 496Q256 516 322 516Q388 516 430.5 496Q473 476 496.5 440.5Q520 405 526 356Q532 307 525 250Z" glyph-name="o.smcp" horiz-adv-x="580" /><glyph d="M271 575 372 750H523L357 575ZM368 250Q371 279 371.5 305Q372 331 364.5 350Q357 369 340 380Q323 391 292 391Q260 391 240.5 380Q221 369 209 350Q197 331 191 305Q185 279 182 250Q178 221 177.5 195Q177 169 184.5 150Q192 131 209 120Q226 109 258 109Q289 109 308.5 120Q328 131 340 150Q352 169 358 195Q364 221 368 250ZM500 250Q493 191 478 142.5Q463 94 434 58.5Q405 23 358.5 3.5Q312 -16 243 -16Q174 -16 133 3.5Q92 23 71 58.5Q50 94 46.5 142.5Q43 191 50 250Q57 308 72.5 357Q88 406 117 441.5Q146 477 192 496.5Q238 516 307 516Q376 516 417.5 496.5Q459 477 480 441.5Q501 406 504 357Q507 308 500 250Z" glyph-name="oacute" horiz-adv-x="550" unicode="&#243;" /><glyph d="M286 575 388 750H539L372 575ZM395 250Q399 279 398 305Q397 331 387.5 350Q378 369 359 380Q340 391 308 391Q276 391 254 380Q232 369 218 350Q204 331 196.5 305Q189 279 185 250Q182 221 183 195Q184 169 193.5 150Q203 131 222 120Q241 109 273 109Q305 109 327 120Q349 131 363 150Q377 169 384.5 195Q392 221 395 250ZM525 250Q518 193 500 144Q482 95 450.5 59.5Q419 24 371.5 4Q324 -16 258 -16Q192 -16 149.5 4Q107 24 83.5 59.5Q60 95 54 144Q48 193 55 250Q62 307 80 356Q98 405 130.5 440.5Q163 476 210 496Q257 516 323 516Q389 516 431.5 496Q474 476 497 440.5Q520 405 526 356Q532 307 525 250Z" glyph-name="oacute.smcp" horiz-adv-x="580" /><glyph d="M313 559Q223 559 191 608Q159 657 169 750H271Q268 723 271.5 707Q275 691 283 682.5Q291 674 302.5 671Q314 668 327 668Q340 668 352 671Q364 674 374 682.5Q384 691 391.5 707Q399 723 403 750H505Q491 657 447 608Q403 559 313 559ZM368 250Q372 279 372.5 305Q373 331 365.5 350Q358 369 341 380Q324 391 293 391Q261 391 241.5 380Q222 369 210 350Q198 331 192 305Q186 279 182 250Q179 221 178.5 195Q178 169 185 150Q192 131 209 120Q226 109 258 109Q289 109 309 120Q329 131 341 150Q353 169 359 195Q365 221 368 250ZM500 250Q493 191 478 142.5Q463 94 434 58.5Q405 23 358.5 3.5Q312 -16 243 -16Q174 -16 133 3.5Q92 23 71 58.5Q50 94 46.5 142.5Q43 191 50 250Q57 308 72.5 357Q88 406 117.5 441.5Q147 477 193 496.5Q239 516 308 516Q377 516 418.5 496.5Q460 477 480.5 441.5Q501 406 504 357Q507 308 500 250Z" glyph-name="obreve" horiz-adv-x="550" unicode="&#335;" /><glyph d="M328 559Q238 559 206 608Q174 657 184 750H286Q283 723 286.5 707Q290 691 298 682.5Q306 674 317.5 671Q329 668 342 668Q355 668 367 671Q379 674 389 682.5Q399 691 406.5 707Q414 723 418 750H520Q506 657 462 608Q418 559 328 559ZM395 250Q399 279 398 305Q397 331 387.5 350Q378 369 359 380Q340 391 308 391Q276 391 254 380Q232 369 218 350Q204 331 196.5 305Q189 279 185 250Q182 221 183 195Q184 169 193.5 150Q203 131 222 120Q241 109 273 109Q305 109 327 120Q349 131 363 150Q377 169 384.5 195Q392 221 395 250ZM525 250Q518 193 500 144Q482 95 450.5 59.5Q419 24 371.5 4Q324 -16 258 -16Q192 -16 149.5 4Q107 24 83.5 59.5Q60 95 54 144Q48 193 55 250Q62 307 80 356Q98 405 130.5 440.5Q163 476 210 496Q257 516 323 516Q389 516 431.5 496Q474 476 497 440.5Q520 405 526 356Q532 307 525 250Z" glyph-name="obreve.smcp" horiz-adv-x="580" /><glyph d="M397 575 322 639 233 575H137L283 750H389L493 575ZM368 250Q371 279 371.5 305Q372 331 364.5 350Q357 369 340 380Q323 391 292 391Q260 391 240.5 380Q221 369 209 350Q197 331 191 305Q185 279 182 250Q178 221 177.5 195Q177 169 184.5 150Q192 131 209 120Q226 109 258 109Q289 109 308.5 120Q328 131 340 150Q352 169 358 195Q364 221 368 250ZM500 250Q493 191 478 142.5Q463 94 434 58.5Q405 23 358.5 3.5Q312 -16 243 -16Q174 -16 133 3.5Q92 23 71 58.5Q50 94 46.5 142.5Q43 191 50 250Q57 308 72.5 357Q88 406 117 441.5Q146 477 192 496.5Q238 516 307 516Q376 516 417.5 496.5Q459 477 480 441.5Q501 406 504 357Q507 308 500 250Z" glyph-name="ocircumflex" horiz-adv-x="550" unicode="&#244;" /><glyph d="M412 575 338 639 248 575H152L299 750H405L508 575ZM395 250Q399 279 398 305Q397 331 387.5 350Q378 369 359 380Q340 391 308 391Q276 391 254 380Q232 369 218 350Q204 331 196.5 305Q189 279 185 250Q182 221 183 195Q184 169 193.5 150Q203 131 222 120Q241 109 273 109Q305 109 327 120Q349 131 363 150Q377 169 384.5 195Q392 221 395 250ZM525 250Q518 193 500 144Q482 95 450.5 59.5Q419 24 371.5 4Q324 -16 258 -16Q192 -16 149.5 4Q107 24 83.5 59.5Q60 95 54 144Q48 193 55 250Q62 307 80 356Q98 405 130.5 440.5Q163 476 210 496Q257 516 323 516Q389 516 431.5 496Q474 476 497 440.5Q520 405 526 356Q532 307 525 250Z" glyph-name="ocircumflex.smcp" horiz-adv-x="580" /><glyph d="M355 658Q359 692 385.5 716Q412 740 446 740Q480 740 501 716Q522 692 518 658Q513 624 486.5 600.5Q460 577 426 577Q392 577 371 600.5Q350 624 355 658ZM132 658Q136 692 162.5 716Q189 740 223 740Q257 740 278 716Q299 692 295 658Q290 624 263.5 600.5Q237 577 203 577Q169 577 148 600.5Q127 624 132 658ZM368 250Q371 279 371.5 305Q372 331 364.5 350Q357 369 340 380Q323 391 292 391Q260 391 240.5 380Q221 369 209 350Q197 331 191 305Q185 279 182 250Q178 221 177.5 195Q177 169 184.5 150Q192 131 209 120Q226 109 258 109Q289 109 308.5 120Q328 131 340 150Q352 169 358 195Q364 221 368 250ZM500 250Q493 191 478 142.5Q463 94 434 58.5Q405 23 358.5 3.5Q312 -16 243 -16Q174 -16 133 3.5Q92 23 71 58.5Q50 94 46.5 142.5Q43 191 50 250Q57 308 72.5 357Q88 406 117 441.5Q146 477 192 496.5Q238 516 307 516Q376 516 417.5 496.5Q459 477 480 441.5Q501 406 504 357Q507 308 500 250Z" glyph-name="odieresis" horiz-adv-x="550" unicode="&#246;" /><glyph d="M370 658Q375 692 401 716Q427 740 461 740Q495 740 516 716Q537 692 533 658Q529 624 502 600.5Q475 577 441 577Q407 577 386.5 600.5Q366 624 370 658ZM147 658Q152 692 178 716Q204 740 238 740Q272 740 293 716Q314 692 310 658Q306 624 279 600.5Q252 577 218 577Q184 577 163.5 600.5Q143 624 147 658ZM395 250Q399 279 398 305Q397 331 387.5 350Q378 369 359 380Q340 391 308 391Q276 391 254 380Q232 369 218 350Q204 331 196.5 305Q189 279 185 250Q182 221 183 195Q184 169 193.5 150Q203 131 222 120Q241 109 273 109Q305 109 327 120Q349 131 363 150Q377 169 384.5 195Q392 221 395 250ZM525 250Q518 193 500 144Q482 95 450.5 59.5Q419 24 371.5 4Q324 -16 258 -16Q192 -16 149.5 4Q107 24 83.5 59.5Q60 95 54 144Q48 193 55 250Q62 307 80 356Q98 405 130.5 440.5Q163 476 210 496Q257 516 323 516Q389 516 431.5 496Q474 476 497 440.5Q520 405 526 356Q532 307 525 250Z" glyph-name="odieresis.smcp" horiz-adv-x="580" /><glyph d="M605 307Q636 307 653.5 316Q671 325 674 349Q677 373 661.5 382Q646 391 615 391Q568 391 546 367Q524 343 513 307ZM368 250Q371 279 371.5 305Q372 331 364.5 350Q357 369 340 380Q323 391 292 391Q260 391 240.5 380Q221 369 209 350Q197 331 191 305Q185 279 182 250Q178 221 177.5 195Q177 169 184.5 150Q192 131 209 120Q226 109 258 109Q287 109 306.5 119Q326 129 338 146Q350 163 356.5 187Q363 211 367 238ZM499 187Q497 155 514.5 132Q532 109 577 109Q621 109 666.5 118Q712 127 760 147L745 17Q723 7 698.5 0.5Q674 -6 649.5 -9.5Q625 -13 602.5 -14.5Q580 -16 562 -16Q508 -16 471 -3Q434 10 411 35Q382 10 341 -3Q300 -16 243 -16Q174 -16 133 3.5Q92 23 71 58.5Q50 94 46.5 142.5Q43 191 50 250Q57 308 72.5 357Q88 406 117 441.5Q146 477 192 496.5Q238 516 307 516Q364 516 402 502.5Q440 489 463 465Q492 490 532 503Q572 516 626 516Q831 516 810 349Q799 264 744 225.5Q689 187 586 187Z" glyph-name="oe" horiz-adv-x="848" unicode="&#339;" /><glyph d="M186 250Q183 221 185.5 198Q188 175 199 159Q210 143 231.5 134Q253 125 286 125H319L350 375H317Q284 375 260.5 366Q237 357 222 341Q207 325 198.5 301.5Q190 278 186 250ZM664 193H456L448 125H686L671 0H272Q207 0 162.5 17.5Q118 35 92 67.5Q66 100 58 146.5Q50 193 57 250Q64 307 83.5 353.5Q103 400 137 432.5Q171 465 219.5 482.5Q268 500 333 500H732L717 375H479L472 318H680Z" glyph-name="oe.smcp" horiz-adv-x="755" /><glyph d="M473 0Q448 0 424.5 -6Q401 -12 382 -23Q363 -34 350.5 -49.5Q338 -65 336 -84Q334 -106 350 -113.5Q366 -121 383 -121Q397 -121 409 -119Q421 -117 430 -115Q441 -112 449 -109L436 -213Q428 -218 404 -225Q380 -232 339 -232Q315 -232 291.5 -225Q268 -218 251 -203.5Q234 -189 225 -166.5Q216 -144 220 -113Q225 -73 247 -37.5Q269 -2 304.5 26Q340 54 386 72.5Q432 91 484 97Z" glyph-name="ogonek" horiz-adv-x="540" unicode="&#731;" /><glyph d="M271 575 147 750H298L357 575ZM368 250Q371 279 371.5 305Q372 331 364.5 350Q357 369 340 380Q323 391 292 391Q260 391 240.5 380Q221 369 209 350Q197 331 191 305Q185 279 182 250Q178 221 177.5 195Q177 169 184.5 150Q192 131 209 120Q226 109 258 109Q289 109 308.5 120Q328 131 340 150Q352 169 358 195Q364 221 368 250ZM500 250Q493 191 478 142.5Q463 94 434 58.5Q405 23 358.5 3.5Q312 -16 243 -16Q174 -16 133 3.5Q92 23 71 58.5Q50 94 46.5 142.5Q43 191 50 250Q57 308 72.5 357Q88 406 117 441.5Q146 477 192 496.5Q238 516 307 516Q376 516 417.5 496.5Q459 477 480 441.5Q501 406 504 357Q507 308 500 250Z" glyph-name="ograve" horiz-adv-x="550" unicode="&#242;" /><glyph d="M286 575 163 750H314L372 575ZM395 250Q399 279 398 305Q397 331 387.5 350Q378 369 359 380Q340 391 308 391Q276 391 254 380Q232 369 218 350Q204 331 196.5 305Q189 279 185 250Q182 221 183 195Q184 169 193.5 150Q203 131 222 120Q241 109 273 109Q305 109 327 120Q349 131 363 150Q377 169 384.5 195Q392 221 395 250ZM525 250Q518 193 500 144Q482 95 450.5 59.5Q419 24 371.5 4Q324 -16 258 -16Q192 -16 149.5 4Q107 24 83.5 59.5Q60 95 54 144Q48 193 55 250Q62 307 80 356Q98 405 130.5 440.5Q163 476 210 496Q257 516 323 516Q389 516 431.5 496Q474 476 497 440.5Q520 405 526 356Q532 307 525 250Z" glyph-name="ograve.smcp" horiz-adv-x="580" /><glyph d="M350 575 452 750H603L436 575ZM183 575 285 750H436L269 575ZM368 250Q372 279 372.5 305Q373 331 365.5 350Q358 369 341 380Q324 391 293 391Q261 391 241.5 380Q222 369 210 350Q198 331 192 305Q186 279 182 250Q179 221 178.5 195Q178 169 185 150Q192 131 209 120Q226 109 258 109Q289 109 309 120Q329 131 341 150Q353 169 359 195Q365 221 368 250ZM500 250Q493 191 478 142.5Q463 94 434 58.5Q405 23 358.5 3.5Q312 -16 243 -16Q174 -16 133 3.5Q92 23 71 58.5Q50 94 46.5 142.5Q43 191 50 250Q57 308 72.5 357Q88 406 117.5 441.5Q147 477 193 496.5Q239 516 308 516Q377 516 418.5 496.5Q460 477 480.5 441.5Q501 406 504 357Q507 308 500 250Z" glyph-name="ohungarumlaut" horiz-adv-x="550" unicode="&#337;" /><glyph d="M363 575 465 750H616L449 575ZM196 575 298 750H449L282 575ZM395 250Q399 279 398 305Q397 331 387.5 350Q378 369 359 380Q340 391 308 391Q276 391 254 380Q232 369 218 350Q204 331 196.5 305Q189 279 185 250Q182 221 183 195Q184 169 193.5 150Q203 131 222 120Q241 109 273 109Q305 109 327 120Q349 131 363 150Q377 169 384.5 195Q392 221 395 250ZM525 250Q518 193 500 144Q482 95 450.5 59.5Q419 24 371.5 4Q324 -16 258 -16Q192 -16 149.5 4Q107 24 83.5 59.5Q60 95 54 144Q48 193 55 250Q62 307 80 356Q98 405 130.5 440.5Q163 476 210 496Q257 516 323 516Q389 516 431.5 496Q474 476 497 440.5Q520 405 526 356Q532 307 525 250Z" glyph-name="ohungarumlaut.smcp" horiz-adv-x="580" /><glyph d="M452 575H178L194 703H468ZM368 250Q372 279 372.5 305Q373 331 365.5 350Q358 369 341 380Q324 391 293 391Q261 391 241.5 380Q222 369 210 350Q198 331 192 305Q186 279 182 250Q179 221 178.5 195Q178 169 185 150Q192 131 209 120Q226 109 258 109Q289 109 309 120Q329 131 341 150Q353 169 359 195Q365 221 368 250ZM500 250Q493 191 478 142.5Q463 94 434 58.5Q405 23 358.5 3.5Q312 -16 243 -16Q174 -16 133 3.5Q92 23 71 58.5Q50 94 46.5 142.5Q43 191 50 250Q57 308 72.5 357Q88 406 117.5 441.5Q147 477 193 496.5Q239 516 308 516Q377 516 418.5 496.5Q460 477 480.5 441.5Q501 406 504 357Q507 308 500 250Z" glyph-name="omacron" horiz-adv-x="550" unicode="&#333;" /><glyph d="M467 575H193L209 703H483ZM395 250Q399 279 398 305Q397 331 387.5 350Q378 369 359 380Q340 391 308 391Q276 391 254 380Q232 369 218 350Q204 331 196.5 305Q189 279 185 250Q182 221 183 195Q184 169 193.5 150Q203 131 222 120Q241 109 273 109Q305 109 327 120Q349 131 363 150Q377 169 384.5 195Q392 221 395 250ZM525 250Q518 193 500 144Q482 95 450.5 59.5Q419 24 371.5 4Q324 -16 258 -16Q192 -16 149.5 4Q107 24 83.5 59.5Q60 95 54 144Q48 193 55 250Q62 307 80 356Q98 405 130.5 440.5Q163 476 210 496Q257 516 323 516Q389 516 431.5 496Q474 476 497 440.5Q520 405 526 356Q532 307 525 250Z" glyph-name="omacron.smcp" horiz-adv-x="580" /><glyph d="M69 119H213L276 632L136 626L146 708L361 766H428L349 119H494L480 0H55Z" glyph-name="one" horiz-adv-x="600" unicode="1" /><glyph d="M358 766 265 0H129L206 632L87 627L98 714L291 766Z" glyph-name="one.LP" horiz-adv-x="405" /><glyph d="M327 516 265 0H129L175 382L56 377L67 464L260 516Z" glyph-name="one.OP" horiz-adv-x="405" /><glyph d="M296 277H45L60 405H311Z" glyph-name="onethirdemdash" horiz-adv-x="333" /><glyph d="M203 567Q197 518 209.5 498Q222 478 257 478Q282 478 315 489L334 644Q305 656 278 656Q243 656 226 636Q209 616 203 567ZM463 759 416 375H335L330 388Q302 375 281 371Q260 367 243 367Q147 367 112 418Q77 469 89 567Q101 665 148.5 716Q196 767 292 767Q309 767 328.5 762.5Q348 758 373 745L382 759Z" glyph-name="ordfeminine" horiz-adv-x="450" unicode="&#170;" /><glyph d="M264 526 257 556 242 526ZM185 409 168 375H26L238 766H328L444 375H302L293 409Z" glyph-name="ordfeminine.smcp" horiz-adv-x="438" /><glyph d="M207 567Q201 518 213.5 498Q226 478 261 478Q297 478 317 498.5Q337 519 343 567Q348 615 333 635Q318 655 282 655Q247 655 229.5 635Q212 615 207 567ZM94 567Q105 665 153.5 715.5Q202 766 296 766Q390 766 428.5 715.5Q467 665 456 567Q444 468 392.5 417.5Q341 367 247 367Q153 367 117.5 417.5Q82 468 94 567Z" glyph-name="ordmasculine" horiz-adv-x="469" unicode="&#186;" /><glyph d="M207 567Q201 518 213.5 498Q226 478 261 478Q297 478 317 498.5Q337 519 343 567Q349 615 334 635Q319 655 283 655Q248 655 230.5 635Q213 615 207 567ZM94 567Q106 665 154.5 715.5Q203 766 297 766Q391 766 429.5 715.5Q468 665 456 567Q444 468 393 417.5Q342 367 248 367Q154 367 118 417.5Q82 468 94 567Z" glyph-name="ordmasculine.smcp" horiz-adv-x="469" /><glyph d="M365 250Q366 258 366.5 264.5Q367 271 367 278L236 110Q241 109 245.5 109Q250 109 255 109Q286 109 305.5 120Q325 131 337 150Q349 169 355 195Q361 221 365 250ZM179 250Q177 240 176.5 231Q176 222 175 213L313 389Q308 390 301.5 390.5Q295 391 289 391Q257 391 237.5 380Q218 369 206 350Q194 331 188 305Q182 279 179 250ZM484 428Q499 393 501 348Q503 303 497 250Q490 191 475 142.5Q460 94 431 58.5Q402 23 355.5 3.5Q309 -16 240 -16Q209 -16 184 -12Q159 -8 139 0H10L62 68Q45 103 42.5 149Q40 195 47 250Q54 308 69.5 357Q85 406 114 441.5Q143 477 189 496.5Q235 516 304 516Q335 516 360.5 512Q386 508 406 500H540Z" glyph-name="oslash" horiz-adv-x="550" unicode="&#248;" /><glyph d="M395 250Q398 274 398 295L253 110Q258 109 263 109Q268 109 273 109Q305 109 327 120Q349 131 363 150Q377 169 384.5 195Q392 221 395 250ZM185 250Q183 236 182.5 223Q182 210 183 198L332 389Q326 390 320.5 390.5Q315 391 308 391Q276 391 254 380Q232 369 218 350Q204 331 196.5 305Q189 279 185 250ZM525 250Q518 193 500 144Q482 95 450.5 59.5Q419 24 371.5 4Q324 -16 258 -16Q229 -16 204.5 -12Q180 -8 160 0H28L80 66Q58 101 53 148Q48 195 55 250Q62 307 80 356Q98 405 130.5 440.5Q163 476 210 496Q257 516 323 516Q352 516 376.5 512Q401 508 421 500H559L503 429Q523 394 527.5 349Q532 304 525 250Z" glyph-name="oslash.smcp" horiz-adv-x="580" /><glyph d="M543 734Q526 645 489 605.5Q452 566 382 568Q352 569 334 580.5Q316 592 304 605Q292 618 282 628.5Q272 639 257 639Q234 639 224 621.5Q214 604 209 579L108 592Q125 681 162 720.5Q199 760 269 758Q299 757 316.5 745.5Q334 734 346 721Q358 708 368.5 697.5Q379 687 394 687Q417 687 427 704.5Q437 722 442 747ZM368 250Q372 279 372.5 305Q373 331 365.5 350Q358 369 341 380Q324 391 293 391Q261 391 241.5 380Q222 369 210 350Q198 331 192 305Q186 279 182 250Q179 221 178.5 195Q178 169 185 150Q192 131 209 120Q226 109 258 109Q289 109 309 120Q329 131 341 150Q353 169 359 195Q365 221 368 250ZM500 250Q493 191 478 142.5Q463 94 434 58.5Q405 23 358.5 3.5Q312 -16 243 -16Q174 -16 133 3.5Q92 23 71 58.5Q50 94 46.5 142.5Q43 191 50 250Q57 308 72.5 357Q88 406 117.5 441.5Q147 477 193 496.5Q239 516 308 516Q377 516 418.5 496.5Q460 477 480.5 441.5Q501 406 504 357Q507 308 500 250Z" glyph-name="otilde" horiz-adv-x="550" unicode="&#245;" /><glyph d="M558 734Q541 645 504 605.5Q467 566 397 568Q367 569 349 580.5Q331 592 319 605Q307 618 297 628.5Q287 639 272 639Q249 639 239 621.5Q229 604 224 579L123 592Q140 681 177 720.5Q214 760 284 758Q314 757 331.5 745.5Q349 734 361 721Q373 708 383.5 697.5Q394 687 409 687Q432 687 442 704.5Q452 722 457 747ZM395 250Q399 279 398 305Q397 331 387.5 350Q378 369 359 380Q340 391 308 391Q276 391 254 380Q232 369 218 350Q204 331 196.5 305Q189 279 185 250Q182 221 183 195Q184 169 193.5 150Q203 131 222 120Q241 109 273 109Q305 109 327 120Q349 131 363 150Q377 169 384.5 195Q392 221 395 250ZM525 250Q518 193 500 144Q482 95 450.5 59.5Q419 24 371.5 4Q324 -16 258 -16Q192 -16 149.5 4Q107 24 83.5 59.5Q60 95 54 144Q48 193 55 250Q62 307 80 356Q98 405 130.5 440.5Q163 476 210 496Q257 516 323 516Q389 516 431.5 496Q474 476 497 440.5Q520 405 526 356Q532 307 525 250Z" glyph-name="otilde.smcp" horiz-adv-x="580" /><glyph d="M181 128Q197 121 221 115Q245 109 272 109Q302 109 321.5 119.5Q341 130 354 149Q367 168 373.5 194Q380 220 384 250Q388 280 387.5 306Q387 332 378.5 351Q370 370 353 380.5Q336 391 306 391Q279 391 253.5 385Q228 379 211 372ZM95 500H188L193 482Q222 498 258 507Q294 516 323 516Q389 516 431 498.5Q473 481 495 447Q517 413 521.5 363.5Q526 314 518 250Q510 185 493.5 135.5Q477 86 447 52.5Q417 19 371 1.5Q325 -16 259 -16Q238 -16 211.5 -10.5Q185 -5 166 3L135 -250H4Z" glyph-name="p" horiz-adv-x="568" unicode="p" /><glyph d="M336 325Q337 334 337 343Q337 352 333.5 359Q330 366 322 370.5Q314 375 299 375H214L202 274H287Q316 274 325 290Q334 306 336 325ZM187 149 169 0H40L100 500H311Q361 500 394 486Q427 472 445.5 448Q464 424 469 392Q474 360 470 325Q466 290 452.5 258Q439 226 415 202Q391 178 355 163.5Q319 149 269 149Z" glyph-name="p.smcp" horiz-adv-x="491" /><glyph d="M209 511Q206 485 212 459Q218 433 245 418L268 603Q237 588 224.5 562Q212 536 209 511ZM446 617H409L383 404H420ZM195 0 228 276Q175 285 141 307.5Q107 330 87.5 361.5Q68 393 62.5 431.5Q57 470 62 511Q68 558 86.5 601Q105 644 140.5 677Q176 710 228.5 730Q281 750 355 750H601L510 0H371L404 271H367L334 0Z" glyph-name="paragraph" horiz-adv-x="610" unicode="&#182;" /><glyph d="M129 -206Q114 -178 98 -130Q82 -82 71 -17Q60 48 57.5 129Q55 210 67 305Q79 400 101 481Q123 562 149.5 627Q176 692 203.5 740Q231 788 254 816H397Q374 788 346.5 740Q319 692 292 627Q265 562 243 481Q221 400 209 305Q197 210 200 129Q203 48 213.5 -17Q224 -82 240.5 -130Q257 -178 272 -206Z" glyph-name="parenleft" horiz-adv-x="368" unicode="(" /><glyph d="M-16 -206Q7 -178 35 -130Q63 -82 90 -17Q117 48 139 129Q161 210 173 305Q185 400 182 481Q179 562 168 627Q157 692 141 740Q125 788 109 816H252Q268 788 284 740Q300 692 311 627Q322 562 324.5 481Q327 400 315 305Q303 210 281 129Q259 48 232.5 -17Q206 -82 178 -130Q150 -178 127 -206Z" glyph-name="parenright" horiz-adv-x="368" unicode=")" /><glyph d="M385 250Q389 280 388 306Q387 332 378.5 350.5Q370 369 352 380Q334 391 304 391Q273 391 252.5 380Q232 369 219.5 350.5Q207 332 200 306Q193 280 189 250Q185 220 186 194.5Q187 169 195 150Q203 131 221 120Q239 109 270 109Q300 109 320.5 120Q341 131 354 150Q367 169 374 194.5Q381 220 385 250ZM520 250Q513 191 496.5 142Q480 93 449 58Q418 23 371 3.5Q324 -16 255 -16Q187 -16 144.5 3.5Q102 23 80 58Q58 93 53 142Q48 191 55 250Q62 309 78.5 358Q95 407 126 442Q157 477 204 496.5Q251 516 319 516Q329 516 342 514.5Q355 513 367.5 510.5Q380 508 390 504.5Q400 501 405 498Q409 535 403.5 561.5Q398 588 385 605.5Q372 623 352.5 631Q333 639 309 639Q265 639 219.5 628Q174 617 137 600L153 732Q179 745 221 755.5Q263 766 325 766Q410 766 457 734.5Q504 703 523 638.5Q542 574 539 477Q536 380 520 250Z" glyph-name="partialdiff" horiz-adv-x="575" unicode="&#8706;" /><glyph d="M760 267Q731 267 715.5 249.5Q700 232 695 188Q690 144 701 126.5Q712 109 741 109Q771 109 786 126.5Q801 144 806 188Q811 232 800.5 249.5Q790 267 760 267ZM263 483Q292 483 307.5 500.5Q323 518 328 562Q333 606 322.5 623.5Q312 641 283 641Q253 641 237.5 623.5Q222 606 217 562Q212 518 222.5 500.5Q233 483 263 483ZM123 0 746 750H901L278 0ZM248 357Q149 357 112.5 409Q76 461 88 562Q100 663 149.5 714.5Q199 766 298 766Q395 766 431.5 714.5Q468 663 456 562Q444 461 394.5 409Q345 357 248 357ZM775 393Q874 393 911 341Q948 289 935 188Q923 87 874 35.5Q825 -16 726 -16Q629 -16 592 35.5Q555 87 567 188Q580 289 629 341Q678 393 775 393Z" glyph-name="percent" horiz-adv-x="993" unicode="%" /><glyph d="M6 65Q11 99 37 123Q63 147 97 147Q131 147 152 123Q173 99 169 65Q165 31 138.5 7.5Q112 -16 78 -16Q44 -16 23 7.5Q2 31 6 65Z" glyph-name="period" horiz-adv-x="220" unicode="." /><glyph d="M45 375Q49 409 75.5 433Q102 457 136 457Q170 457 191 433Q212 409 208 375Q203 341 176.5 317.5Q150 294 116 294Q82 294 61 317.5Q40 341 45 375Z" glyph-name="periodcentered" horiz-adv-x="220" unicode="&#183;" /><glyph d="M760 267Q731 267 715.5 249.5Q700 232 695 188Q690 144 701 126.5Q712 109 741 109Q771 109 786 126.5Q801 144 806 188Q811 232 800.5 249.5Q790 267 760 267ZM1175 267Q1146 267 1130.5 249.5Q1115 232 1110 188Q1105 144 1116 126.5Q1127 109 1156 109Q1186 109 1201 126.5Q1216 144 1221 188Q1226 232 1215.5 249.5Q1205 267 1175 267ZM263 483Q292 483 307.5 500.5Q323 518 328 562Q333 606 322.5 623.5Q312 641 283 641Q253 641 237.5 623.5Q222 606 217 562Q212 518 222.5 500.5Q233 483 263 483ZM123 0 746 750H901L278 0ZM248 357Q149 357 112.5 409Q76 461 88 562Q100 663 149.5 714.5Q199 766 298 766Q395 766 431.5 714.5Q468 663 456 562Q444 461 394.5 409Q345 357 248 357ZM1190 393Q1289 393 1326 341Q1363 289 1350 188Q1338 87 1289 35.5Q1240 -16 1141 -16Q1044 -16 1007 35.5Q970 87 982 188Q995 289 1044 341Q1093 393 1190 393ZM775 393Q874 393 911 341Q948 289 935 188Q923 87 874 35.5Q825 -16 726 -16Q629 -16 592 35.5Q555 87 567 188Q580 289 629 341Q678 393 775 393Z" glyph-name="perthousand" horiz-adv-x="1408" unicode="&#8240;" /><glyph d="M325 275H364Q372 275 375.5 279Q379 283 380 288Q380 293 377.5 297Q375 301 367 301H328ZM314 188 305 109H213L247 391H380Q409 391 428 383Q447 375 457.5 361Q468 347 471.5 328.5Q475 310 473 289Q470 269 462 251Q454 233 440 219Q426 205 404.5 196.5Q383 188 355 188ZM319 77Q357 77 389.5 83Q422 89 447 107.5Q472 126 489 160Q506 194 513 250Q520 306 511 340Q502 374 481.5 392.5Q461 411 430 417Q399 423 361 423Q323 423 290.5 417Q258 411 233 392.5Q208 374 191 340Q174 306 167 250Q160 194 169 160Q178 126 198.5 107.5Q219 89 250 83Q281 77 319 77ZM308 -16Q254 -16 206 -5Q158 6 124 35Q90 64 74.5 116Q59 168 69 250Q79 332 107.5 384Q136 436 176.5 465Q217 494 267.5 505Q318 516 372 516Q426 516 474 505Q522 494 556 465Q590 436 605.5 384Q621 332 611 250Q601 168 572.5 116Q544 64 503.5 35Q463 6 412.5 -5Q362 -16 308 -16Z" glyph-name="pi" horiz-adv-x="680" unicode="&#960;" /><glyph d="M182 136 199 277H58L74 405H215L232 546H360L343 405H484L468 277H327L310 136Z" glyph-name="plus" horiz-adv-x="520" unicode="+" /><glyph d="M40 128H450L435 0H25ZM186 166 203 307H62L78 435H219L236 576H364L347 435H488L472 307H331L314 166Z" glyph-name="plusminus" horiz-adv-x="520" unicode="&#177;" /><glyph d="M316 285H350Q360 285 360 293Q362 301 352 301H318ZM319 77Q357 77 390.5 83Q424 89 449 109H359L327 195H305L295 109H204L238 391H362Q391 391 410.5 383.5Q430 376 440.5 363Q451 350 454.5 332.5Q458 315 455 294Q452 269 443.5 250Q435 231 417 217Q426 194 436.5 166Q447 138 457 115Q478 135 492.5 167Q507 199 513 250Q520 306 511 340Q502 374 481.5 392.5Q461 411 430 417Q399 423 361 423Q323 423 290.5 417Q258 411 233 392.5Q208 374 191 340Q174 306 167 250Q160 194 169 160Q178 126 198.5 107.5Q219 89 250 83Q281 77 319 77ZM308 -16Q254 -16 206 -5Q158 6 124 35Q90 64 74.5 116Q59 168 69 250Q79 332 107.5 384Q136 436 176.5 465Q217 494 267.5 505Q318 516 372 516Q426 516 474 505Q522 494 556 465Q590 436 605.5 384Q621 332 611 250Q601 168 572.5 116Q544 64 503.5 35Q463 6 412.5 -5Q362 -16 308 -16Z" glyph-name="product" horiz-adv-x="680" unicode="&#8719;" /><glyph glyph-name="punctuationspace" horiz-adv-x="220" unicode="&#8200;" /><glyph d="M387 372Q371 379 347 385Q323 391 296 391Q266 391 246.5 380.5Q227 370 214 351Q201 332 194.5 306Q188 280 184 250Q180 220 180.5 194Q181 168 189.5 149Q198 130 215 119.5Q232 109 262 109Q289 109 314.5 115Q340 121 357 128ZM442 -250H311L342 3Q322 -5 294 -10.5Q266 -16 245 -16Q179 -16 137 1.5Q95 19 73 52.5Q51 86 46.5 135.5Q42 185 50 250Q58 314 74.5 363.5Q91 413 121 447Q151 481 197 498.5Q243 516 309 516Q338 516 372 507Q406 498 431 482L440 500H533Z" glyph-name="q" horiz-adv-x="568" unicode="q" /><glyph d="M395 250Q398 279 397 305Q396 331 386.5 350Q377 369 358 380Q339 391 307 391Q275 391 253 380Q231 369 217 350Q203 331 195.5 305Q188 279 185 250Q181 221 182.5 195Q184 169 193 150Q202 131 221.5 120Q241 109 273 109Q305 109 327 120Q349 131 362.5 150Q376 169 383.5 195Q391 221 395 250ZM525 250Q517 184 494.5 128.5Q472 73 430 40V39L662 0L646 -130L175 -5Q134 6 108 29.5Q82 53 68.5 86Q55 119 52 161Q49 203 55 250Q62 307 80 356Q98 405 130 440.5Q162 476 209 496Q256 516 322 516Q388 516 430.5 496Q473 476 496.5 440.5Q520 405 526 356Q532 307 525 250Z" glyph-name="q.smcp" horiz-adv-x="580" /><glyph d="M81 68Q85 102 111.5 126Q138 150 172 150Q206 150 227 126Q248 102 244 68Q239 34 212.5 10.5Q186 -13 152 -13Q118 -13 97 10.5Q76 34 81 68ZM262 459Q278 465 293.5 472Q309 479 321.5 489.5Q334 500 342 515Q350 530 353 551Q355 570 353 585.5Q351 601 339.5 612.5Q328 624 306.5 630Q285 636 248 636Q206 636 158.5 624.5Q111 613 74 601L90 731Q106 737 128.5 743Q151 749 175 753.5Q199 758 222 760.5Q245 763 262 763Q341 763 388 745Q435 727 458.5 697.5Q482 668 486.5 630Q491 592 486 552Q480 501 463 467.5Q446 434 419.5 411Q393 388 358 372Q323 356 280 339Q248 327 237 295.5Q226 264 222 210H120Q117 235 117 261.5Q117 288 119 306Q122 329 130 350.5Q138 372 154.5 391.5Q171 411 197 428Q223 445 262 459Z" glyph-name="question" horiz-adv-x="500" unicode="?" /><glyph d="M400 432Q396 398 369.5 374Q343 350 309 350Q275 350 254 374Q233 398 237 432Q242 466 268.5 489.5Q295 513 329 513Q363 513 384 489.5Q405 466 400 432ZM218 41Q202 35 187 28Q172 21 159.5 10.5Q147 0 139 -15Q131 -30 128 -51Q126 -70 128 -85.5Q130 -101 141.5 -112.5Q153 -124 174.5 -130Q196 -136 233 -136Q275 -136 322.5 -124.5Q370 -113 407 -101L391 -231Q375 -237 352.5 -243Q330 -249 306 -253.5Q282 -258 258.5 -260.5Q235 -263 218 -263Q138 -263 91.5 -245Q45 -227 22 -197.5Q-1 -168 -5.5 -130Q-10 -92 -5 -52Q1 -1 18 32.5Q35 66 61.5 89Q88 112 123 128Q158 144 201 161Q217 167 227 177.5Q237 188 243 203.5Q249 219 253 240Q257 261 260 288H362Q364 262 364 237Q364 212 362 194Q359 171 351 149.5Q343 128 326.5 108.5Q310 89 283.5 72Q257 55 218 41Z" glyph-name="questiondown" horiz-adv-x="500" unicode="&#191;" /><glyph d="M293 500V750H459L397 500ZM93 500V750H259L197 500Z" glyph-name="quotedbl" horiz-adv-x="430" unicode="&quot;" /><glyph d="M188 -160Q205 -130 218 -91Q229 -58 238.5 -12.5Q248 33 247 90H402Q394 31 371.5 -15Q349 -61 326 -93Q299 -131 267 -160ZM-12 -160Q5 -130 18 -91Q29 -58 38.5 -12.5Q48 33 47 90H202Q194 31 171.5 -15Q149 -61 126 -93Q99 -131 67 -160Z" glyph-name="quotedblbase" horiz-adv-x="420" unicode="&#8222;" /><glyph d="M243 750 242 749 239 743Q238 742 236 738Q233 734 230 724Q228 722 226 715Q225 714 223 710Q221 704 218 696.5Q215 689 212 681Q211 678 210 674.5Q209 671 208 667Q203 653 199 637Q197 630 196 624Q195 618 193 611Q191 602 190 593Q189 584 187 574Q185 556 184 538Q183 520 183 500H28Q29 503 29.5 505.5Q30 508 31 511Q31 515 33 523L35 534L40 555Q44 568 49 580.5Q54 593 59 604Q62 611 65 617.5Q68 624 72 631Q94 671 116 698Q138 725 152 739Q154 741 155.5 742.5Q157 744 158 745L164 750ZM443 750Q442 749 442 748Q441 747 439 743Q438 742 436 738Q434 734 431.5 728.5Q429 723 426 715Q425 714 423 710Q421 706 420 702.5Q419 699 417 694Q412 682 408 667Q406 663 405.5 660Q405 657 403 653Q401 649 401 645Q401 641 399 637Q397 630 396 624Q395 618 393 611L392 602Q390 595 389.5 588.5Q389 582 387 574L385 554Q384 549 384 543.5Q384 538 383 533V500H228L230 511Q230 514 231 517Q232 520 232 523Q237 543 242 560.5Q247 578 255 595L263 613L272 631Q275 637 278.5 643Q282 649 285 655Q304 685 322.5 706.5Q341 728 352 739L364 750Z" glyph-name="quotedblleft" horiz-adv-x="420" unicode="&#8220;" /><glyph d="M268 500Q286 530 299 569Q310 602 319.5 647.5Q329 693 328 750H483Q474 691 451.5 645Q429 599 406 567Q379 529 347 500ZM68 500Q86 530 99 569Q110 602 119.5 647.5Q129 693 128 750H283Q274 691 251.5 645Q229 599 206 567Q179 529 147 500Z" glyph-name="quotedblright" horiz-adv-x="420" unicode="&#8221;" /><glyph d="M243 750Q226 720 213 681Q202 648 192 602.5Q182 557 183 500H28Q36 558 59 604.5Q82 651 105 683Q132 721 164 750Z" glyph-name="quoteleft" horiz-adv-x="220" unicode="&#8216;" /><glyph d="M68 500Q86 530 99 569Q110 602 119.5 647.5Q129 693 128 750H283Q274 691 251.5 645Q229 599 206 567Q179 529 147 500Z" glyph-name="quoteright" horiz-adv-x="220" unicode="&#8217;" /><glyph d="M-12 -160Q5 -130 18 -91Q29 -58 38.5 -12.5Q48 33 47 90H202Q194 31 171.5 -15Q149 -61 126 -93Q99 -131 67 -160Z" glyph-name="quotesinglbase" horiz-adv-x="220" unicode="&#8218;" /><glyph d="M93 500V750H259L197 500Z" glyph-name="quotesingle" horiz-adv-x="230" unicode="&apos;" /><glyph d="M389 374Q374 381 350.5 386Q327 391 304 391Q275 391 251.5 385Q228 379 213 372L168 0H35L95 500H189L194 483Q223 499 255.5 507.5Q288 516 319 516Q355 516 377 512Q399 508 405 505Z" glyph-name="r" horiz-adv-x="414" unicode="r" /><glyph d="M346 334Q348 351 340.5 363Q333 375 302 375H214L204 292H292Q323 292 333.5 304Q344 316 346 334ZM263 167H189L169 0H40L100 500H321Q371 500 404 487Q437 474 455.5 451.5Q474 429 479 399Q484 369 480 334Q475 291 453 254Q431 217 395 194L486 0H336Z" glyph-name="r.smcp" horiz-adv-x="541" /><glyph d="M211 575 313 750H464L297 575ZM389 374Q375 381 351.5 386Q328 391 305 391Q276 391 252 385Q228 379 213 372L168 0H35L96 500H190L195 483Q224 499 256.5 507.5Q289 516 320 516Q356 516 377.5 512Q399 508 406 505Z" glyph-name="racute" horiz-adv-x="414" unicode="&#341;" /><glyph d="M247 575 349 750H500L333 575ZM347 334Q349 351 341.5 363Q334 375 303 375H215L204 292H292Q323 292 334 304Q345 316 347 334ZM263 167H189L169 0H40L101 500H322Q372 500 405 487Q438 474 456 451.5Q474 429 479.5 399Q485 369 481 334Q476 291 453.5 254Q431 217 395 194L486 0H336Z" glyph-name="racute.smcp" horiz-adv-x="541" /><glyph d="M231 367 203 133H429L457 367ZM110 500H610L550 0H50Z" glyph-name="radical" horiz-adv-x="660" unicode="&#8730;" /><glyph d="M455 750 308 575H202L99 750H195L269 686L359 750ZM389 374Q375 381 351.5 386Q328 391 305 391Q276 391 252 385Q228 379 213 372L168 0H35L96 500H190L195 483Q224 499 256.5 507.5Q289 516 320 516Q356 516 377.5 512Q399 508 406 505Z" glyph-name="rcaron" horiz-adv-x="414" unicode="&#345;" /><glyph d="M491 750 344 575H238L135 750H231L305 686L395 750ZM347 334Q349 351 341.5 363Q334 375 303 375H215L204 292H292Q323 292 334 304Q345 316 347 334ZM263 167H189L169 0H40L101 500H322Q372 500 405 487Q438 474 456 451.5Q474 429 479.5 399Q485 369 481 334Q476 291 453.5 254Q431 217 395 194L486 0H336Z" glyph-name="rcaron.smcp" horiz-adv-x="541" /><glyph d="M9 -250 29 -192Q0 -168 5 -127Q9 -93 35.5 -69Q62 -45 96 -45Q130 -45 151 -69Q172 -93 168 -127Q166 -138 162 -148Q158 -158 153 -166L104 -250ZM389 374Q375 381 351.5 386Q328 391 305 391Q276 391 252 385Q228 379 213 372L168 0H35L96 500H190L195 483Q224 499 256.5 507.5Q289 516 320 516Q356 516 377.5 512Q399 508 406 505Z" glyph-name="rcommaaccent" horiz-adv-x="414" unicode="&#343;" /><glyph d="M157 -250 177 -192Q148 -168 153 -127Q157 -93 183.5 -69Q210 -45 244 -45Q278 -45 299 -69Q320 -93 316 -127Q314 -138 310 -148Q306 -158 301 -166L252 -250ZM347 334Q349 351 341.5 363Q334 375 303 375H215L204 292H292Q323 292 334 304Q345 316 347 334ZM263 167H189L169 0H40L101 500H322Q372 500 405 487Q438 474 456 451.5Q474 429 479.5 399Q485 369 481 334Q476 291 453.5 254Q431 217 395 194L486 0H336Z" glyph-name="rcommaaccent.smcp" horiz-adv-x="541" /><glyph d="M238 653Q239 658 237 660.5Q235 663 227 663H201L198 639H224Q232 639 234.5 642.5Q237 646 238 653ZM193 598 187 546H146L165 704H234Q266 704 276 689.5Q286 675 283 653Q280 621 259 608L279 546H232L217 598ZM230 723Q209 723 190.5 719.5Q172 716 158 705.5Q144 695 134.5 676Q125 657 121 625Q117 593 122 574Q127 555 138.5 544.5Q150 534 167.5 530.5Q185 527 206 527Q227 527 245 530.5Q263 534 277.5 544.5Q292 555 301.5 574Q311 593 315 625Q319 657 314 676Q309 695 297.5 705.5Q286 716 268.5 719.5Q251 723 230 723ZM235 766Q263 766 288 760.5Q313 755 331 739Q349 723 357.5 695.5Q366 668 361 625Q356 582 340.5 554.5Q325 527 303.5 511.5Q282 496 255 490Q228 484 200 484Q172 484 147 490Q122 496 104 511.5Q86 527 78 554.5Q70 582 75 625Q80 668 95 695.5Q110 723 132 739Q154 755 180.5 760.5Q207 766 235 766Z" glyph-name="registered" horiz-adv-x="344" unicode="&#174;" /><glyph d="M366 662Q369 683 360.5 691Q352 699 335 699Q317 699 307 691Q297 683 294 662Q292 642 300 634.5Q308 627 326 627Q343 627 353.5 634.5Q364 642 366 662ZM434 662Q428 608 396.5 583.5Q365 559 318 559Q270 559 244.5 583.5Q219 608 225 662Q232 716 263.5 741Q295 766 343 766Q390 766 415.5 741Q441 716 434 662Z" glyph-name="ring" horiz-adv-x="602" unicode="&#730;" /><glyph d="M196 348Q194 337 206 329.5Q218 322 260 318Q315 313 349.5 300.5Q384 288 402 268Q420 248 424 220.5Q428 193 424 158Q420 126 406 95Q392 64 364.5 39.5Q337 15 295 -0.5Q253 -16 193 -16Q175 -16 153.5 -13.5Q132 -11 109.5 -6.5Q87 -2 66.5 3.5Q46 9 31 15L47 145Q81 132 124 120.5Q167 109 209 109Q255 109 273.5 124Q292 139 294 156Q295 163 293 169.5Q291 176 284 181.5Q277 187 264.5 190.5Q252 194 231 196Q177 201 143 214.5Q109 228 91 247.5Q73 267 68 292.5Q63 318 67 347Q70 376 83.5 406Q97 436 123 460.5Q149 485 188.5 500.5Q228 516 284 516Q319 516 359 509.5Q399 503 441 483L426 357Q385 371 347 381Q309 391 269 391Q227 391 212.5 378Q198 365 196 348Z" glyph-name="s" horiz-adv-x="490" unicode="s" /><glyph d="M190 350Q188 333 206.5 327.5Q225 322 270 318Q324 313 361 302Q398 291 419 272Q440 253 447 225Q454 197 449 157Q444 122 429 90.5Q414 59 384.5 35.5Q355 12 311 -2Q267 -16 204 -16Q186 -16 162 -14.5Q138 -13 114 -9.5Q90 -6 67.5 -0.5Q45 5 30 12L45 139Q79 124 127.5 116.5Q176 109 220 109Q272 109 294 121.5Q316 134 319 156Q321 173 304.5 182Q288 191 243 196Q190 201 153 210.5Q116 220 94 237Q72 254 64 280Q56 306 61 343Q65 380 80.5 412Q96 444 124.5 467Q153 490 195 503Q237 516 296 516Q332 516 378.5 511Q425 506 467 486L452 363Q410 380 367 385.5Q324 391 280 391Q232 391 212 379.5Q192 368 190 350Z" glyph-name="s.smcp" horiz-adv-x="510" /><glyph d="M241 575 343 750H494L327 575ZM196 348Q195 342 197 337.5Q199 333 206 329Q213 325 226.5 322.5Q240 320 261 318Q316 313 350 300.5Q384 288 402 268Q420 248 424 220.5Q428 193 424 158Q420 126 406 95Q392 64 364.5 39.5Q337 15 295 -0.5Q253 -16 193 -16Q175 -16 153.5 -13.5Q132 -11 109.5 -6.5Q87 -2 66.5 3.5Q46 9 31 15L47 145Q81 132 124 120.5Q167 109 209 109Q255 109 273.5 124Q292 139 294 156Q295 163 293 169.5Q291 176 284 181.5Q277 187 264.5 190.5Q252 194 232 196Q177 201 143 214.5Q109 228 91 247.5Q73 267 68.5 292.5Q64 318 67 347Q71 376 84.5 406Q98 436 124 460.5Q150 485 189.5 500.5Q229 516 285 516Q320 516 360 509.5Q400 503 442 483L426 357Q386 371 348 381Q310 391 270 391Q228 391 213 378Q198 365 196 348Z" glyph-name="sacute" horiz-adv-x="490" unicode="&#347;" /><glyph d="M252 575 354 750H505L338 575ZM190 350Q188 333 207 327.5Q226 322 271 318Q325 313 361.5 302Q398 291 419 272Q440 253 447 225Q454 197 449 157Q444 122 429 90.5Q414 59 384.5 35.5Q355 12 311 -2Q267 -16 204 -16Q186 -16 162 -14.5Q138 -13 114 -9.5Q90 -6 67.5 -0.5Q45 5 30 12L46 139Q62 131 83.5 125.5Q105 120 128 116.5Q151 113 174.5 111Q198 109 220 109Q272 109 294 121.5Q316 134 319 156Q321 173 304.5 182Q288 191 244 196Q190 201 153 210.5Q116 220 94.5 237Q73 254 65 280Q57 306 62 343Q66 380 81.5 412Q97 444 125.5 467Q154 490 196 503Q238 516 297 516Q333 516 379 511Q425 506 467 486L452 363Q411 380 368 385.5Q325 391 281 391Q233 391 212.5 379.5Q192 368 190 350Z" glyph-name="sacute.smcp" horiz-adv-x="510" /><glyph d="M484 750 338 575H232L128 750H224L298 686L388 750ZM196 348Q194 337 206 329.5Q218 322 260 318Q315 313 349.5 300.5Q384 288 402 268Q420 248 424 220.5Q428 193 424 158Q420 126 406 95Q392 64 364.5 39.5Q337 15 295 -0.5Q253 -16 193 -16Q175 -16 153.5 -13.5Q132 -11 109.5 -6.5Q87 -2 66.5 3.5Q46 9 31 15L47 145Q81 132 124 120.5Q167 109 209 109Q255 109 273.5 124Q292 139 294 156Q295 163 293 169.5Q291 176 284 181.5Q277 187 264.5 190.5Q252 194 231 196Q177 201 143 214.5Q109 228 91 247.5Q73 267 68 292.5Q63 318 67 347Q70 376 83.5 406Q97 436 123 460.5Q149 485 188.5 500.5Q228 516 284 516Q319 516 359 509.5Q399 503 441 483L426 357Q385 371 347 381Q309 391 269 391Q227 391 212.5 378Q198 365 196 348Z" glyph-name="scaron" horiz-adv-x="490" unicode="&#353;" /><glyph d="M496 750 349 575H243L140 750H236L310 686L400 750ZM190 350Q188 333 207 327.5Q226 322 271 318Q325 313 361.5 302Q398 291 419 272Q440 253 447 225Q454 197 449 157Q444 122 429 90.5Q414 59 384.5 35.5Q355 12 311 -2Q267 -16 204 -16Q186 -16 162 -14.5Q138 -13 114 -9.5Q90 -6 67.5 -0.5Q45 5 30 12L46 139Q62 131 83.5 125.5Q105 120 128 116.5Q151 113 174.5 111Q198 109 220 109Q272 109 294 121.5Q316 134 319 156Q321 173 304.5 182Q288 191 244 196Q190 201 153 210.5Q116 220 94.5 237Q73 254 65 280Q57 306 62 343Q66 380 81.5 412Q97 444 125.5 467Q154 490 196 503Q238 516 297 516Q333 516 379 511Q425 506 467 486L452 363Q411 380 368 385.5Q325 391 281 391Q233 391 212.5 379.5Q192 368 190 350Z" glyph-name="scaron.smcp" horiz-adv-x="510" /><glyph d="M105 -185Q116 -176 126.5 -165Q137 -154 142.5 -142.5Q148 -131 148 -121.5Q148 -112 138 -106Q122 -97 117.5 -84.5Q113 -72 115.5 -59.5Q118 -47 125.5 -34.5Q133 -22 141 -12Q112 -7 81.5 0Q51 7 31 15L47 145Q81 132 124 120.5Q167 109 209 109Q255 109 273.5 124Q292 139 294 156Q295 163 293 169.5Q291 176 284 181.5Q277 187 264.5 190.5Q252 194 232 196Q177 201 143 214.5Q109 228 91 247.5Q73 267 68.5 292.5Q64 318 67 347Q71 376 84.5 406Q98 436 124 460.5Q150 485 189.5 500.5Q229 516 285 516Q320 516 360 509.5Q400 503 442 483L426 357Q386 371 348 381Q310 391 270 391Q228 391 213 378Q198 365 196 348Q195 342 197 337.5Q199 333 206 329Q213 325 226.5 322.5Q240 320 261 318Q316 313 350 300.5Q384 288 402 268Q420 248 424 220.5Q428 193 424 158Q420 129 408 100.5Q396 72 373 48.5Q350 25 315 8Q280 -9 231 -14Q220 -28 218 -43Q216 -58 236 -71Q259 -85 264 -101Q269 -117 264.5 -133Q260 -149 248.5 -162.5Q237 -176 227 -185Z" glyph-name="scedilla" horiz-adv-x="490" unicode="&#351;" /><glyph d="M126 -185Q137 -176 147.5 -165Q158 -154 163.5 -142.5Q169 -131 169 -121.5Q169 -112 159 -106Q143 -97 138.5 -85.5Q134 -74 136 -61.5Q138 -49 145.5 -36.5Q153 -24 161 -14Q126 -12 89 -5.5Q52 1 30 12L46 139Q62 131 83.5 125.5Q105 120 128 116.5Q151 113 174.5 111Q198 109 220 109Q272 109 294 121.5Q316 134 319 156Q321 173 304.5 182Q288 191 244 196Q190 201 153 210.5Q116 220 94.5 237Q73 254 65 280Q57 306 62 343Q66 380 81.5 412Q97 444 125.5 467Q154 490 196 503Q238 516 297 516Q333 516 379 511Q425 506 467 486L452 363Q411 380 368 385.5Q325 391 281 391Q233 391 212.5 379.5Q192 368 190 350Q188 333 207 327.5Q226 322 271 318Q325 313 361.5 302Q398 291 419 272Q440 253 447 225Q454 197 449 157Q445 125 432 96.5Q419 68 396 45.5Q373 23 337.5 7.5Q302 -8 253 -13Q241 -28 239 -43Q237 -58 257 -71Q280 -85 285 -101Q290 -117 285.5 -133Q281 -149 269.5 -162.5Q258 -176 248 -185Z" glyph-name="scedilla.smcp" horiz-adv-x="510" /><glyph d="M367 575 293 639 203 575H107L254 750H360L463 575ZM196 348Q195 342 197 337.5Q199 333 206 329Q213 325 226.5 322.5Q240 320 261 318Q316 313 350 300.5Q384 288 402 268Q420 248 424 220.5Q428 193 424 158Q420 126 406 95Q392 64 364.5 39.5Q337 15 295 -0.5Q253 -16 193 -16Q175 -16 153.5 -13.5Q132 -11 109.5 -6.5Q87 -2 66.5 3.5Q46 9 31 15L47 145Q81 132 124 120.5Q167 109 209 109Q255 109 273.5 124Q292 139 294 156Q295 163 293 169.5Q291 176 284 181.5Q277 187 264.5 190.5Q252 194 232 196Q177 201 143 214.5Q109 228 91 247.5Q73 267 68.5 292.5Q64 318 67 347Q71 376 84.5 406Q98 436 124 460.5Q150 485 189.5 500.5Q229 516 285 516Q320 516 360 509.5Q400 503 442 483L426 357Q386 371 348 381Q310 391 270 391Q228 391 213 378Q198 365 196 348Z" glyph-name="scircumflex" horiz-adv-x="490" unicode="&#349;" /><glyph d="M378 575 304 639 214 575H118L265 750H371L474 575ZM190 350Q188 333 207 327.5Q226 322 271 318Q325 313 361.5 302Q398 291 419 272Q440 253 447 225Q454 197 449 157Q444 122 429 90.5Q414 59 384.5 35.5Q355 12 311 -2Q267 -16 204 -16Q186 -16 162 -14.5Q138 -13 114 -9.5Q90 -6 67.5 -0.5Q45 5 30 12L46 139Q62 131 83.5 125.5Q105 120 128 116.5Q151 113 174.5 111Q198 109 220 109Q272 109 294 121.5Q316 134 319 156Q321 173 304.5 182Q288 191 244 196Q190 201 153 210.5Q116 220 94.5 237Q73 254 65 280Q57 306 62 343Q66 380 81.5 412Q97 444 125.5 467Q154 490 196 503Q238 516 297 516Q333 516 379 511Q425 506 467 486L452 363Q411 380 368 385.5Q325 391 281 391Q233 391 212.5 379.5Q192 368 190 350Z" glyph-name="scircumflex.smcp" horiz-adv-x="510" /><glyph d="M101 -250 121 -192Q92 -168 97 -127Q101 -93 127.5 -69Q154 -45 188 -45Q222 -45 243 -69Q264 -93 260 -127Q258 -138 254 -148Q250 -158 245 -166L196 -250ZM196 348Q195 342 197 337.5Q199 333 206 329Q213 325 226.5 322.5Q240 320 261 318Q316 313 350 300.5Q384 288 402 268Q420 248 424 220.5Q428 193 424 158Q420 126 406 95Q392 64 364.5 39.5Q337 15 295 -0.5Q253 -16 193 -16Q175 -16 153.5 -13.5Q132 -11 109.5 -6.5Q87 -2 66.5 3.5Q46 9 31 15L47 145Q81 132 124 120.5Q167 109 209 109Q255 109 273.5 124Q292 139 294 156Q295 163 293 169.5Q291 176 284 181.5Q277 187 264.5 190.5Q252 194 232 196Q177 201 143 214.5Q109 228 91 247.5Q73 267 68.5 292.5Q64 318 67 347Q71 376 84.5 406Q98 436 124 460.5Q150 485 189.5 500.5Q229 516 285 516Q320 516 360 509.5Q400 503 442 483L426 357Q386 371 348 381Q310 391 270 391Q228 391 213 378Q198 365 196 348Z" glyph-name="scommaaccent" horiz-adv-x="490" unicode="&#537;" /><glyph d="M122 -250 142 -192Q113 -168 118 -127Q122 -93 148.5 -69Q175 -45 209 -45Q243 -45 264 -69Q285 -93 281 -127Q279 -138 275 -148Q271 -158 266 -166L217 -250ZM190 350Q188 333 207 327.5Q226 322 271 318Q325 313 361.5 302Q398 291 419 272Q440 253 447 225Q454 197 449 157Q444 122 429 90.5Q414 59 384.5 35.5Q355 12 311 -2Q267 -16 204 -16Q186 -16 162 -14.5Q138 -13 114 -9.5Q90 -6 67.5 -0.5Q45 5 30 12L46 139Q62 131 83.5 125.5Q105 120 128 116.5Q151 113 174.5 111Q198 109 220 109Q272 109 294 121.5Q316 134 319 156Q321 173 304.5 182Q288 191 244 196Q190 201 153 210.5Q116 220 94.5 237Q73 254 65 280Q57 306 62 343Q66 380 81.5 412Q97 444 125.5 467Q154 490 196 503Q238 516 297 516Q333 516 379 511Q425 506 467 486L452 363Q411 380 368 385.5Q325 391 281 391Q233 391 212.5 379.5Q192 368 190 350Z" glyph-name="scommaaccent.smcp" horiz-adv-x="510" /><glyph d="M307 187Q350 179 385 170.5Q420 162 447 151Q500 182 506 230Q509 252 502.5 266Q496 280 481.5 288.5Q467 297 444.5 302.5Q422 308 393 313Q349 321 314.5 329.5Q280 338 253 349Q225 332 211 312.5Q197 293 194 270Q191 248 197.5 234Q204 220 218.5 211.5Q233 203 255.5 197.5Q278 192 307 187ZM432 448Q502 437 547.5 421.5Q593 406 617.5 381Q642 356 649 319.5Q656 283 649 229Q646 207 639 184Q632 161 619 137.5Q606 114 586.5 92Q567 70 540 51Q547 17 541 -37Q536 -73 520 -113Q504 -153 469.5 -187Q435 -221 378.5 -243.5Q322 -266 236 -266Q168 -266 113.5 -254.5Q59 -243 20 -225L38 -78Q72 -95 101 -105Q130 -115 155.5 -120.5Q181 -126 205 -128Q229 -130 254 -130Q294 -130 321 -123Q348 -116 364.5 -103Q381 -90 388.5 -73Q396 -56 398 -36Q401 -13 393.5 2Q386 17 369.5 26Q353 35 327.5 41Q302 47 268 52Q197 63 152 78.5Q107 94 82 119Q57 144 50.5 180.5Q44 217 51 271Q56 314 80.5 362Q105 410 160 449Q153 483 159 537Q163 573 179.5 613Q196 653 230.5 687Q265 721 321.5 743.5Q378 766 464 766Q532 766 586.5 754.5Q641 743 680 725L662 578Q627 594 598.5 604.5Q570 615 544.5 620.5Q519 626 495 628Q471 630 446 630Q405 630 378.5 623Q352 616 335.5 603Q319 590 311.5 573Q304 556 302 536Q299 513 306.5 498Q314 483 330.5 474Q347 465 372.5 459Q398 453 432 448Z" glyph-name="section" horiz-adv-x="700" unicode="&#167;" /><glyph d="M44 375Q49 409 75 433Q101 457 135 457Q169 457 190 433Q211 409 207 375Q203 341 176 317.5Q149 294 115 294Q81 294 60.5 317.5Q40 341 44 375ZM-8 -114 31 0Q1 23 6 65Q11 99 37 123Q63 147 97 147Q131 147 152 123Q173 99 169 65Q168 54 164 44Q160 34 155 26L73 -114Z" glyph-name="semicolon" horiz-adv-x="220" unicode=";" /><glyph d="M94 0 458 625H86L101 750H620L609 664L240 0Z" glyph-name="seven" horiz-adv-x="600" unicode="7" /><glyph d="M94 0 458 625H86L101 750H620L609 664L240 0Z" glyph-name="seven.LP" horiz-adv-x="600" /><glyph d="M-28 -250 316 375H32L47 500H478L468 414L118 -250Z" glyph-name="seven.OP" horiz-adv-x="465" /><glyph d="M194 228Q192 208 193.5 187Q195 166 205 148.5Q215 131 235 120Q255 109 290 109Q323 109 344 121.5Q365 134 378 152Q391 170 396.5 190.5Q402 211 404 228Q406 245 406 265.5Q406 286 398.5 304Q391 322 372.5 334.5Q354 347 319 347Q284 347 261 335.5Q238 324 224 306Q210 288 203 267Q196 246 194 228ZM563 607Q534 619 486 629Q438 639 378 639Q341 639 313 622Q285 605 265 577Q245 549 232.5 513Q220 477 216 439Q237 453 267 463Q297 473 334 473Q413 473 456.5 449Q500 425 519 388.5Q538 352 539.5 309Q541 266 536 228Q531 190 518 147Q505 104 476 68Q447 32 398.5 8Q350 -16 275 -16Q194 -16 148 8.5Q102 33 81.5 78Q61 123 61 186.5Q61 250 70 327Q81 414 101 493.5Q121 573 158 633.5Q195 694 252 730Q309 766 394 766Q451 766 498 759.5Q545 753 580 742Z" glyph-name="six" horiz-adv-x="600" unicode="6" /><glyph d="M194 228Q192 208 193.5 187Q195 166 205 148.5Q215 131 235 120Q255 109 290 109Q323 109 344 121.5Q365 134 378 152Q391 170 396.5 190.5Q402 211 404 228Q406 245 406 265.5Q406 286 398.5 304Q391 322 372.5 334.5Q354 347 319 347Q284 347 261 335.5Q238 324 224 306Q210 288 203 267Q196 246 194 228ZM563 607Q534 619 486 629Q438 639 378 639Q341 639 313 622Q285 605 265 577Q245 549 232.5 513Q220 477 216 439Q237 453 267 463Q297 473 334 473Q413 473 456.5 449Q500 425 519 388.5Q538 352 539.5 309Q541 266 536 228Q531 190 518 147Q505 104 476 68Q447 32 398.5 8Q350 -16 275 -16Q194 -16 148 8.5Q102 33 81.5 78Q61 123 61 186.5Q61 250 70 327Q81 414 101 493.5Q121 573 158 633.5Q195 694 252 730Q309 766 394 766Q451 766 498 759.5Q545 753 580 742Z" glyph-name="six.LP" horiz-adv-x="600" /><glyph d="M194 228Q192 208 193.5 187Q195 166 205 148.5Q215 131 235 120Q255 109 290 109Q323 109 344 121.5Q365 134 378 152Q391 170 396.5 190.5Q402 211 404 228Q406 245 406 265.5Q406 286 398.5 304Q391 322 372.5 334.5Q354 347 319 347Q284 347 261 335.5Q238 324 224 306Q210 288 203 267Q196 246 194 228ZM563 607Q534 619 486 629Q438 639 378 639Q341 639 313 622Q285 605 265 577Q245 549 232.5 513Q220 477 216 439Q237 453 267 463Q297 473 334 473Q413 473 456.5 449Q500 425 519 388.5Q538 352 539.5 309Q541 266 536 228Q531 190 518 147Q505 104 476 68Q447 32 398.5 8Q350 -16 275 -16Q194 -16 148 8.5Q102 33 81.5 78Q61 123 61 186.5Q61 250 70 327Q81 414 101 493.5Q121 573 158 633.5Q195 694 252 730Q309 766 394 766Q451 766 498 759.5Q545 753 580 742Z" glyph-name="six.OP" horiz-adv-x="600" /><glyph glyph-name="sixperemspace" horiz-adv-x="167" unicode="&#8198;" /><glyph d="M-55 -206 420 816H567L91 -206Z" glyph-name="slash" horiz-adv-x="498" unicode="/" /><glyph glyph-name="space" horiz-adv-x="200" unicode=" " /><glyph d="M274 454H503L488 330H259L234 125H541L526 0H15L30 125H101L126 330H55L70 454H141L154 564Q160 609 177 646.5Q194 684 225 710.5Q256 737 301.5 751.5Q347 766 409 766Q426 766 450 764Q474 762 499.5 758Q525 754 550.5 747.5Q576 741 597 731L581 606Q563 614 539 620Q515 626 489.5 630.5Q464 635 438.5 637.5Q413 640 393 640Q342 640 317 618Q292 596 287 561Z" glyph-name="sterling" horiz-adv-x="600" unicode="&#163;" /><glyph d="M237 319H426L411 195H222L214 125H481L466 0H5L20 125H81L89 195H28L43 319H104L106 334Q111 374 125 407.5Q139 441 166.5 465Q194 489 236 502.5Q278 516 338 516Q373 516 419 510Q465 504 506 484L491 359Q456 375 410 382.5Q364 390 323 390Q280 390 261.5 377Q243 364 239 335Z" glyph-name="sterling.OP" horiz-adv-x="561" /><glyph d="M79 375Q89 456 128.5 527Q168 598 227.5 651.5Q287 705 362 735.5Q437 766 518 766Q599 766 666.5 735.5Q734 705 780.5 651.5Q827 598 849 527Q871 456 861 375Q851 294 812 223Q773 152 713.5 98.5Q654 45 579 14.5Q504 -16 423 -16Q342 -16 274.5 14.5Q207 45 160.5 98.5Q114 152 91.5 223Q69 294 79 375Z" glyph-name="summation" horiz-adv-x="910" unicode="&#8721;" /><glyph d="M335 -7Q301 -15 282 -15.5Q263 -16 257 -16Q225 -16 195 -7.5Q165 1 143 19.5Q121 38 109.5 66Q98 94 103 133L133 381H46L57 471L147 496L161 613L297 649L278 500H416L402 381H264L235 140Q233 122 245 115.5Q257 109 279 109Q292 109 314 111Q336 113 350 115Z" glyph-name="t" horiz-adv-x="425" unicode="t" /><glyph d="M327 375 282 0H149L194 375H50L65 500H486L471 375Z" glyph-name="t.smcp" horiz-adv-x="491" /><glyph d="M335 -7Q301 -15 282 -15.5Q263 -16 257 -16Q225 -16 195 -7.5Q165 1 143 19.5Q121 38 109.5 66Q98 94 103 133L112 211H32L46 320H126L133 381H46L57 471L147 496L162 613L297 649L279 500H417L402 381H264L257 320H375L361 211H243L235 140Q233 122 245 115.5Q257 109 279 109Q292 109 314 111Q336 113 350 115Z" glyph-name="tbar" horiz-adv-x="425" unicode="&#359;" /><glyph d="M328 375 316 279H432L418 164H302L282 0H149L169 164H53L67 279H183L195 375H51L66 500H487L472 375Z" glyph-name="tbar.smcp" horiz-adv-x="491" /><glyph d="M464 750 391 550H325L366 750ZM335 -7Q301 -15 282 -15.5Q263 -16 257 -16Q225 -16 195 -7.5Q165 1 143 19.5Q121 38 109.5 66Q98 94 103 133L133 381H46L57 471L147 496L162 613L297 649L279 500H417L402 381H264L235 140Q233 122 245 115.5Q257 109 279 109Q292 109 314 111Q336 113 350 115Z" glyph-name="tcaron" horiz-adv-x="425" unicode="&#357;" /><glyph d="M486 750 339 575H233L130 750H226L300 686L390 750ZM328 375 282 0H149L195 375H51L66 500H487L472 375Z" glyph-name="tcaron.smcp" horiz-adv-x="491" /><glyph d="M113 -250 133 -192Q104 -168 109 -127Q113 -93 139.5 -69Q166 -45 200 -45Q234 -45 255 -69Q276 -93 272 -127Q270 -138 266 -148Q262 -158 257 -166L208 -250ZM335 -7Q301 -15 282 -15.5Q263 -16 257 -16Q225 -16 195 -7.5Q165 1 143 19.5Q121 38 109.5 66Q98 94 103 133L133 381H46L57 471L147 496L162 613L297 649L279 500H417L402 381H264L235 140Q233 122 245 115.5Q257 109 279 109Q292 109 314 111Q336 113 350 115Z" glyph-name="tcommaaccent" horiz-adv-x="425" unicode="&#355;" /><glyph d="M122 -250 142 -192Q113 -168 118 -127Q122 -93 148.5 -69Q175 -45 209 -45Q243 -45 264 -69Q285 -93 281 -127Q279 -138 275 -148Q271 -158 266 -166L217 -250ZM328 375 282 0H149L195 375H51L66 500H487L472 375Z" glyph-name="tcommaaccent.smcp" horiz-adv-x="491" /><glyph glyph-name="thinspace" horiz-adv-x="100" unicode="&#8201;" /><glyph d="M181 128Q197 121 221 115Q245 109 272 109Q302 109 321.5 119.5Q341 130 354 149Q367 168 373.5 194Q380 220 384 250Q388 280 387.5 306Q387 332 378.5 351Q370 370 353 380.5Q336 391 306 391Q279 391 253.5 385Q228 379 211 372ZM257 750 226 497Q278 516 323 516Q389 516 431 498.5Q473 481 495 447Q517 413 521.5 363.5Q526 314 518 250Q510 185 493.5 135.5Q477 86 447 52.5Q417 19 371 1.5Q325 -16 259 -16Q238 -16 211.5 -10.5Q185 -5 166 3L135 -250H4L126 750Z" glyph-name="thorn" horiz-adv-x="568" unicode="&#254;" /><glyph d="M327 251Q328 260 328 269Q328 278 324.5 285Q321 292 313 296.5Q305 301 290 301H205L193 200H278Q307 200 316 216Q325 232 327 251ZM178 75 169 0H40L101 500H230L221 426H303Q353 426 386 412Q419 398 437 374Q455 350 460 318Q465 286 461 251Q457 216 443.5 184Q430 152 406 128Q382 104 346 89.5Q310 75 260 75Z" glyph-name="thorn.smcp" horiz-adv-x="491" /><glyph d="M305 637Q285 637 258 634.5Q231 632 202 627.5Q173 623 144.5 616.5Q116 610 94 602L111 739Q130 746 158 751Q186 756 215.5 759.5Q245 763 273 764.5Q301 766 321 766Q399 766 448 748Q497 730 523.5 699.5Q550 669 557 629Q564 589 559 545Q554 509 535.5 467.5Q517 426 486 398Q504 383 516 363Q528 343 535 320Q542 297 543.5 272.5Q545 248 542 224Q536 177 517 134Q498 91 461.5 57.5Q425 24 368.5 4Q312 -16 233 -16Q204 -16 173.5 -14Q143 -12 115 -7.5Q87 -3 63 3Q39 9 23 18L39 150Q58 142 83.5 135.5Q109 129 137 124Q165 119 193.5 116Q222 113 248 113Q289 113 317.5 122.5Q346 132 364 148Q382 164 391 184Q400 204 403 224Q409 273 387.5 297.5Q366 322 298 322H161L177 454H314Q344 454 363.5 462.5Q383 471 395 484Q407 497 412.5 513.5Q418 530 420 545Q422 563 418.5 579.5Q415 596 402 608.5Q389 621 365.5 629Q342 637 305 637Z" glyph-name="three" horiz-adv-x="600" unicode="3" /><glyph d="M305 637Q285 637 258 634.5Q231 632 202 627.5Q173 623 144.5 616.5Q116 610 94 602L111 739Q130 746 158 751Q186 756 215.5 759.5Q245 763 273 764.5Q301 766 321 766Q399 766 448 748Q497 730 523.5 699.5Q550 669 557 629Q564 589 559 545Q554 509 535.5 467.5Q517 426 486 398Q504 383 516 363Q528 343 535 320Q542 297 543.5 272.5Q545 248 542 224Q536 177 517 134Q498 91 461.5 57.5Q425 24 368.5 4Q312 -16 233 -16Q204 -16 173.5 -14Q143 -12 115 -7.5Q87 -3 63 3Q39 9 23 18L39 150Q58 142 83.5 135.5Q109 129 137 124Q165 119 193.5 116Q222 113 248 113Q289 113 317.5 122.5Q346 132 364 148Q382 164 391 184Q400 204 403 224Q409 273 387.5 297.5Q366 322 298 322H141L157 454H314Q344 454 363.5 462.5Q383 471 395 484Q407 497 412.5 513.5Q418 530 420 545Q422 563 418.5 579.5Q415 596 402 608.5Q389 621 365.5 629Q342 637 305 637Z" glyph-name="three.LP" horiz-adv-x="600" /><glyph d="M245 387Q209 387 158.5 378Q108 369 63 352L80 489Q99 496 123 501Q147 506 171.5 509.5Q196 513 219 514.5Q242 516 260 516Q329 516 374 498Q419 480 444 449.5Q469 419 476.5 379Q484 339 478 295Q474 259 455 217.5Q436 176 406 148Q424 133 436 113Q448 93 454.5 70Q461 47 462.5 22.5Q464 -2 461 -26Q455 -73 436.5 -116Q418 -159 383.5 -192.5Q349 -226 297 -246Q245 -266 172 -266Q118 -266 71.5 -257.5Q25 -249 -8 -232L8 -100Q46 -115 93.5 -126Q141 -137 188 -137Q225 -137 250 -127.5Q275 -118 290 -102Q305 -86 312.5 -66Q320 -46 322 -26Q328 23 304.5 47.5Q281 72 218 72H105L121 204H234Q261 204 280.5 212.5Q300 221 312 234Q324 247 330.5 263.5Q337 280 339 295Q341 313 339 329.5Q337 346 327 358.5Q317 371 297.5 379Q278 387 245 387Z" glyph-name="three.OP" horiz-adv-x="550" /><glyph glyph-name="threeperemspace" horiz-adv-x="333" unicode="&#8196;" /><glyph d="M713 277H45L60 405H728Z" glyph-name="threequarteremdash" horiz-adv-x="750" /><glyph d="M538 734Q521 645 484 605.5Q447 566 377 568Q347 569 329 580.5Q311 592 299 605Q287 618 277 628.5Q267 639 252 639Q229 639 219 621.5Q209 604 204 579L103 592Q120 681 157 720.5Q194 760 264 758Q294 757 311.5 745.5Q329 734 341 721Q353 708 363.5 697.5Q374 687 389 687Q412 687 422 704.5Q432 722 437 747Z" glyph-name="tilde" horiz-adv-x="540" unicode="&#732;" /><glyph d="M217 684 194 500H122L145 684H78L86 750H291L283 684ZM423 520 374 648 358 500H290L321 750H400L454 614L542 750H621L590 500H522L542 648L463 520Z" glyph-name="trademark" horiz-adv-x="605" unicode="&#8482;" /><glyph d="M435 554Q437 572 435 587.5Q433 603 422.5 615Q412 627 391.5 634Q371 641 337 641Q316 641 295 639Q274 637 250 631.5Q226 626 197 617Q168 608 132 593L148 725Q190 742 240.5 754Q291 766 351 766Q431 766 477 745Q523 724 544.5 692.5Q566 661 569.5 624Q573 587 569 554Q563 503 534 457.5Q505 412 455 364L213 128H526L511 0H19L29 90L395 481Q414 501 423.5 517.5Q433 534 435 554Z" glyph-name="two" horiz-adv-x="600" unicode="2" /><glyph d="M435 554Q437 572 435 587.5Q433 603 422.5 615Q412 627 391.5 634Q371 641 337 641Q316 641 295 639Q274 637 250 631.5Q226 626 197 617Q168 608 132 593L148 725Q190 742 240.5 754Q291 766 351 766Q431 766 477 745Q523 724 544.5 692.5Q566 661 569.5 624Q573 587 569 554Q563 503 534 457.5Q505 412 455 364L213 128H526L511 0H19L29 90L395 481Q414 501 423.5 517.5Q433 534 435 554Z" glyph-name="two.LP" horiz-adv-x="600" /><glyph d="M21 0 32 98 295 281Q321 300 330.5 313.5Q340 327 342 342Q346 370 327 380.5Q308 391 270 391Q246 391 221 387.5Q196 384 171.5 378.5Q147 373 125 365.5Q103 358 87 350L103 483Q114 490 135 496Q156 502 181 506.5Q206 511 232 513.5Q258 516 279 516Q342 516 382.5 504.5Q423 493 445.5 471Q468 449 474.5 418.5Q481 388 477 350Q472 306 447.5 273.5Q423 241 388.5 214.5Q354 188 313.5 167Q273 146 235 125H454L439 0Z" glyph-name="two.OP" horiz-adv-x="520" /><glyph d="M183 170Q180 143 194 126Q208 109 243 109Q259 109 275.5 111.5Q292 114 306.5 117.5Q321 121 332 125Q343 129 349 131L394 500H527L467 0H374L367 16Q355 11 338 5Q321 -1 302 -5.5Q283 -10 263.5 -13Q244 -16 228 -16Q172 -16 135 -3.5Q98 9 77.5 32.5Q57 56 51 90.5Q45 125 50 170L90 500H223Z" glyph-name="u" horiz-adv-x="562" unicode="u" /><glyph d="M255 -16Q197 -16 156.5 -3Q116 10 92 34Q68 58 59 92.5Q50 127 55 170L95 500H228L188 170Q184 137 206.5 123Q229 109 270 109Q311 109 336.5 123Q362 137 366 170L406 500H539L499 170Q488 84 429.5 34Q371 -16 255 -16Z" glyph-name="u.smcp" horiz-adv-x="574" /><glyph d="M275 575 376 750H527L361 575ZM183 170Q180 143 194 126Q208 109 243 109Q259 109 275.5 111.5Q292 114 306.5 117.5Q321 121 332 125Q343 129 349 131L394 500H527L467 0H374L367 16Q355 11 338 5Q321 -1 302 -5.5Q283 -10 263.5 -13Q244 -16 228 -16Q172 -16 135 -3.5Q98 9 77.5 32.5Q57 56 51 90.5Q45 125 50 170L90 500H223Z" glyph-name="uacute" horiz-adv-x="562" unicode="&#250;" /><glyph d="M283 575 385 750H536L369 575ZM255 -16Q197 -16 156.5 -3Q116 10 92 34Q68 58 59 92.5Q50 127 55 170L96 500H229L188 170Q184 137 206.5 123Q229 109 270 109Q311 109 336.5 123Q362 137 366 170L407 500H540L499 170Q488 84 429.5 34Q371 -16 255 -16Z" glyph-name="uacute.smcp" horiz-adv-x="574" /><glyph d="M319 559Q229 559 197 608Q165 657 175 750H277Q274 723 277.5 707Q281 691 289 682.5Q297 674 308.5 671Q320 668 333 668Q346 668 358 671Q370 674 380 682.5Q390 691 397.5 707Q405 723 409 750H511Q497 657 453 608Q409 559 319 559ZM183 170Q180 143 194 126Q208 109 243 109Q259 109 275.5 111.5Q292 114 306.5 117.5Q321 121 332.5 125Q344 129 350 131L395 500H528L467 0H374L367 16Q355 11 338 5Q321 -1 302 -5.5Q283 -10 263.5 -13Q244 -16 228 -16Q172 -16 135 -3.5Q98 9 77.5 32.5Q57 56 51 90.5Q45 125 50 170L91 500H224Z" glyph-name="ubreve" horiz-adv-x="562" unicode="&#365;" /><glyph d="M325 559Q235 559 203 608Q171 657 181 750H283Q280 723 283.5 707Q287 691 295 682.5Q303 674 314.5 671Q326 668 339 668Q352 668 364 671Q376 674 386 682.5Q396 691 403.5 707Q411 723 415 750H517Q503 657 459 608Q415 559 325 559ZM255 -16Q197 -16 156.5 -3Q116 10 92 34Q68 58 59 92.5Q50 127 55 170L96 500H229L188 170Q184 137 206.5 123Q229 109 270 109Q311 109 336.5 123Q362 137 366 170L407 500H540L499 170Q488 84 429.5 34Q371 -16 255 -16Z" glyph-name="ubreve.smcp" horiz-adv-x="574" /><glyph d="M401 575 326 639 237 575H141L287 750H393L497 575ZM183 170Q180 143 194 126Q208 109 243 109Q259 109 275.5 111.5Q292 114 306.5 117.5Q321 121 332 125Q343 129 349 131L394 500H527L467 0H374L367 16Q355 11 338 5Q321 -1 302 -5.5Q283 -10 263.5 -13Q244 -16 228 -16Q172 -16 135 -3.5Q98 9 77.5 32.5Q57 56 51 90.5Q45 125 50 170L90 500H223Z" glyph-name="ucircumflex" horiz-adv-x="562" unicode="&#251;" /><glyph d="M409 575 335 639 245 575H149L296 750H402L505 575ZM255 -16Q197 -16 156.5 -3Q116 10 92 34Q68 58 59 92.5Q50 127 55 170L96 500H229L188 170Q184 137 206.5 123Q229 109 270 109Q311 109 336.5 123Q362 137 366 170L407 500H540L499 170Q488 84 429.5 34Q371 -16 255 -16Z" glyph-name="ucircumflex.smcp" horiz-adv-x="574" /><glyph d="M359 658Q363 692 389.5 716Q416 740 450 740Q484 740 505 716Q526 692 522 658Q517 624 490.5 600.5Q464 577 430 577Q396 577 375 600.5Q354 624 359 658ZM136 658Q140 692 166.5 716Q193 740 227 740Q261 740 282 716Q303 692 299 658Q294 624 267.5 600.5Q241 577 207 577Q173 577 152 600.5Q131 624 136 658ZM183 170Q180 143 194 126Q208 109 243 109Q259 109 275.5 111.5Q292 114 306.5 117.5Q321 121 332 125Q343 129 349 131L394 500H527L467 0H374L367 16Q355 11 338 5Q321 -1 302 -5.5Q283 -10 263.5 -13Q244 -16 228 -16Q172 -16 135 -3.5Q98 9 77.5 32.5Q57 56 51 90.5Q45 125 50 170L90 500H223Z" glyph-name="udieresis" horiz-adv-x="562" unicode="&#252;" /><glyph d="M367 658Q372 692 398 716Q424 740 458 740Q492 740 513 716Q534 692 530 658Q526 624 499 600.5Q472 577 438 577Q404 577 383.5 600.5Q363 624 367 658ZM144 658Q149 692 175 716Q201 740 235 740Q269 740 290 716Q311 692 307 658Q303 624 276 600.5Q249 577 215 577Q181 577 160.5 600.5Q140 624 144 658ZM255 -16Q197 -16 156.5 -3Q116 10 92 34Q68 58 59 92.5Q50 127 55 170L96 500H229L188 170Q184 137 206.5 123Q229 109 270 109Q311 109 336.5 123Q362 137 366 170L407 500H540L499 170Q488 84 429.5 34Q371 -16 255 -16Z" glyph-name="udieresis.smcp" horiz-adv-x="574" /><glyph d="M275 575 151 750H302L361 575ZM183 170Q180 143 194 126Q208 109 243 109Q259 109 275.5 111.5Q292 114 306.5 117.5Q321 121 332 125Q343 129 349 131L394 500H527L467 0H374L367 16Q355 11 338 5Q321 -1 302 -5.5Q283 -10 263.5 -13Q244 -16 228 -16Q172 -16 135 -3.5Q98 9 77.5 32.5Q57 56 51 90.5Q45 125 50 170L90 500H223Z" glyph-name="ugrave" horiz-adv-x="562" unicode="&#249;" /><glyph d="M283 575 160 750H311L369 575ZM255 -16Q197 -16 156.5 -3Q116 10 92 34Q68 58 59 92.5Q50 127 55 170L96 500H229L188 170Q184 137 206.5 123Q229 109 270 109Q311 109 336.5 123Q362 137 366 170L407 500H540L499 170Q488 84 429.5 34Q371 -16 255 -16Z" glyph-name="ugrave.smcp" horiz-adv-x="574" /><glyph d="M349 575 451 750H602L435 575ZM182 575 284 750H435L268 575ZM183 170Q180 143 194 126Q208 109 243 109Q259 109 275.5 111.5Q292 114 306.5 117.5Q321 121 332.5 125Q344 129 350 131L395 500H528L467 0H374L367 16Q355 11 338 5Q321 -1 302 -5.5Q283 -10 263.5 -13Q244 -16 228 -16Q172 -16 135 -3.5Q98 9 77.5 32.5Q57 56 51 90.5Q45 125 50 170L91 500H224Z" glyph-name="uhungarumlaut" horiz-adv-x="562" unicode="&#369;" /><glyph d="M360 575 462 750H613L446 575ZM193 575 295 750H446L279 575ZM255 -16Q197 -16 156.5 -3Q116 10 92 34Q68 58 59 92.5Q50 127 55 170L96 500H229L188 170Q184 137 206.5 123Q229 109 270 109Q311 109 336.5 123Q362 137 366 170L407 500H540L499 170Q488 84 429.5 34Q371 -16 255 -16Z" glyph-name="uhungarumlaut.smcp" horiz-adv-x="574" /><glyph d="M458 575H184L200 703H474ZM183 170Q180 143 194 126Q208 109 243 109Q259 109 275.5 111.5Q292 114 306.5 117.5Q321 121 332.5 125Q344 129 350 131L395 500H528L467 0H374L367 16Q355 11 338 5Q321 -1 302 -5.5Q283 -10 263.5 -13Q244 -16 228 -16Q172 -16 135 -3.5Q98 9 77.5 32.5Q57 56 51 90.5Q45 125 50 170L91 500H224Z" glyph-name="umacron" horiz-adv-x="562" unicode="&#363;" /><glyph d="M464 575H190L206 703H480ZM255 -16Q197 -16 156.5 -3Q116 10 92 34Q68 58 59 92.5Q50 127 55 170L96 500H229L188 170Q184 137 206.5 123Q229 109 270 109Q311 109 336.5 123Q362 137 366 170L407 500H540L499 170Q488 84 429.5 34Q371 -16 255 -16Z" glyph-name="umacron.smcp" horiz-adv-x="574" /><glyph d="M259 -250H-60L-44 -122H275Z" glyph-name="underscore" horiz-adv-x="320" unicode="_" /><glyph d="M333 277H45L60 405H348Z" glyph-name="uni00AD" horiz-adv-x="370" unicode="&#173;" /><glyph d="M183 170Q180 143 194 126Q208 109 243 109Q259 109 275.5 111.5Q292 114 306.5 117.5Q321 121 332.5 125Q344 129 350 131L395 500H528L467 0Q407 -15 380 -38Q353 -61 350 -84Q348 -106 364 -113.5Q380 -121 397 -121Q411 -121 423 -119Q435 -117 444 -115Q455 -112 463 -109L450 -213Q442 -218 418 -225Q394 -232 353 -232Q329 -232 305.5 -225.5Q282 -219 264.5 -206Q247 -193 238 -172.5Q229 -152 232 -123Q237 -81 269.5 -50Q302 -19 372 4L367 16Q355 11 338 5Q321 -1 302 -5.5Q283 -10 263.5 -13Q244 -16 228 -16Q172 -16 135 -3.5Q98 9 77.5 32.5Q57 56 51 90.5Q45 125 50 170L91 500H224Z" glyph-name="uogonek" horiz-adv-x="562" unicode="&#371;" /></font>
</defs>
</svg>
